G75*
%MOIN*%
%OFA0B0*%
%FSLAX24Y24*%
%IPPOS*%
%LPD*%
%AMOC8*
5,1,8,0,0,1.08239X$1,22.5*
%
%ADD10C,0.0710*%
%ADD11R,0.0710X0.0710*%
%ADD12R,0.0800X0.0800*%
%ADD13C,0.0800*%
%ADD14OC8,0.0800*%
%ADD15R,0.0552X0.0217*%
%ADD16C,0.0340*%
%ADD17C,0.0330*%
%ADD18R,0.0340X0.0340*%
%ADD19OC8,0.0330*%
%ADD20C,0.0476*%
%ADD21C,0.0436*%
%ADD22C,0.0510*%
D10*
X005080Y006350D03*
X005080Y008950D03*
D11*
X004080Y008950D03*
X004080Y006350D03*
D12*
X006480Y008550D03*
X008180Y001550D03*
X011880Y001550D03*
D13*
X000980Y001000D03*
X001980Y001000D03*
X002980Y001000D03*
X004130Y001000D03*
X005130Y001000D03*
X006380Y001550D03*
X006480Y002550D03*
X006380Y003550D03*
X006480Y004550D03*
X006380Y005550D03*
X006480Y006550D03*
X006380Y007550D03*
X006580Y009700D03*
X007580Y009700D03*
X011880Y007550D03*
X011980Y006550D03*
X011880Y005550D03*
X011980Y004550D03*
X011880Y003550D03*
X011980Y002550D03*
X011980Y008550D03*
X002780Y009100D03*
X001780Y009100D03*
X000780Y009100D03*
X001480Y008000D03*
X002480Y008000D03*
X002480Y006900D03*
X001480Y006900D03*
X000980Y002000D03*
X001980Y002000D03*
D14*
X008180Y002550D03*
X009180Y002550D03*
X010180Y002550D03*
X010180Y001550D03*
X009180Y001550D03*
D15*
X003607Y002993D03*
X003607Y003248D03*
X003607Y003504D03*
X003607Y003760D03*
X003607Y004016D03*
X003607Y004272D03*
X003607Y004528D03*
X003607Y004784D03*
X003607Y005040D03*
X003607Y005296D03*
X003607Y005552D03*
X003607Y005807D03*
X000753Y005807D03*
X000753Y005552D03*
X000753Y005296D03*
X000753Y005040D03*
X000753Y004784D03*
X000753Y004528D03*
X000753Y004272D03*
X000753Y004016D03*
X000753Y003760D03*
X000753Y003504D03*
X000753Y003248D03*
X000753Y002993D03*
D16*
X004080Y005300D03*
X004380Y005000D03*
X004780Y005000D03*
X004880Y005700D03*
X005280Y005700D03*
X005980Y006100D03*
X005480Y007000D03*
X007180Y006800D03*
X007280Y007250D03*
X007680Y007050D03*
X008980Y007500D03*
X009880Y007600D03*
X009780Y008200D03*
X009180Y008400D03*
X009080Y008800D03*
X008180Y009300D03*
X010780Y009100D03*
X009780Y006400D03*
X009280Y006200D03*
X009280Y005700D03*
X009580Y005000D03*
X009980Y005000D03*
X010280Y005400D03*
X009180Y004600D03*
X008830Y004800D03*
X008780Y004400D03*
X008380Y004100D03*
X007980Y004200D03*
X007980Y005100D03*
X008280Y005500D03*
X007980Y005800D03*
X005280Y004100D03*
X005380Y003600D03*
X005080Y002750D03*
X005330Y002450D03*
X004730Y002500D03*
X008780Y001000D03*
X009080Y003150D03*
X012380Y005100D03*
D17*
X004380Y003000D03*
X004080Y003200D03*
D18*
X009980Y009700D03*
D19*
X006880Y001100D03*
D20*
X001480Y003600D03*
X001380Y004700D03*
X001480Y005200D03*
X001380Y005700D03*
D21*
X001080Y006300D03*
D22*
X008630Y005200D03*
M02*
