G75*
%MOIN*%
%OFA0B0*%
%FSLAX24Y24*%
%IPPOS*%
%LPD*%
%AMOC8*
5,1,8,0,0,1.08239X$1,22.5*
%
%ADD10R,0.0220X0.0500*%
%ADD11R,0.0500X0.0220*%
%ADD12R,0.0217X0.0472*%
%ADD13C,0.0650*%
%ADD14R,0.0650X0.0650*%
%ADD15R,0.0300X0.0600*%
%ADD16R,0.0472X0.0315*%
%ADD17R,0.0276X0.0669*%
%ADD18R,0.0740X0.0740*%
%ADD19C,0.0740*%
%ADD20OC8,0.0740*%
%ADD21R,0.0472X0.0472*%
%ADD22C,0.0160*%
%ADD23C,0.0240*%
%ADD24C,0.0280*%
%ADD25C,0.0120*%
%ADD26C,0.0100*%
%ADD27C,0.0080*%
%ADD28C,0.0320*%
%ADD29C,0.0270*%
%ADD30R,0.0280X0.0280*%
%ADD31OC8,0.0270*%
%ADD32C,0.0416*%
%ADD33C,0.0400*%
%ADD34C,0.0376*%
%ADD35C,0.0450*%
D10*
X008078Y003610D03*
X008393Y003610D03*
X008708Y003610D03*
X009023Y003610D03*
X009337Y003610D03*
X009652Y003610D03*
X009967Y003610D03*
X010282Y003610D03*
X010282Y006990D03*
X009967Y006990D03*
X009652Y006990D03*
X009337Y006990D03*
X009023Y006990D03*
X008708Y006990D03*
X008393Y006990D03*
X008078Y006990D03*
D11*
X007490Y006402D03*
X007490Y006087D03*
X007490Y005772D03*
X007490Y005457D03*
X007490Y005143D03*
X007490Y004828D03*
X007490Y004513D03*
X007490Y004198D03*
X010870Y004198D03*
X010870Y004513D03*
X010870Y004828D03*
X010870Y005143D03*
X010870Y005457D03*
X010870Y005772D03*
X010870Y006087D03*
X010870Y006402D03*
D12*
X005454Y003012D03*
X004706Y003012D03*
X004706Y001988D03*
X005080Y001988D03*
X005454Y001988D03*
D13*
X005080Y006350D03*
X005080Y008950D03*
D14*
X004080Y008950D03*
X004080Y006350D03*
D15*
X009430Y007750D03*
X010930Y007750D03*
X010930Y009750D03*
X009430Y009750D03*
D16*
X008680Y009854D03*
X008680Y009146D03*
X004180Y002604D03*
X004180Y001896D03*
X007330Y001804D03*
X007330Y001096D03*
D17*
X007708Y008150D03*
X008180Y008150D03*
X008652Y008150D03*
D18*
X006480Y008550D03*
X008180Y001550D03*
X011880Y001550D03*
D19*
X011980Y002550D03*
X011880Y003550D03*
X011980Y004550D03*
X011880Y005550D03*
X011980Y006550D03*
X011880Y007550D03*
X011980Y008550D03*
X007580Y009700D03*
X006580Y009700D03*
X006380Y007550D03*
X006480Y006550D03*
X006380Y005550D03*
X006480Y004550D03*
X006380Y003550D03*
X006480Y002550D03*
X006380Y001550D03*
X005130Y001000D03*
X004130Y001000D03*
X002980Y001000D03*
X001980Y001000D03*
X000980Y001000D03*
X000980Y002000D03*
X001980Y002000D03*
X001480Y006900D03*
X002480Y006900D03*
X002480Y008000D03*
X001480Y008000D03*
X001780Y009100D03*
X002780Y009100D03*
X000780Y009100D03*
D20*
X008180Y002550D03*
X009180Y002550D03*
X010180Y002550D03*
X010180Y001550D03*
X009180Y001550D03*
D21*
X007330Y002387D03*
X007330Y003213D03*
X003530Y002813D03*
X003530Y001987D03*
D22*
X000530Y000576D02*
X000456Y000650D01*
X000415Y000747D01*
X000410Y000800D01*
X000410Y004673D01*
X000621Y004462D01*
X000724Y004419D01*
X001140Y004419D01*
X001171Y004388D01*
X001307Y004331D01*
X001453Y004331D01*
X001589Y004388D01*
X001619Y004418D01*
X001619Y004249D01*
X001331Y003961D01*
X001208Y003961D01*
X001076Y003906D01*
X000974Y003804D01*
X000674Y003504D01*
X000619Y003372D01*
X000619Y002390D01*
X000530Y002301D01*
X000449Y002106D01*
X000449Y001894D01*
X000530Y001699D01*
X000679Y001550D01*
X000773Y001511D01*
X000769Y001510D01*
X000692Y001470D01*
X000622Y001420D01*
X000560Y001358D01*
X000510Y001288D01*
X000470Y001211D01*
X000444Y001129D01*
X000430Y001043D01*
X000430Y001020D01*
X000960Y001020D01*
X000960Y000980D01*
X000430Y000980D01*
X000430Y000957D01*
X000444Y000871D01*
X000470Y000789D01*
X000510Y000712D01*
X000560Y000642D01*
X000622Y000580D01*
X000691Y000530D01*
X000680Y000530D01*
X000627Y000535D01*
X000530Y000576D01*
X000488Y000617D02*
X000585Y000617D01*
X000477Y000776D02*
X000412Y000776D01*
X000410Y000934D02*
X000434Y000934D01*
X000438Y001093D02*
X000410Y001093D01*
X000410Y001251D02*
X000491Y001251D01*
X000410Y001410D02*
X000612Y001410D01*
X000661Y001568D02*
X000410Y001568D01*
X000410Y001727D02*
X000519Y001727D01*
X000453Y001885D02*
X000410Y001885D01*
X000410Y002044D02*
X000449Y002044D01*
X000410Y002202D02*
X000489Y002202D01*
X000410Y002361D02*
X000590Y002361D01*
X000619Y002519D02*
X000410Y002519D01*
X000410Y002678D02*
X000619Y002678D01*
X000619Y002836D02*
X000410Y002836D01*
X000410Y002995D02*
X000619Y002995D01*
X000619Y003153D02*
X000410Y003153D01*
X000410Y003312D02*
X000619Y003312D01*
X000660Y003470D02*
X000410Y003470D01*
X000410Y003629D02*
X000798Y003629D01*
X000957Y003787D02*
X000410Y003787D01*
X000410Y003946D02*
X001172Y003946D01*
X001474Y004104D02*
X000410Y004104D01*
X000410Y004263D02*
X001619Y004263D01*
X002177Y003787D02*
X003859Y003787D01*
X003859Y003809D02*
X003859Y003397D01*
X003829Y003368D01*
X003784Y003259D01*
X003784Y003210D01*
X003227Y003210D01*
X003133Y003116D01*
X003133Y002511D01*
X003227Y002416D01*
X003559Y002416D01*
X003559Y002309D01*
X003568Y002300D01*
X003568Y002025D01*
X003492Y002025D01*
X003492Y002403D01*
X003270Y002403D01*
X003224Y002391D01*
X003183Y002367D01*
X003150Y002333D01*
X003126Y002292D01*
X003114Y002247D01*
X003114Y002025D01*
X003492Y002025D01*
X003492Y001949D01*
X003114Y001949D01*
X003114Y001881D01*
X003090Y001881D01*
X003044Y001884D01*
X003034Y001881D01*
X002505Y001881D01*
X002511Y001894D01*
X002511Y002106D01*
X002430Y002301D01*
X002281Y002450D01*
X002086Y002531D01*
X001874Y002531D01*
X001679Y002450D01*
X001530Y002301D01*
X001480Y002180D01*
X001430Y002301D01*
X001341Y002390D01*
X001341Y003151D01*
X001422Y003231D01*
X001553Y003231D01*
X001689Y003288D01*
X001792Y003391D01*
X001800Y003410D01*
X002286Y003896D01*
X002341Y004028D01*
X002341Y005072D01*
X002286Y005204D01*
X002184Y005306D01*
X001984Y005506D01*
X001852Y005561D01*
X001721Y005561D01*
X001749Y005627D01*
X001749Y005711D01*
X001789Y005762D01*
X001946Y005919D01*
X002736Y005919D01*
X002839Y005962D01*
X002918Y006041D01*
X003418Y006541D01*
X003461Y006644D01*
X003461Y007256D01*
X003418Y007359D01*
X003339Y007438D01*
X002973Y007804D01*
X003011Y007894D01*
X003011Y008106D01*
X002930Y008301D01*
X002781Y008450D01*
X002586Y008531D01*
X002374Y008531D01*
X002179Y008450D01*
X002030Y008301D01*
X001980Y008180D01*
X001930Y008301D01*
X001781Y008450D01*
X001586Y008531D01*
X001374Y008531D01*
X001179Y008450D01*
X001030Y008301D01*
X001022Y008281D01*
X000908Y008281D01*
X000880Y008286D01*
X000852Y008281D01*
X000824Y008281D01*
X000798Y008270D01*
X000771Y008265D01*
X000747Y008249D01*
X000721Y008238D01*
X000701Y008218D01*
X000447Y008049D01*
X000421Y008038D01*
X000410Y008027D01*
X000410Y008719D01*
X000479Y008650D01*
X000674Y008569D01*
X000886Y008569D01*
X001081Y008650D01*
X001230Y008799D01*
X001269Y008893D01*
X001270Y008889D01*
X001310Y008812D01*
X001360Y008742D01*
X001422Y008680D01*
X001492Y008630D01*
X001569Y008590D01*
X001651Y008564D01*
X001737Y008550D01*
X001760Y008550D01*
X001760Y009080D01*
X001800Y009080D01*
X001800Y008550D01*
X001823Y008550D01*
X001909Y008564D01*
X001991Y008590D01*
X002068Y008630D01*
X002138Y008680D01*
X002200Y008742D01*
X002250Y008812D01*
X002290Y008889D01*
X002291Y008893D01*
X002330Y008799D01*
X002479Y008650D01*
X002674Y008569D01*
X002886Y008569D01*
X003081Y008650D01*
X003230Y008799D01*
X003311Y008994D01*
X003311Y009206D01*
X003230Y009401D01*
X003081Y009550D01*
X002886Y009631D01*
X002674Y009631D01*
X002479Y009550D01*
X002330Y009401D01*
X002291Y009307D01*
X002290Y009311D01*
X002250Y009388D01*
X002200Y009458D01*
X002138Y009520D01*
X002068Y009570D01*
X001991Y009610D01*
X001909Y009636D01*
X001823Y009650D01*
X001800Y009650D01*
X001800Y009120D01*
X001760Y009120D01*
X001760Y009650D01*
X001737Y009650D01*
X001651Y009636D01*
X001569Y009610D01*
X001492Y009570D01*
X001422Y009520D01*
X001360Y009458D01*
X001310Y009388D01*
X001270Y009311D01*
X001269Y009307D01*
X001230Y009401D01*
X001081Y009550D01*
X000886Y009631D01*
X000674Y009631D01*
X000479Y009550D01*
X000410Y009481D01*
X000410Y009800D01*
X000415Y009853D01*
X000456Y009950D01*
X000530Y010024D01*
X000627Y010065D01*
X000680Y010070D01*
X006199Y010070D01*
X006130Y010001D01*
X006049Y009806D01*
X006049Y009594D01*
X006130Y009399D01*
X006279Y009250D01*
X006359Y009217D01*
X006359Y009209D01*
X006487Y009081D01*
X006043Y009081D01*
X005949Y008987D01*
X005949Y008113D01*
X006043Y008019D01*
X006126Y008019D01*
X006079Y008000D01*
X005930Y007851D01*
X005849Y007656D01*
X005849Y007444D01*
X005930Y007249D01*
X005974Y007206D01*
X005589Y006821D01*
X005459Y006691D01*
X005459Y006658D01*
X005355Y006762D01*
X005177Y006836D01*
X004983Y006836D01*
X004805Y006762D01*
X004668Y006625D01*
X004594Y006447D01*
X004594Y006253D01*
X004668Y006075D01*
X004805Y005938D01*
X004983Y005864D01*
X005177Y005864D01*
X005355Y005938D01*
X005459Y006042D01*
X005459Y005691D01*
X005289Y005521D01*
X004771Y005521D01*
X004501Y005791D01*
X004443Y005849D01*
X004474Y005857D01*
X004516Y005881D01*
X004549Y005914D01*
X004573Y005956D01*
X004585Y006001D01*
X004585Y006350D01*
X004585Y006699D01*
X004573Y006744D01*
X004549Y006786D01*
X004516Y006819D01*
X004474Y006843D01*
X004429Y006855D01*
X004080Y006855D01*
X004080Y006350D01*
X004080Y006350D01*
X004585Y006350D01*
X004080Y006350D01*
X004080Y006350D01*
X004080Y006350D01*
X003575Y006350D01*
X003575Y006699D01*
X003587Y006744D01*
X003611Y006786D01*
X003644Y006819D01*
X003686Y006843D01*
X003731Y006855D01*
X004080Y006855D01*
X004080Y006350D01*
X003575Y006350D01*
X003575Y006001D01*
X003587Y005956D01*
X003611Y005914D01*
X003644Y005881D01*
X003686Y005857D01*
X003731Y005845D01*
X003813Y005845D01*
X003589Y005621D01*
X003459Y005491D01*
X003459Y004391D01*
X003459Y004209D01*
X003859Y003809D01*
X003722Y003946D02*
X002306Y003946D01*
X002341Y004104D02*
X003564Y004104D01*
X003459Y004263D02*
X002341Y004263D01*
X002341Y004421D02*
X003459Y004421D01*
X003459Y004580D02*
X002341Y004580D01*
X002341Y004738D02*
X003459Y004738D01*
X003459Y004897D02*
X002341Y004897D01*
X002341Y005055D02*
X003459Y005055D01*
X003459Y005214D02*
X002277Y005214D01*
X002118Y005372D02*
X003459Y005372D01*
X003498Y005531D02*
X001925Y005531D01*
X001749Y005689D02*
X003657Y005689D01*
X003722Y005848D02*
X001874Y005848D01*
X002883Y006006D02*
X003575Y006006D01*
X003575Y006165D02*
X003041Y006165D01*
X003200Y006323D02*
X003575Y006323D01*
X003575Y006482D02*
X003358Y006482D01*
X003459Y006640D02*
X003575Y006640D01*
X003624Y006799D02*
X003461Y006799D01*
X003461Y006957D02*
X005725Y006957D01*
X005883Y007116D02*
X003461Y007116D01*
X003453Y007274D02*
X005920Y007274D01*
X005854Y007433D02*
X003344Y007433D01*
X003186Y007591D02*
X005849Y007591D01*
X005888Y007750D02*
X003027Y007750D01*
X003011Y007908D02*
X005987Y007908D01*
X005996Y008067D02*
X003011Y008067D01*
X002961Y008225D02*
X005949Y008225D01*
X005949Y008384D02*
X002847Y008384D01*
X003131Y008701D02*
X003575Y008701D01*
X003575Y008601D02*
X003587Y008556D01*
X003611Y008514D01*
X003644Y008481D01*
X003686Y008457D01*
X003731Y008445D01*
X004080Y008445D01*
X004429Y008445D01*
X004474Y008457D01*
X004516Y008481D01*
X004549Y008514D01*
X004573Y008556D01*
X004585Y008601D01*
X004585Y008950D01*
X004585Y009299D01*
X004573Y009344D01*
X004549Y009386D01*
X004516Y009419D01*
X004474Y009443D01*
X004429Y009455D01*
X004080Y009455D01*
X004080Y008950D01*
X004080Y008950D01*
X004585Y008950D01*
X004080Y008950D01*
X004080Y008950D01*
X004080Y008950D01*
X003575Y008950D01*
X003575Y009299D01*
X003587Y009344D01*
X003611Y009386D01*
X003644Y009419D01*
X003686Y009443D01*
X003731Y009455D01*
X004080Y009455D01*
X004080Y008950D01*
X004080Y008445D01*
X004080Y008950D01*
X004080Y008950D01*
X003575Y008950D01*
X003575Y008601D01*
X003595Y008542D02*
X000410Y008542D01*
X000410Y008701D02*
X000429Y008701D01*
X000410Y008384D02*
X001113Y008384D01*
X000708Y008225D02*
X000410Y008225D01*
X000410Y008067D02*
X000474Y008067D01*
X001131Y008701D02*
X001402Y008701D01*
X001286Y008859D02*
X001255Y008859D01*
X001760Y008859D02*
X001800Y008859D01*
X001800Y008701D02*
X001760Y008701D01*
X001760Y009018D02*
X001800Y009018D01*
X001800Y009176D02*
X001760Y009176D01*
X001760Y009335D02*
X001800Y009335D01*
X001800Y009493D02*
X001760Y009493D01*
X001395Y009493D02*
X001138Y009493D01*
X001257Y009335D02*
X001282Y009335D01*
X000422Y009493D02*
X000410Y009493D01*
X000410Y009652D02*
X006049Y009652D01*
X006091Y009493D02*
X003138Y009493D01*
X003257Y009335D02*
X003585Y009335D01*
X003575Y009176D02*
X003311Y009176D01*
X003311Y009018D02*
X003575Y009018D01*
X003575Y008859D02*
X003255Y008859D01*
X004080Y008859D02*
X004080Y008859D01*
X004080Y008701D02*
X004080Y008701D01*
X004080Y008542D02*
X004080Y008542D01*
X004080Y009018D02*
X004080Y009018D01*
X004080Y009176D02*
X004080Y009176D01*
X004080Y009335D02*
X004080Y009335D01*
X004575Y009335D02*
X004778Y009335D01*
X004805Y009362D02*
X004668Y009225D01*
X004594Y009047D01*
X004594Y008853D01*
X004668Y008675D01*
X004805Y008538D01*
X004983Y008464D01*
X005177Y008464D01*
X005355Y008538D01*
X005492Y008675D01*
X005566Y008853D01*
X005566Y009047D01*
X005492Y009225D01*
X005355Y009362D01*
X005177Y009436D01*
X004983Y009436D01*
X004805Y009362D01*
X004648Y009176D02*
X004585Y009176D01*
X004585Y009018D02*
X004594Y009018D01*
X004585Y008859D02*
X004594Y008859D01*
X004585Y008701D02*
X004658Y008701D01*
X004565Y008542D02*
X004801Y008542D01*
X005359Y008542D02*
X005949Y008542D01*
X005949Y008701D02*
X005502Y008701D01*
X005566Y008859D02*
X005949Y008859D01*
X005980Y009018D02*
X005566Y009018D01*
X005512Y009176D02*
X006392Y009176D01*
X006195Y009335D02*
X005382Y009335D01*
X006051Y009810D02*
X000411Y009810D01*
X000474Y009969D02*
X006117Y009969D01*
X007961Y010070D02*
X008030Y010001D01*
X008111Y009806D01*
X008111Y009597D01*
X008120Y009601D01*
X008240Y009601D01*
X008350Y009555D01*
X008422Y009483D01*
X008680Y009483D01*
X008859Y009483D01*
X008859Y009536D01*
X008377Y009536D01*
X008283Y009630D01*
X008283Y010070D01*
X007961Y010070D01*
X008043Y009969D02*
X008283Y009969D01*
X008283Y009810D02*
X008109Y009810D01*
X008111Y009652D02*
X008283Y009652D01*
X008412Y009493D02*
X008859Y009493D01*
X008680Y009483D02*
X008680Y009146D01*
X008680Y009483D01*
X008680Y009335D02*
X008680Y009335D01*
X008680Y009176D02*
X008680Y009176D01*
X008680Y009146D02*
X008680Y009146D01*
X008680Y008808D01*
X008680Y009146D01*
X008680Y009146D01*
X008680Y009018D02*
X008680Y009018D01*
X008680Y008859D02*
X008680Y008859D01*
X008680Y008808D02*
X008779Y008808D01*
X008779Y008740D01*
X008819Y008645D01*
X008448Y008645D01*
X008421Y008618D01*
X008421Y008748D01*
X008393Y008816D01*
X008420Y008808D01*
X008680Y008808D01*
X008796Y008701D02*
X008421Y008701D01*
X008180Y008700D02*
X008080Y008800D01*
X008080Y009200D01*
X008180Y009300D01*
X008180Y008700D02*
X008180Y008150D01*
X008652Y008150D02*
X008652Y007672D01*
X008380Y007400D01*
X008380Y007003D01*
X008393Y006990D01*
X008080Y006992D02*
X008078Y006990D01*
X008080Y006992D02*
X008080Y007500D01*
X007708Y007872D01*
X007708Y008150D01*
X006937Y007581D02*
X007006Y007374D01*
X006979Y007310D01*
X006979Y007190D01*
X007025Y007080D01*
X007110Y006995D01*
X007220Y006949D01*
X007340Y006949D01*
X007388Y006969D01*
X007425Y006880D01*
X007510Y006795D01*
X007620Y006749D01*
X007740Y006749D01*
X007807Y006777D01*
X007807Y006673D01*
X007901Y006579D01*
X008516Y006579D01*
X008528Y006572D01*
X008574Y006560D01*
X008708Y006560D01*
X008841Y006560D01*
X008887Y006572D01*
X008899Y006579D01*
X009146Y006579D01*
X009158Y006572D01*
X009204Y006560D01*
X009337Y006560D01*
X009337Y006990D01*
X009337Y006990D01*
X009337Y006657D01*
X009180Y006500D01*
X008880Y006400D01*
X008708Y006572D01*
X008708Y006990D01*
X008708Y006560D01*
X008708Y006990D01*
X008708Y006990D01*
X008708Y006957D02*
X008708Y006957D01*
X008708Y006799D02*
X008708Y006799D01*
X008980Y007033D02*
X009023Y006990D01*
X008980Y007033D02*
X008980Y007500D01*
X009337Y006990D02*
X009337Y006560D01*
X009471Y006560D01*
X009517Y006572D01*
X009529Y006579D01*
X010459Y006579D01*
X010459Y006308D01*
X010433Y006308D01*
X010385Y006326D01*
X010345Y006308D01*
X010301Y006308D01*
X010265Y006272D01*
X009932Y006121D01*
X009671Y006121D01*
X009581Y006211D01*
X009581Y006260D01*
X009535Y006370D01*
X009450Y006455D01*
X009340Y006501D01*
X009220Y006501D01*
X009110Y006455D01*
X009025Y006370D01*
X008979Y006260D01*
X008979Y006140D01*
X009025Y006030D01*
X009105Y005950D01*
X009025Y005870D01*
X008979Y005760D01*
X008979Y005640D01*
X009025Y005530D01*
X009110Y005445D01*
X009220Y005399D01*
X009340Y005399D01*
X009450Y005445D01*
X009463Y005458D01*
X009629Y005439D01*
X009639Y005429D01*
X009718Y005429D01*
X009771Y005423D01*
X009782Y005416D01*
X009851Y005429D01*
X009921Y005429D01*
X009938Y005446D01*
X009979Y005454D01*
X009979Y005340D01*
X009996Y005301D01*
X009920Y005301D01*
X009810Y005255D01*
X009780Y005225D01*
X009750Y005255D01*
X009640Y005301D01*
X009520Y005301D01*
X009410Y005255D01*
X009325Y005170D01*
X009279Y005060D01*
X009279Y004940D01*
X009325Y004830D01*
X009410Y004745D01*
X009459Y004725D01*
X009459Y004491D01*
X009389Y004421D01*
X009081Y004421D01*
X009081Y004460D01*
X009035Y004570D01*
X008950Y004655D01*
X008840Y004701D01*
X008720Y004701D01*
X008663Y004677D01*
X008589Y004704D01*
X008559Y004733D01*
X008551Y004733D01*
X008551Y004809D01*
X008556Y004814D01*
X008707Y004814D01*
X008848Y004873D01*
X008957Y004982D01*
X009016Y005123D01*
X009016Y005277D01*
X008957Y005418D01*
X008848Y005527D01*
X008707Y005586D01*
X008570Y005586D01*
X008535Y005670D01*
X008450Y005755D01*
X008340Y005801D01*
X008281Y005801D01*
X008281Y005860D01*
X008235Y005970D01*
X008150Y006055D01*
X008040Y006101D01*
X007920Y006101D01*
X007901Y006093D01*
X007901Y006579D01*
X007807Y006673D01*
X007292Y006673D01*
X007185Y006688D01*
X007158Y006696D01*
X007138Y006695D01*
X007118Y006697D01*
X007091Y006690D01*
X007063Y006688D01*
X007045Y006678D01*
X007026Y006673D01*
X007009Y006661D01*
X006930Y006851D01*
X006781Y007000D01*
X006610Y007071D01*
X006681Y007100D01*
X006830Y007249D01*
X006911Y007444D01*
X006911Y007607D01*
X006937Y007581D01*
X006927Y007591D02*
X006911Y007591D01*
X006906Y007433D02*
X006987Y007433D01*
X006979Y007274D02*
X006840Y007274D01*
X006696Y007116D02*
X007010Y007116D01*
X006824Y006957D02*
X007202Y006957D01*
X007358Y006957D02*
X007393Y006957D01*
X007506Y006799D02*
X006951Y006799D01*
X007132Y006452D02*
X006380Y005550D01*
X005901Y005780D02*
X005901Y006509D01*
X005949Y006557D01*
X005949Y006444D01*
X006030Y006249D01*
X006179Y006100D01*
X006250Y006071D01*
X006079Y006000D01*
X005930Y005851D01*
X005901Y005780D01*
X005901Y005848D02*
X005929Y005848D01*
X005901Y006006D02*
X006094Y006006D01*
X006115Y006165D02*
X005901Y006165D01*
X005901Y006323D02*
X006000Y006323D01*
X005949Y006482D02*
X005901Y006482D01*
X005566Y006799D02*
X005266Y006799D01*
X004894Y006799D02*
X004536Y006799D01*
X004585Y006640D02*
X004683Y006640D01*
X004609Y006482D02*
X004585Y006482D01*
X004585Y006323D02*
X004594Y006323D01*
X004585Y006165D02*
X004631Y006165D01*
X004585Y006006D02*
X004737Y006006D01*
X004501Y005791D02*
X004501Y005791D01*
X004445Y005848D02*
X005459Y005848D01*
X005459Y006006D02*
X005423Y006006D01*
X005457Y005689D02*
X004603Y005689D01*
X004762Y005531D02*
X005298Y005531D01*
X004080Y006482D02*
X004080Y006482D01*
X004080Y006640D02*
X004080Y006640D01*
X004080Y006799D02*
X004080Y006799D01*
X002113Y008384D02*
X001847Y008384D01*
X001961Y008225D02*
X001999Y008225D01*
X002158Y008701D02*
X002429Y008701D01*
X002305Y008859D02*
X002274Y008859D01*
X002278Y009335D02*
X002303Y009335D01*
X002422Y009493D02*
X002165Y009493D01*
X007167Y006087D02*
X006980Y005800D01*
X006980Y005300D01*
X006580Y004900D01*
X006580Y004650D01*
X006480Y004550D01*
X005559Y003809D02*
X005559Y003409D01*
X005279Y003409D01*
X005185Y003315D01*
X005185Y003032D01*
X005140Y003051D01*
X005020Y003051D01*
X004994Y003040D01*
X004994Y003272D01*
X004982Y003318D01*
X004958Y003359D01*
X004925Y003392D01*
X004884Y003416D01*
X004838Y003428D01*
X004706Y003428D01*
X004706Y003012D01*
X004706Y003012D01*
X004706Y003428D01*
X004574Y003428D01*
X004528Y003416D01*
X004487Y003392D01*
X004454Y003359D01*
X004430Y003318D01*
X004424Y003296D01*
X004360Y003296D01*
X004331Y003368D01*
X004301Y003397D01*
X004301Y003991D01*
X003901Y004391D01*
X003901Y004750D01*
X004259Y004320D01*
X004259Y004309D01*
X004317Y004251D01*
X004369Y004188D01*
X004380Y004187D01*
X004389Y004179D01*
X004470Y004179D01*
X004551Y004172D01*
X004560Y004179D01*
X005359Y004179D01*
X005359Y004009D01*
X005489Y003879D01*
X005559Y003809D01*
X005559Y003787D02*
X004301Y003787D01*
X004301Y003946D02*
X005422Y003946D01*
X005359Y004104D02*
X004188Y004104D01*
X004305Y004263D02*
X004030Y004263D01*
X003901Y004421D02*
X004175Y004421D01*
X004043Y004580D02*
X003901Y004580D01*
X003901Y004738D02*
X003911Y004738D01*
X003859Y003629D02*
X002019Y003629D01*
X001860Y003470D02*
X003859Y003470D01*
X003806Y003312D02*
X001713Y003312D01*
X001343Y003153D02*
X003170Y003153D01*
X003133Y002995D02*
X001341Y002995D01*
X001341Y002836D02*
X003133Y002836D01*
X003133Y002678D02*
X001341Y002678D01*
X001341Y002519D02*
X001846Y002519D01*
X002114Y002519D02*
X003133Y002519D01*
X003177Y002361D02*
X002370Y002361D01*
X002471Y002202D02*
X003114Y002202D01*
X003114Y002044D02*
X002511Y002044D01*
X002507Y001885D02*
X003114Y001885D01*
X003492Y002044D02*
X003568Y002044D01*
X003568Y002202D02*
X003492Y002202D01*
X003492Y002361D02*
X003559Y002361D01*
X004180Y002604D02*
X004380Y003000D01*
X004706Y003153D02*
X004706Y003153D01*
X004706Y003312D02*
X004706Y003312D01*
X004984Y003312D02*
X005185Y003312D01*
X005185Y003153D02*
X004994Y003153D01*
X005559Y003470D02*
X004301Y003470D01*
X004301Y003629D02*
X005559Y003629D01*
X005080Y002750D02*
X005330Y002450D01*
X005080Y002300D01*
X005080Y002100D01*
X004180Y002000D02*
X004180Y001896D01*
X004130Y001000D02*
X004080Y001000D01*
X005382Y000530D02*
X005431Y000550D01*
X005580Y000699D01*
X005661Y000894D01*
X005661Y001106D01*
X005659Y001109D01*
X005740Y001169D01*
X005762Y001178D01*
X005791Y001207D01*
X005823Y001232D01*
X005835Y001252D01*
X005852Y001268D01*
X005868Y001306D01*
X005888Y001341D01*
X005889Y001348D01*
X005930Y001249D01*
X006079Y001100D01*
X006274Y001019D01*
X006486Y001019D01*
X006584Y001060D01*
X006584Y000978D01*
X006758Y000804D01*
X007000Y000804D01*
X007027Y000777D01*
X007633Y000777D01*
X007727Y000872D01*
X007727Y001036D01*
X007743Y001019D01*
X008617Y001019D01*
X008711Y001113D01*
X008711Y001269D01*
X008960Y001019D01*
X009400Y001019D01*
X009680Y001299D01*
X009960Y001019D01*
X010400Y001019D01*
X010711Y001330D01*
X010711Y001529D01*
X010876Y001364D01*
X010944Y001296D01*
X011032Y001259D01*
X011349Y001259D01*
X011349Y001113D01*
X011443Y001019D01*
X012317Y001019D01*
X012411Y001113D01*
X012411Y001987D01*
X012317Y002081D01*
X012234Y002081D01*
X012281Y002100D01*
X012430Y002249D01*
X012450Y002298D01*
X012450Y000800D01*
X012445Y000747D01*
X012404Y000650D01*
X012330Y000576D01*
X012233Y000535D01*
X012180Y000530D01*
X005382Y000530D01*
X005498Y000617D02*
X012372Y000617D01*
X012448Y000776D02*
X005611Y000776D01*
X005661Y000934D02*
X006628Y000934D01*
X006880Y001100D02*
X007330Y001096D01*
X007727Y000934D02*
X012450Y000934D01*
X012450Y001093D02*
X012390Y001093D01*
X012411Y001251D02*
X012450Y001251D01*
X012450Y001410D02*
X012411Y001410D01*
X012411Y001568D02*
X012450Y001568D01*
X012450Y001727D02*
X012411Y001727D01*
X012411Y001885D02*
X012450Y001885D01*
X012450Y002044D02*
X012354Y002044D01*
X012383Y002202D02*
X012450Y002202D01*
X011980Y002550D02*
X011930Y002600D01*
X011180Y002600D01*
X011080Y002700D01*
X011080Y002900D01*
X010370Y003610D01*
X010282Y003610D01*
X009967Y003610D02*
X009967Y003213D01*
X010080Y003100D01*
X010480Y003100D01*
X010780Y002800D01*
X010780Y001800D01*
X011080Y001500D01*
X011830Y001500D01*
X011880Y001550D01*
X011349Y001251D02*
X010632Y001251D01*
X010473Y001093D02*
X011370Y001093D01*
X010830Y001410D02*
X010711Y001410D01*
X009887Y001093D02*
X009473Y001093D01*
X009632Y001251D02*
X009728Y001251D01*
X008887Y001093D02*
X008690Y001093D01*
X008711Y001251D02*
X008728Y001251D01*
X007330Y001804D02*
X007330Y002387D01*
X007330Y003213D02*
X007681Y003213D01*
X007724Y003256D01*
X008078Y003610D01*
X008393Y003610D02*
X008393Y004040D01*
X008393Y003610D01*
X008393Y003610D01*
X008393Y004087D01*
X008380Y004100D01*
X008393Y004040D02*
X008259Y004040D01*
X008237Y004034D01*
X008281Y004140D01*
X008281Y004260D01*
X008267Y004292D01*
X008429Y004292D01*
X008512Y004262D01*
X008525Y004230D01*
X008610Y004145D01*
X008612Y004144D01*
X008508Y004040D01*
X008393Y004040D01*
X008393Y003946D02*
X008393Y003946D01*
X008393Y003787D02*
X008393Y003787D01*
X008393Y003629D02*
X008393Y003629D01*
X008693Y003199D02*
X008831Y003199D01*
X008843Y003192D01*
X008889Y003180D01*
X009023Y003180D01*
X009147Y003180D01*
X009159Y003154D01*
X009176Y003114D01*
X009179Y003111D01*
X009181Y003107D01*
X009209Y003081D01*
X008960Y003081D01*
X008886Y003006D01*
X008701Y003191D01*
X008693Y003199D01*
X008739Y003153D02*
X009160Y003153D01*
X009023Y003180D02*
X009023Y003610D01*
X009023Y003610D01*
X009023Y003180D01*
X009023Y003312D02*
X009023Y003312D01*
X009023Y003470D02*
X009023Y003470D01*
X009023Y003610D02*
X008978Y003610D01*
X009023Y003610D01*
X009023Y003610D01*
X008978Y003610D02*
X008978Y003610D01*
X009337Y003610D02*
X009380Y003567D01*
X009380Y003250D01*
X010130Y002550D01*
X010180Y002550D01*
X011180Y003500D02*
X011830Y003500D01*
X011880Y003550D01*
X011180Y003500D02*
X010870Y003810D01*
X010870Y004198D01*
X010870Y004513D02*
X011943Y004513D01*
X011980Y004550D01*
X011408Y004828D02*
X011880Y005550D01*
X011330Y005850D02*
X011330Y005200D01*
X011123Y005143D01*
X010870Y005143D01*
X010870Y004828D02*
X011408Y004828D01*
X011330Y005850D02*
X011980Y006550D01*
X011059Y006891D02*
X011059Y007289D01*
X010781Y007289D01*
X010671Y007179D01*
X010553Y007061D01*
X010553Y006673D01*
X010459Y006579D01*
X010553Y006673D01*
X010841Y006673D01*
X011059Y006891D01*
X011059Y006957D02*
X010553Y006957D01*
X010553Y006799D02*
X010966Y006799D01*
X011059Y007116D02*
X010608Y007116D01*
X010766Y007274D02*
X011059Y007274D01*
X010520Y006640D02*
X010520Y006640D01*
X010459Y006482D02*
X009386Y006482D01*
X009337Y006640D02*
X009337Y006640D01*
X009174Y006482D02*
X007901Y006482D01*
X007901Y006323D02*
X009005Y006323D01*
X008979Y006165D02*
X007901Y006165D01*
X008199Y006006D02*
X009049Y006006D01*
X009016Y005848D02*
X008281Y005848D01*
X008516Y005689D02*
X008979Y005689D01*
X009025Y005531D02*
X008840Y005531D01*
X008976Y005372D02*
X009979Y005372D01*
X009368Y005214D02*
X009016Y005214D01*
X008987Y005055D02*
X009279Y005055D01*
X009297Y004897D02*
X008872Y004897D01*
X009026Y004580D02*
X009459Y004580D01*
X009427Y004738D02*
X008551Y004738D01*
X009081Y004421D02*
X009389Y004421D01*
X008572Y004104D02*
X008266Y004104D01*
X008280Y004263D02*
X008510Y004263D01*
X007490Y006087D02*
X007167Y006087D01*
X007132Y006452D02*
X007490Y006402D01*
X007840Y006640D02*
X007840Y006640D01*
X008708Y006640D02*
X008708Y006640D01*
X009337Y006799D02*
X009337Y006799D01*
X009337Y006957D02*
X009337Y006957D01*
X009652Y006990D02*
X009680Y007018D01*
X009680Y007300D01*
X009780Y007400D01*
X009880Y007600D01*
X009555Y006323D02*
X010378Y006323D01*
X010393Y006323D02*
X010459Y006323D01*
X010029Y006165D02*
X009628Y006165D01*
X011501Y008780D02*
X011501Y008791D01*
X011401Y008891D01*
X011271Y009021D01*
X009285Y009021D01*
X009250Y009055D01*
X009192Y009079D01*
X010389Y009079D01*
X010571Y009079D01*
X010781Y009289D01*
X011147Y009289D01*
X011241Y009383D01*
X011241Y009679D01*
X012117Y009679D01*
X012279Y009517D01*
X012279Y009000D01*
X012086Y009081D01*
X011874Y009081D01*
X011679Y009000D01*
X011530Y008851D01*
X011501Y008780D01*
X011538Y008859D02*
X011433Y008859D01*
X011275Y009018D02*
X011722Y009018D01*
X011192Y009335D02*
X012279Y009335D01*
X012279Y009493D02*
X011241Y009493D01*
X011241Y009652D02*
X012145Y009652D01*
X012279Y009176D02*
X010668Y009176D01*
X009980Y009700D02*
X009930Y009750D01*
X009430Y009750D01*
X012238Y009018D02*
X012279Y009018D01*
X004428Y003312D02*
X004354Y003312D01*
X002000Y001469D02*
X002000Y001020D01*
X001960Y001020D01*
X001960Y001469D01*
X002000Y001469D01*
X002000Y001410D02*
X001960Y001410D01*
X001980Y001300D02*
X001780Y001500D01*
X001773Y001511D02*
X001679Y001550D01*
X001530Y001699D01*
X001480Y001820D01*
X001430Y001699D01*
X001281Y001550D01*
X001187Y001511D01*
X001191Y001510D01*
X001268Y001470D01*
X001338Y001420D01*
X001400Y001358D01*
X001450Y001288D01*
X001480Y001230D01*
X001510Y001288D01*
X001560Y001358D01*
X001622Y001420D01*
X001692Y001470D01*
X001769Y001510D01*
X001773Y001511D01*
X001661Y001568D02*
X001299Y001568D01*
X001348Y001410D02*
X001612Y001410D01*
X001491Y001251D02*
X001469Y001251D01*
X001530Y001020D02*
X001000Y001020D01*
X001000Y000980D01*
X001960Y000980D01*
X001960Y001020D01*
X001530Y001020D01*
X001960Y001093D02*
X002000Y001093D01*
X001980Y001100D02*
X001980Y001300D01*
X001960Y001251D02*
X002000Y001251D01*
X001519Y001727D02*
X001441Y001727D01*
X001471Y002202D02*
X001489Y002202D01*
X001590Y002361D02*
X001370Y002361D01*
X000720Y004421D02*
X000410Y004421D01*
X000410Y004580D02*
X000504Y004580D01*
X005661Y001093D02*
X006098Y001093D01*
X005929Y001251D02*
X005835Y001251D01*
D23*
X005080Y001800D02*
X005080Y001988D01*
X005080Y001800D02*
X004930Y001550D01*
X004580Y001500D01*
X004080Y001000D02*
X003880Y001000D01*
X003480Y001400D01*
X003080Y001600D01*
X002380Y001600D01*
X001980Y002000D01*
X002967Y001987D02*
X003530Y001987D01*
X001380Y004700D02*
X000780Y004700D01*
X000580Y004900D01*
X000580Y007800D01*
X000880Y008000D01*
X001480Y008000D01*
X002480Y008000D02*
X002480Y007900D01*
X003180Y007200D01*
X003180Y006700D01*
X002680Y006200D01*
X001830Y006200D01*
X001580Y005950D01*
X001380Y005700D01*
X000930Y005900D02*
X000980Y006000D01*
X001080Y006300D01*
X000930Y005900D02*
X000930Y005500D01*
X001280Y005200D01*
X001480Y005200D01*
D24*
X004080Y005300D03*
X004380Y005000D03*
X004780Y005000D03*
X004880Y005700D03*
X005280Y005700D03*
X005980Y006100D03*
X005480Y007000D03*
X007180Y006800D03*
X007280Y007250D03*
X007680Y007050D03*
X008980Y007500D03*
X009880Y007600D03*
X009780Y008200D03*
X009180Y008400D03*
X009080Y008800D03*
X008180Y009300D03*
X010780Y009100D03*
X009780Y006400D03*
X009280Y006200D03*
X009280Y005700D03*
X009580Y005000D03*
X009980Y005000D03*
X010280Y005400D03*
X009180Y004600D03*
X008830Y004800D03*
X008780Y004400D03*
X008380Y004100D03*
X007980Y004200D03*
X007980Y005100D03*
X008280Y005500D03*
X007980Y005800D03*
X005280Y004100D03*
X005380Y003600D03*
X005080Y002750D03*
X005330Y002450D03*
X004730Y002500D03*
X008780Y001000D03*
X009080Y003150D03*
X012380Y005100D03*
D25*
X010870Y005457D02*
X010827Y005500D01*
X010380Y005500D01*
X010280Y005400D01*
X010202Y005722D02*
X009830Y005650D01*
X009730Y005650D01*
X009280Y005700D01*
X009580Y005900D02*
X009280Y006200D01*
X009595Y006400D02*
X009337Y006657D01*
X009595Y006400D02*
X009780Y006400D01*
X009980Y005900D02*
X009580Y005900D01*
X009980Y005900D02*
X010393Y006087D01*
X010870Y006087D01*
X010870Y006402D02*
X010882Y006402D01*
X011280Y006800D01*
X011280Y008700D01*
X011180Y008800D01*
X009080Y008800D01*
X008726Y009100D02*
X008680Y009146D01*
X009080Y009400D02*
X009180Y009300D01*
X010480Y009300D01*
X010930Y009750D01*
X011080Y009900D01*
X012180Y009900D01*
X010580Y008300D02*
X010380Y008500D01*
X009280Y008500D01*
X009180Y008400D01*
X009780Y008200D02*
X010180Y007800D01*
X010180Y007500D01*
X009917Y007187D01*
X009967Y006990D01*
X010282Y006990D02*
X010282Y007102D01*
X010580Y007400D01*
X010580Y008300D01*
X009080Y009400D02*
X009080Y009800D01*
X009026Y009854D01*
X008680Y009854D01*
X007580Y009700D02*
X007580Y009200D01*
X007380Y008900D01*
X007380Y007750D01*
X007580Y007550D01*
X007680Y007050D01*
X007280Y007250D02*
X007130Y007700D01*
X007130Y009000D01*
X006880Y009200D01*
X006680Y009200D01*
X006580Y009300D01*
X006580Y009700D01*
X006930Y007600D02*
X006980Y007350D01*
X006980Y007400D01*
X006380Y007300D02*
X005680Y006600D01*
X005680Y005600D01*
X005380Y005300D01*
X004680Y005300D01*
X004280Y005700D01*
X003980Y005700D01*
X003680Y005400D01*
X003680Y004300D01*
X004080Y003900D01*
X004080Y003200D01*
X003530Y002813D02*
X003780Y002563D01*
X003780Y002400D01*
X002967Y001987D02*
X002793Y001987D01*
X002280Y002600D01*
X001680Y002600D01*
X001480Y002300D01*
X001480Y001600D02*
X001980Y001100D01*
X001980Y001000D01*
X004706Y001988D02*
X004706Y002274D01*
X004730Y002500D01*
X005080Y002100D02*
X005080Y001988D01*
X005980Y003000D02*
X005780Y003150D01*
X005780Y003900D01*
X005580Y004100D01*
X005580Y004400D01*
X004480Y004400D01*
X003980Y005000D01*
X004080Y005300D01*
X004380Y005000D02*
X004580Y004700D01*
X005880Y004700D01*
X005880Y004150D01*
X006680Y004000D02*
X006880Y004100D01*
X006980Y004200D01*
X006980Y004300D01*
X007193Y004513D01*
X007490Y004513D01*
X008467Y004513D01*
X008780Y004400D01*
X008980Y004200D02*
X009480Y004200D01*
X009680Y004400D01*
X009680Y004900D01*
X009580Y005000D01*
X009980Y005000D02*
X009980Y004200D01*
X009652Y003872D01*
X009652Y003610D01*
X009023Y003610D02*
X009023Y003243D01*
X009080Y003150D01*
X008980Y003610D01*
X009023Y003610D01*
X008708Y003610D02*
X008708Y003928D01*
X008980Y004200D01*
X009080Y004600D02*
X008980Y004700D01*
X009080Y004600D02*
X009180Y004600D01*
X008630Y005200D02*
X008330Y004900D01*
X008330Y004800D01*
X008080Y004800D01*
X007490Y004828D01*
X007490Y005143D02*
X007937Y005143D01*
X007980Y005100D01*
X007937Y005457D02*
X007490Y005457D01*
X007490Y005772D02*
X007518Y005800D01*
X007980Y005800D01*
X007937Y005457D02*
X008280Y005500D01*
X007980Y004200D02*
X007492Y004200D01*
X007490Y004198D01*
X007490Y004110D01*
X006980Y003600D01*
X006780Y003100D01*
X007724Y003256D02*
X007880Y003100D01*
X008480Y003100D01*
X008680Y002900D01*
X008680Y002100D02*
X009180Y001600D01*
X009180Y001550D01*
X005830Y005000D02*
X006380Y005550D01*
X005830Y005000D02*
X004780Y005000D01*
X005280Y007000D02*
X005480Y007000D01*
X006380Y007300D02*
X006380Y007550D01*
X010202Y005722D02*
X010870Y005772D01*
D26*
X006930Y007600D02*
X006880Y008050D01*
X008726Y009100D02*
X010780Y009100D01*
X003780Y002400D02*
X004180Y002000D01*
D27*
X005980Y003000D02*
X006780Y003100D01*
X006680Y004000D02*
X005880Y004150D01*
X008680Y002900D02*
X008680Y002100D01*
X012380Y005100D02*
X012480Y005200D01*
X012480Y009600D01*
X012180Y009900D01*
X006880Y008050D02*
X005680Y008050D01*
X001480Y002300D02*
X001480Y001600D01*
D28*
X004130Y001050D02*
X004130Y001000D01*
X004130Y001050D02*
X004580Y001500D01*
X005180Y001150D02*
X005130Y001000D01*
X005180Y001150D02*
X005580Y001450D01*
X005580Y001912D01*
X005454Y001988D01*
D29*
X004380Y003000D03*
X004080Y003200D03*
D30*
X009980Y009700D03*
D31*
X006880Y001100D03*
D32*
X001480Y003600D03*
X001380Y004700D03*
X001480Y005200D03*
X001380Y005700D03*
D33*
X001480Y005200D02*
X001780Y005200D01*
X001980Y005000D01*
X001980Y004100D01*
X001480Y003600D01*
X001280Y003600D01*
X000980Y003300D01*
X000980Y002000D01*
D34*
X001080Y006300D03*
D35*
X008630Y005200D03*
M02*
