%
M48
M72
T01C0.0130
T02C0.0140
T03C0.0236
T04C0.0276
T05C0.0300
T06C0.0400
%
T01
X4080Y3200
X4380Y3000
X6880Y1100
T02
X5330Y2450
X5080Y2750
X4730Y2500
X5380Y3600
X5280Y4100
X4780Y5000
X4380Y5000
X4080Y5300
X4880Y5700
X5280Y5700
X5980Y6100
X5480Y7000
X7180Y6800
X7280Y7250
X7680Y7050
X8980Y7500
X9880Y7600
X9780Y8200
X9180Y8400
X9080Y8800
X8180Y9300
X9980Y9700
X10780Y9100
X9780Y6400
X9280Y6200
X9280Y5700
X9580Y5000
X9980Y5000
X10280Y5400
X9180Y4600
X8830Y4800
X8780Y4400
X8380Y4100
X7980Y4200
X7980Y5100
X8280Y5500
X7980Y5800
X9080Y3150
X8780Y1000
X12380Y5100
T03
X1080Y6300
T04
X1380Y5700
X1480Y5200
X1380Y4700
X1480Y3600
X4080Y6350
X5080Y6350
X5080Y8950
X4080Y8950
T05
X8630Y5200
T06
X980Y1000
X1980Y1000
X2980Y1000
X4130Y1000
X5130Y1000
X6380Y1550
X6480Y2550
X6380Y3550
X6480Y4550
X6380Y5550
X6480Y6550
X6380Y7550
X6480Y8550
X6580Y9700
X7580Y9700
X11880Y7550
X11980Y6550
X11880Y5550
X11980Y4550
X11880Y3550
X11980Y2550
X11880Y1550
X10180Y1550
X9180Y1550
X8180Y1550
X8180Y2550
X9180Y2550
X10180Y2550
X11980Y8550
X2780Y9100
X1780Y9100
X780Y9100
X1480Y8000
X2480Y8000
X2480Y6900
X1480Y6900
X980Y2000
X1980Y2000
M30
