G75*
%MOIN*%
%OFA0B0*%
%FSLAX24Y24*%
%IPPOS*%
%LPD*%
%AMOC8*
5,1,8,0,0,1.08239X$1,22.5*
%
%ADD10C,0.0000*%
%ADD11C,0.0030*%
%ADD12C,0.0010*%
%ADD13C,0.0020*%
%ADD14C,0.0060*%
%ADD15C,0.0080*%
%ADD16C,0.0050*%
%ADD17R,0.0079X0.0079*%
%ADD18R,0.1378X0.0004*%
%ADD19R,0.1382X0.0004*%
%ADD20R,0.1394X0.0004*%
%ADD21R,0.0004X0.0004*%
%ADD22R,0.0012X0.0004*%
%ADD23R,0.0020X0.0004*%
%ADD24R,0.0028X0.0004*%
%ADD25R,0.0035X0.0004*%
%ADD26R,0.0039X0.0004*%
%ADD27R,0.0043X0.0004*%
%ADD28R,0.0047X0.0004*%
%ADD29R,0.0051X0.0004*%
%ADD30R,0.0059X0.0004*%
%ADD31R,0.0067X0.0004*%
%ADD32R,0.0083X0.0004*%
%ADD33R,0.0091X0.0004*%
%ADD34R,0.0094X0.0004*%
%ADD35R,0.0098X0.0004*%
%ADD36R,0.0106X0.0004*%
%ADD37R,0.0114X0.0004*%
%ADD38R,0.0122X0.0004*%
%ADD39R,0.0130X0.0004*%
%ADD40R,0.0134X0.0004*%
%ADD41R,0.0138X0.0004*%
%ADD42R,0.0146X0.0004*%
%ADD43R,0.0154X0.0004*%
%ADD44R,0.0161X0.0004*%
%ADD45R,0.0165X0.0004*%
%ADD46R,0.0169X0.0004*%
%ADD47R,0.0177X0.0004*%
%ADD48R,0.0181X0.0004*%
%ADD49R,0.0189X0.0004*%
%ADD50R,0.0193X0.0004*%
%ADD51R,0.0201X0.0004*%
%ADD52R,0.0205X0.0004*%
%ADD53R,0.0213X0.0004*%
%ADD54R,0.0217X0.0004*%
%ADD55R,0.0224X0.0004*%
%ADD56R,0.0232X0.0004*%
%ADD57R,0.0240X0.0004*%
%ADD58R,0.0248X0.0004*%
%ADD59R,0.0256X0.0004*%
%ADD60R,0.0260X0.0004*%
%ADD61R,0.0268X0.0004*%
%ADD62R,0.0276X0.0004*%
%ADD63R,0.0280X0.0004*%
%ADD64R,0.0287X0.0004*%
%ADD65R,0.0291X0.0004*%
%ADD66R,0.0295X0.0004*%
%ADD67R,0.0303X0.0004*%
%ADD68R,0.0307X0.0004*%
%ADD69R,0.0315X0.0004*%
%ADD70R,0.0319X0.0004*%
%ADD71R,0.0323X0.0004*%
%ADD72R,0.0331X0.0004*%
%ADD73R,0.0339X0.0004*%
%ADD74R,0.0343X0.0004*%
%ADD75R,0.0346X0.0004*%
%ADD76R,0.0354X0.0004*%
%ADD77R,0.0362X0.0004*%
%ADD78R,0.0370X0.0004*%
%ADD79R,0.0378X0.0004*%
%ADD80R,0.0386X0.0004*%
%ADD81R,0.1390X0.0004*%
%ADD82R,0.0394X0.0004*%
%ADD83R,0.0402X0.0004*%
%ADD84R,0.1110X0.0004*%
%ADD85R,0.0409X0.0004*%
%ADD86R,0.0244X0.0004*%
%ADD87R,0.0831X0.0004*%
%ADD88R,0.0008X0.0004*%
%ADD89R,0.0811X0.0004*%
%ADD90R,0.0413X0.0004*%
%ADD91R,0.0815X0.0004*%
%ADD92R,0.0807X0.0004*%
%ADD93R,0.0417X0.0004*%
%ADD94R,0.0803X0.0004*%
%ADD95R,0.0421X0.0004*%
%ADD96R,0.0429X0.0004*%
%ADD97R,0.0433X0.0004*%
%ADD98R,0.0437X0.0004*%
%ADD99R,0.0445X0.0004*%
%ADD100R,0.0457X0.0004*%
%ADD101R,0.0465X0.0004*%
%ADD102R,0.0469X0.0004*%
%ADD103R,0.0476X0.0004*%
%ADD104R,0.0480X0.0004*%
%ADD105R,0.0488X0.0004*%
%ADD106R,0.0492X0.0004*%
%ADD107R,0.0496X0.0004*%
%ADD108R,0.0504X0.0004*%
%ADD109R,0.0512X0.0004*%
%ADD110R,0.0516X0.0004*%
%ADD111R,0.0520X0.0004*%
%ADD112R,0.0528X0.0004*%
%ADD113R,0.0531X0.0004*%
%ADD114R,0.0535X0.0004*%
%ADD115R,0.0543X0.0004*%
%ADD116R,0.0551X0.0004*%
%ADD117R,0.0555X0.0004*%
%ADD118R,0.0559X0.0004*%
%ADD119R,0.0567X0.0004*%
%ADD120R,0.0575X0.0004*%
%ADD121R,0.0583X0.0004*%
%ADD122R,0.0591X0.0004*%
%ADD123R,0.0594X0.0004*%
%ADD124R,0.0602X0.0004*%
%ADD125R,0.0606X0.0004*%
%ADD126R,0.0614X0.0004*%
%ADD127R,0.0618X0.0004*%
%ADD128R,0.0622X0.0004*%
%ADD129R,0.0634X0.0004*%
%ADD130R,0.0638X0.0004*%
%ADD131R,0.0646X0.0004*%
%ADD132R,0.0650X0.0004*%
%ADD133R,0.0654X0.0004*%
%ADD134R,0.0661X0.0004*%
%ADD135R,0.0665X0.0004*%
%ADD136R,0.0669X0.0004*%
%ADD137R,0.0673X0.0004*%
%ADD138R,0.0681X0.0004*%
%ADD139R,0.0685X0.0004*%
%ADD140R,0.0693X0.0004*%
%ADD141R,0.0701X0.0004*%
%ADD142R,0.0709X0.0004*%
%ADD143R,0.0713X0.0004*%
%ADD144R,0.0717X0.0004*%
%ADD145R,0.0724X0.0004*%
%ADD146R,0.0732X0.0004*%
%ADD147R,0.0740X0.0004*%
%ADD148R,0.0748X0.0004*%
%ADD149R,0.0752X0.0004*%
%ADD150R,0.0760X0.0004*%
%ADD151R,0.0764X0.0004*%
%ADD152R,0.0772X0.0004*%
%ADD153R,0.0776X0.0004*%
%ADD154R,0.0780X0.0004*%
%ADD155R,0.0787X0.0004*%
%ADD156R,0.0791X0.0004*%
%ADD157R,0.0799X0.0004*%
%ADD158R,0.0819X0.0004*%
%ADD159R,0.0827X0.0004*%
%ADD160R,0.0835X0.0004*%
%ADD161R,0.0839X0.0004*%
%ADD162R,0.0843X0.0004*%
%ADD163R,0.0850X0.0004*%
%ADD164R,0.0854X0.0004*%
%ADD165R,0.0858X0.0004*%
%ADD166R,0.0866X0.0004*%
%ADD167R,0.0874X0.0004*%
%ADD168R,0.0882X0.0004*%
%ADD169R,0.0890X0.0004*%
%ADD170R,0.0894X0.0004*%
%ADD171R,0.0902X0.0004*%
%ADD172R,0.0906X0.0004*%
%ADD173R,0.0913X0.0004*%
%ADD174R,0.0917X0.0004*%
%ADD175R,0.0921X0.0004*%
%ADD176R,0.0929X0.0004*%
%ADD177R,0.0937X0.0004*%
%ADD178R,0.0941X0.0004*%
%ADD179R,0.0945X0.0004*%
%ADD180R,0.0949X0.0004*%
%ADD181R,0.0957X0.0004*%
%ADD182R,0.0965X0.0004*%
%ADD183R,0.0969X0.0004*%
%ADD184R,0.0980X0.0004*%
%ADD185R,0.0988X0.0004*%
%ADD186R,0.0996X0.0004*%
%ADD187R,0.1004X0.0004*%
%ADD188R,0.1012X0.0004*%
%ADD189R,0.1016X0.0004*%
%ADD190R,0.1020X0.0004*%
%ADD191R,0.1028X0.0004*%
%ADD192R,0.1031X0.0004*%
%ADD193R,0.1039X0.0004*%
%ADD194R,0.1043X0.0004*%
%ADD195R,0.1051X0.0004*%
%ADD196R,0.1055X0.0004*%
%ADD197R,0.1059X0.0004*%
%ADD198R,0.1067X0.0004*%
%ADD199R,0.1075X0.0004*%
%ADD200R,0.1083X0.0004*%
%ADD201R,0.1087X0.0004*%
%ADD202R,0.1094X0.0004*%
%ADD203R,0.1098X0.0004*%
%ADD204R,0.1106X0.0004*%
%ADD205R,0.1114X0.0004*%
%ADD206R,0.1122X0.0004*%
%ADD207R,0.1126X0.0004*%
%ADD208R,0.1130X0.0004*%
%ADD209R,0.1138X0.0004*%
%ADD210R,0.1146X0.0004*%
%ADD211R,0.1154X0.0004*%
%ADD212R,0.1161X0.0004*%
%ADD213R,0.1169X0.0004*%
%ADD214R,0.1173X0.0004*%
%ADD215R,0.1177X0.0004*%
%ADD216R,0.1185X0.0004*%
%ADD217R,0.1193X0.0004*%
%ADD218R,0.1201X0.0004*%
%ADD219R,0.1209X0.0004*%
%ADD220R,0.1217X0.0004*%
%ADD221R,0.1224X0.0004*%
%ADD222R,0.1232X0.0004*%
%ADD223R,0.1240X0.0004*%
%ADD224R,0.1248X0.0004*%
%ADD225R,0.1252X0.0004*%
%ADD226R,0.1264X0.0004*%
%ADD227R,0.1272X0.0004*%
%ADD228R,0.1276X0.0004*%
%ADD229R,0.1280X0.0004*%
%ADD230R,0.1287X0.0004*%
%ADD231R,0.1295X0.0004*%
%ADD232R,0.1303X0.0004*%
%ADD233R,0.1311X0.0004*%
%ADD234R,0.1319X0.0004*%
%ADD235R,0.1327X0.0004*%
%ADD236R,0.1335X0.0004*%
%ADD237R,0.1339X0.0004*%
%ADD238R,0.1343X0.0004*%
%ADD239R,0.1350X0.0004*%
%ADD240R,0.1358X0.0004*%
%ADD241R,0.1366X0.0004*%
%ADD242R,0.1374X0.0004*%
%ADD243R,0.1386X0.0004*%
%ADD244R,0.1398X0.0004*%
%ADD245R,0.1406X0.0004*%
%ADD246R,0.1413X0.0004*%
%ADD247R,0.1421X0.0004*%
%ADD248R,0.1425X0.0004*%
%ADD249R,0.1429X0.0004*%
%ADD250R,0.1433X0.0004*%
%ADD251R,0.1441X0.0004*%
%ADD252R,0.1445X0.0004*%
%ADD253R,0.1453X0.0004*%
%ADD254R,0.1461X0.0004*%
%ADD255R,0.1465X0.0004*%
%ADD256R,0.1469X0.0004*%
%ADD257R,0.1476X0.0004*%
%ADD258R,0.1484X0.0004*%
%ADD259R,0.1492X0.0004*%
%ADD260R,0.1496X0.0004*%
%ADD261R,0.1500X0.0004*%
%ADD262R,0.3130X0.0004*%
%ADD263R,0.1563X0.0004*%
%ADD264R,0.1559X0.0004*%
%ADD265R,0.1555X0.0004*%
%ADD266R,0.1551X0.0004*%
%ADD267R,0.1547X0.0004*%
%ADD268R,0.1543X0.0004*%
%ADD269R,0.1539X0.0004*%
%ADD270R,0.1535X0.0004*%
%ADD271R,0.1531X0.0004*%
%ADD272R,0.1528X0.0004*%
%ADD273R,0.1524X0.0004*%
%ADD274R,0.1520X0.0004*%
%ADD275R,0.1516X0.0004*%
%ADD276R,0.1512X0.0004*%
%ADD277R,0.1508X0.0004*%
%ADD278R,0.1504X0.0004*%
%ADD279R,0.1488X0.0004*%
%ADD280R,0.1480X0.0004*%
%ADD281R,0.1472X0.0004*%
%ADD282R,0.1457X0.0004*%
%ADD283R,0.1449X0.0004*%
%ADD284R,0.1437X0.0004*%
%ADD285R,0.1417X0.0004*%
%ADD286R,0.1409X0.0004*%
%ADD287R,0.1402X0.0004*%
%ADD288R,0.1370X0.0004*%
%ADD289R,0.1362X0.0004*%
%ADD290R,0.1354X0.0004*%
%ADD291R,0.1346X0.0004*%
%ADD292R,0.0031X0.0004*%
%ADD293R,0.0185X0.0004*%
%ADD294R,0.0024X0.0004*%
%ADD295R,0.1626X0.0004*%
%ADD296R,0.1614X0.0004*%
%ADD297R,0.1622X0.0004*%
%ADD298R,0.1618X0.0004*%
%ADD299R,0.1610X0.0004*%
%ADD300R,0.1606X0.0004*%
%ADD301R,0.1602X0.0004*%
%ADD302R,0.1598X0.0004*%
%ADD303R,0.1594X0.0004*%
%ADD304R,0.1591X0.0004*%
%ADD305R,0.1587X0.0004*%
%ADD306R,0.1583X0.0004*%
%ADD307R,0.1579X0.0004*%
%ADD308R,0.1575X0.0004*%
%ADD309R,0.1571X0.0004*%
%ADD310R,0.1567X0.0004*%
%ADD311R,0.1331X0.0004*%
%ADD312R,0.1323X0.0004*%
%ADD313R,0.1315X0.0004*%
%ADD314R,0.1307X0.0004*%
%ADD315R,0.1299X0.0004*%
%ADD316R,0.1291X0.0004*%
%ADD317R,0.1283X0.0004*%
%ADD318R,0.1268X0.0004*%
%ADD319R,0.1260X0.0004*%
%ADD320R,0.1256X0.0004*%
%ADD321R,0.1244X0.0004*%
%ADD322R,0.1236X0.0004*%
%ADD323R,0.1228X0.0004*%
%ADD324R,0.1220X0.0004*%
%ADD325R,0.1213X0.0004*%
%ADD326R,0.1205X0.0004*%
%ADD327R,0.1197X0.0004*%
%ADD328R,0.1189X0.0004*%
%ADD329R,0.1181X0.0004*%
%ADD330R,0.1165X0.0004*%
%ADD331R,0.1157X0.0004*%
%ADD332R,0.1150X0.0004*%
%ADD333R,0.1142X0.0004*%
%ADD334R,0.1134X0.0004*%
%ADD335R,0.1118X0.0004*%
%ADD336R,0.1102X0.0004*%
%ADD337R,0.1091X0.0004*%
D10*
X000680Y000300D02*
X012180Y000300D01*
X012224Y000302D01*
X012267Y000308D01*
X012309Y000317D01*
X012351Y000330D01*
X012391Y000347D01*
X012430Y000367D01*
X012467Y000390D01*
X012501Y000417D01*
X012534Y000446D01*
X012563Y000479D01*
X012590Y000513D01*
X012613Y000550D01*
X012633Y000589D01*
X012650Y000629D01*
X012663Y000671D01*
X012672Y000713D01*
X012678Y000756D01*
X012680Y000800D01*
X012680Y009800D01*
X012678Y009844D01*
X012672Y009887D01*
X012663Y009929D01*
X012650Y009971D01*
X012633Y010011D01*
X012613Y010050D01*
X012590Y010087D01*
X012563Y010121D01*
X012534Y010154D01*
X012501Y010183D01*
X012467Y010210D01*
X012430Y010233D01*
X012391Y010253D01*
X012351Y010270D01*
X012309Y010283D01*
X012267Y010292D01*
X012224Y010298D01*
X012180Y010300D01*
X000680Y010300D01*
X000636Y010298D01*
X000593Y010292D01*
X000551Y010283D01*
X000509Y010270D01*
X000469Y010253D01*
X000430Y010233D01*
X000393Y010210D01*
X000359Y010183D01*
X000326Y010154D01*
X000297Y010121D01*
X000270Y010087D01*
X000247Y010050D01*
X000227Y010011D01*
X000210Y009971D01*
X000197Y009929D01*
X000188Y009887D01*
X000182Y009844D01*
X000180Y009800D01*
X000180Y000800D01*
X000182Y000756D01*
X000188Y000713D01*
X000197Y000671D01*
X000210Y000629D01*
X000227Y000589D01*
X000247Y000550D01*
X000270Y000513D01*
X000297Y000479D01*
X000326Y000446D01*
X000359Y000417D01*
X000393Y000390D01*
X000430Y000367D01*
X000469Y000347D01*
X000509Y000330D01*
X000551Y000317D01*
X000593Y000308D01*
X000636Y000302D01*
X000680Y000300D01*
X001881Y003380D02*
X001884Y003380D01*
X001885Y003382D01*
X001887Y003380D02*
X001887Y003382D01*
X001889Y003382D01*
X001889Y003380D01*
X001887Y003380D01*
X001891Y003380D02*
X001896Y003388D01*
X001898Y003388D02*
X001898Y003382D01*
X001899Y003380D01*
X001902Y003380D01*
X001903Y003382D01*
X001903Y003388D01*
X001907Y003386D02*
X001911Y003386D01*
X001913Y003384D02*
X001914Y003386D01*
X001917Y003386D01*
X001918Y003384D01*
X001918Y003383D01*
X001913Y003383D01*
X001913Y003382D02*
X001913Y003384D01*
X001913Y003382D02*
X001914Y003380D01*
X001917Y003380D01*
X001920Y003380D02*
X001920Y003386D01*
X001923Y003386D02*
X001924Y003386D01*
X001923Y003386D02*
X001920Y003383D01*
X001926Y003384D02*
X001927Y003386D01*
X001931Y003386D01*
X001930Y003383D02*
X001927Y003383D01*
X001926Y003384D01*
X001926Y003380D02*
X001930Y003380D01*
X001931Y003382D01*
X001930Y003383D01*
X001933Y003380D02*
X001938Y003388D01*
X001940Y003388D02*
X001944Y003388D01*
X001946Y003387D01*
X001946Y003386D01*
X001944Y003384D01*
X001940Y003384D01*
X001940Y003380D02*
X001944Y003380D01*
X001946Y003382D01*
X001946Y003383D01*
X001944Y003384D01*
X001948Y003383D02*
X001950Y003386D01*
X001952Y003386D01*
X001954Y003386D02*
X001955Y003386D01*
X001955Y003380D01*
X001954Y003380D02*
X001956Y003380D01*
X001959Y003382D02*
X001960Y003383D01*
X001964Y003383D01*
X001964Y003384D02*
X001964Y003380D01*
X001960Y003380D01*
X001959Y003382D01*
X001960Y003386D02*
X001962Y003386D01*
X001964Y003384D01*
X001966Y003386D02*
X001970Y003386D01*
X001971Y003384D01*
X001971Y003380D01*
X001973Y003380D02*
X001978Y003388D01*
X001980Y003388D02*
X001984Y003388D01*
X001986Y003387D01*
X001986Y003382D01*
X001984Y003380D01*
X001980Y003380D01*
X001980Y003388D01*
X001988Y003384D02*
X001988Y003382D01*
X001989Y003380D01*
X001991Y003380D01*
X001993Y003382D01*
X001993Y003384D01*
X001991Y003386D01*
X001989Y003386D01*
X001988Y003384D01*
X001995Y003384D02*
X001995Y003382D01*
X001996Y003380D01*
X002000Y003380D01*
X002002Y003382D02*
X002003Y003380D01*
X002007Y003380D01*
X002007Y003386D01*
X002009Y003386D02*
X002011Y003386D01*
X002012Y003384D01*
X002013Y003386D01*
X002015Y003384D01*
X002015Y003380D01*
X002017Y003382D02*
X002017Y003384D01*
X002018Y003386D01*
X002020Y003386D01*
X002022Y003384D01*
X002022Y003383D01*
X002017Y003383D01*
X002017Y003382D02*
X002018Y003380D01*
X002020Y003380D01*
X002024Y003380D02*
X002024Y003386D01*
X002028Y003386D01*
X002029Y003384D01*
X002029Y003380D01*
X002032Y003382D02*
X002034Y003380D01*
X002036Y003380D02*
X002040Y003380D01*
X002041Y003382D01*
X002040Y003383D01*
X002037Y003383D01*
X002036Y003384D01*
X002037Y003386D01*
X002041Y003386D01*
X002043Y003380D02*
X002048Y003388D01*
X002050Y003388D02*
X002053Y003386D01*
X002056Y003388D01*
X002056Y003380D01*
X002058Y003380D02*
X002058Y003388D01*
X002058Y003384D02*
X002063Y003384D01*
X002065Y003386D02*
X002065Y003382D01*
X002066Y003380D01*
X002070Y003380D01*
X002070Y003379D02*
X002069Y003378D01*
X002068Y003378D01*
X002070Y003379D02*
X002070Y003386D01*
X002072Y003386D02*
X002076Y003386D01*
X002077Y003384D01*
X002077Y003382D01*
X002076Y003380D01*
X002072Y003380D01*
X002072Y003388D01*
X002079Y003386D02*
X002079Y003380D01*
X002079Y003383D02*
X002082Y003386D01*
X002083Y003386D01*
X002085Y003386D02*
X002087Y003386D01*
X002087Y003380D01*
X002088Y003380D02*
X002085Y003380D01*
X002090Y003382D02*
X002090Y003384D01*
X002092Y003386D01*
X002096Y003386D01*
X002096Y003388D02*
X002096Y003380D01*
X002092Y003380D01*
X002090Y003382D01*
X002087Y003388D02*
X002087Y003390D01*
X002098Y003380D02*
X002103Y003388D01*
X002105Y003388D02*
X002107Y003386D01*
X002110Y003388D01*
X002110Y003380D01*
X002112Y003380D02*
X002113Y003380D01*
X002113Y003382D01*
X002112Y003382D01*
X002112Y003380D01*
X002116Y003380D02*
X002120Y003380D01*
X002121Y003382D01*
X002121Y003384D01*
X002120Y003386D01*
X002116Y003386D01*
X002116Y003388D02*
X002116Y003380D01*
X002123Y003380D02*
X002123Y003386D01*
X002124Y003386D01*
X002126Y003384D01*
X002127Y003386D01*
X002128Y003384D01*
X002128Y003380D01*
X002130Y003380D02*
X002134Y003380D01*
X002135Y003382D01*
X002135Y003384D01*
X002134Y003386D01*
X002130Y003386D01*
X002130Y003378D01*
X002126Y003380D02*
X002126Y003384D01*
X002105Y003380D02*
X002105Y003388D01*
X002063Y003388D02*
X002063Y003380D01*
X002050Y003380D02*
X002050Y003388D01*
X002034Y003386D02*
X002031Y003386D01*
X002032Y003387D02*
X002032Y003382D01*
X002012Y003384D02*
X002012Y003380D01*
X002009Y003380D02*
X002009Y003386D01*
X002002Y003386D02*
X002002Y003382D01*
X002000Y003386D02*
X001996Y003386D01*
X001995Y003384D01*
X001966Y003380D02*
X001966Y003386D01*
X001955Y003390D02*
X001955Y003388D01*
X001948Y003386D02*
X001948Y003380D01*
X001940Y003380D02*
X001940Y003388D01*
X001911Y003382D02*
X001909Y003383D01*
X001907Y003383D01*
X001905Y003384D01*
X001907Y003386D01*
X001911Y003382D02*
X001909Y003380D01*
X001905Y003380D01*
X001889Y003384D02*
X001887Y003384D01*
X001887Y003386D01*
X001889Y003386D01*
X001889Y003384D01*
X001885Y003387D02*
X001884Y003388D01*
X001881Y003388D01*
X001880Y003387D01*
X001880Y003382D01*
X001881Y003380D01*
D11*
X002992Y006363D02*
X002992Y006557D01*
X003088Y006460D02*
X002895Y006460D01*
X003772Y006845D02*
X003965Y007038D01*
X003965Y007087D01*
X003917Y007135D01*
X003820Y007135D01*
X003772Y007087D01*
X003772Y006845D02*
X003965Y006845D01*
X004066Y006845D02*
X004260Y007038D01*
X004260Y007087D01*
X004212Y007135D01*
X004115Y007135D01*
X004066Y007087D01*
X004066Y006845D02*
X004260Y006845D01*
X004361Y006893D02*
X004555Y007087D01*
X004555Y006893D01*
X004506Y006845D01*
X004409Y006845D01*
X004361Y006893D01*
X004361Y007087D01*
X004409Y007135D01*
X004506Y007135D01*
X004555Y007087D01*
X004656Y007038D02*
X004656Y006893D01*
X004704Y006845D01*
X004849Y006845D01*
X004849Y007038D01*
X004950Y006990D02*
X005047Y006990D01*
X004950Y006845D02*
X004950Y007135D01*
X005144Y007135D01*
X003088Y007560D02*
X002895Y007560D01*
X002992Y007657D02*
X002992Y007463D01*
X000805Y007756D02*
X000515Y007756D01*
X000612Y007852D01*
X000515Y007949D01*
X000805Y007949D01*
X000805Y008050D02*
X000612Y008244D01*
X000563Y008244D01*
X000515Y008195D01*
X000515Y008099D01*
X000563Y008050D01*
X000805Y008050D02*
X000805Y008244D01*
X000805Y007144D02*
X000805Y006950D01*
X000805Y007047D02*
X000515Y007047D01*
X000612Y006950D01*
X000515Y006849D02*
X000805Y006849D01*
X000805Y006656D02*
X000515Y006656D01*
X000612Y006752D01*
X000515Y006849D01*
X003872Y009545D02*
X004065Y009738D01*
X004065Y009787D01*
X004017Y009835D01*
X003920Y009835D01*
X003872Y009787D01*
X004166Y009787D02*
X004215Y009835D01*
X004312Y009835D01*
X004360Y009787D01*
X004360Y009738D01*
X004166Y009545D01*
X004360Y009545D01*
X004461Y009593D02*
X004655Y009787D01*
X004655Y009593D01*
X004606Y009545D01*
X004509Y009545D01*
X004461Y009593D01*
X004461Y009787D01*
X004509Y009835D01*
X004606Y009835D01*
X004655Y009787D01*
X004756Y009738D02*
X004756Y009593D01*
X004804Y009545D01*
X004949Y009545D01*
X004949Y009738D01*
X005050Y009690D02*
X005147Y009690D01*
X005050Y009545D02*
X005050Y009835D01*
X005244Y009835D01*
X004065Y009545D02*
X003872Y009545D01*
D12*
X003143Y009723D02*
X003143Y009760D01*
X003106Y009760D01*
X003143Y009723D02*
X003124Y009705D01*
X003088Y009705D01*
X003069Y009723D01*
X003069Y009797D01*
X003088Y009815D01*
X003124Y009815D01*
X003143Y009797D01*
X003032Y009815D02*
X002995Y009815D01*
X003014Y009815D02*
X003014Y009705D01*
X003032Y009705D02*
X002995Y009705D01*
X002958Y009723D02*
X002940Y009705D01*
X002903Y009705D01*
X002885Y009723D01*
X002903Y009760D02*
X002885Y009778D01*
X002885Y009797D01*
X002903Y009815D01*
X002940Y009815D01*
X002958Y009797D01*
X002940Y009760D02*
X002958Y009742D01*
X002958Y009723D01*
X002940Y009760D02*
X002903Y009760D01*
X002069Y009742D02*
X002069Y009815D01*
X002069Y009742D02*
X002032Y009705D01*
X001995Y009742D01*
X001995Y009815D01*
X001958Y009815D02*
X001885Y009815D01*
X001885Y009760D01*
X001922Y009778D01*
X001940Y009778D01*
X001958Y009760D01*
X001958Y009723D01*
X001940Y009705D01*
X001903Y009705D01*
X001885Y009723D01*
X001079Y009723D02*
X001079Y009797D01*
X001061Y009815D01*
X001006Y009815D01*
X001006Y009705D01*
X001061Y009705D01*
X001079Y009723D01*
X000969Y009705D02*
X000969Y009815D01*
X000895Y009815D02*
X000895Y009705D01*
X000858Y009723D02*
X000858Y009760D01*
X000822Y009760D01*
X000858Y009723D02*
X000840Y009705D01*
X000803Y009705D01*
X000785Y009723D01*
X000785Y009797D01*
X000803Y009815D01*
X000840Y009815D01*
X000858Y009797D01*
X000895Y009815D02*
X000969Y009705D01*
X004290Y008270D02*
X004290Y008170D01*
X004315Y008145D01*
X004365Y008145D01*
X004390Y008170D01*
X004438Y008145D02*
X004538Y008245D01*
X004538Y008270D01*
X004513Y008295D01*
X004463Y008295D01*
X004438Y008270D01*
X004390Y008270D02*
X004365Y008295D01*
X004315Y008295D01*
X004290Y008270D01*
X004438Y008145D02*
X004538Y008145D01*
X006006Y010033D02*
X005928Y010111D01*
X005902Y010085D02*
X005954Y010137D01*
X005980Y010163D02*
X006110Y010137D01*
X006058Y010085D02*
X006032Y010215D01*
X007007Y009075D02*
X006989Y009057D01*
X006989Y009038D01*
X007007Y009020D01*
X007044Y009020D01*
X007062Y009002D01*
X007062Y008983D01*
X007044Y008965D01*
X007007Y008965D01*
X006989Y008983D01*
X007007Y009075D02*
X007044Y009075D01*
X007062Y009057D01*
X007099Y009075D02*
X007099Y008965D01*
X007173Y008965D01*
X007210Y008965D02*
X007210Y009075D01*
X007265Y009075D01*
X007283Y009057D01*
X007283Y009020D01*
X007265Y009002D01*
X007210Y009002D01*
X007247Y009002D02*
X007283Y008965D01*
X007320Y008965D02*
X007357Y008965D01*
X007339Y008965D02*
X007339Y009075D01*
X007357Y009075D02*
X007320Y009075D01*
X007394Y009038D02*
X007431Y009075D01*
X007467Y009038D01*
X007467Y008965D01*
X007505Y008965D02*
X007578Y008965D01*
X007505Y008965D02*
X007505Y009075D01*
X007467Y009020D02*
X007394Y009020D01*
X007394Y009038D02*
X007394Y008965D01*
X007173Y009075D02*
X007099Y009075D01*
X007099Y009020D02*
X007136Y009020D01*
X008175Y009355D02*
X008325Y009355D01*
X008325Y009305D02*
X008325Y009405D01*
X008300Y009452D02*
X008200Y009552D01*
X008300Y009552D01*
X008325Y009527D01*
X008325Y009477D01*
X008300Y009452D01*
X008200Y009452D01*
X008175Y009477D01*
X008175Y009527D01*
X008200Y009552D01*
X008175Y009600D02*
X008325Y009600D01*
X008275Y009600D02*
X008225Y009675D01*
X008275Y009600D02*
X008325Y009675D01*
X008076Y010041D02*
X008102Y010171D01*
X008063Y010184D02*
X008037Y010158D01*
X008011Y010158D01*
X007972Y010197D01*
X007998Y010171D02*
X007998Y010120D01*
X008024Y010093D02*
X008154Y010119D01*
X008063Y010184D02*
X008063Y010210D01*
X008024Y010249D01*
X007946Y010171D01*
X008175Y009355D02*
X008225Y009305D01*
X009785Y009905D02*
X009785Y010055D01*
X009860Y010055D01*
X009885Y010030D01*
X009885Y009980D01*
X009860Y009955D01*
X009785Y009955D01*
X009835Y009955D02*
X009885Y009905D01*
X009932Y009905D02*
X010032Y009905D01*
X010080Y009930D02*
X010105Y009905D01*
X010155Y009905D01*
X010180Y009930D01*
X010180Y009955D01*
X010155Y009980D01*
X010105Y009980D01*
X010080Y010005D01*
X010080Y010030D01*
X010105Y010055D01*
X010155Y010055D01*
X010180Y010030D01*
X010227Y010055D02*
X010227Y009905D01*
X010327Y009905D01*
X010277Y009980D02*
X010227Y009980D01*
X010227Y010055D02*
X010327Y010055D01*
X010374Y010055D02*
X010474Y010055D01*
X010424Y010055D02*
X010424Y009905D01*
X010032Y010055D02*
X009932Y010055D01*
X009932Y009905D01*
X009932Y009980D02*
X009982Y009980D01*
X008357Y007705D02*
X008307Y007705D01*
X008282Y007680D01*
X008235Y007680D02*
X008235Y007580D01*
X008210Y007555D01*
X008160Y007555D01*
X008135Y007580D01*
X008135Y007680D01*
X008160Y007705D01*
X008210Y007705D01*
X008235Y007680D01*
X008185Y007605D02*
X008235Y007555D01*
X008282Y007555D02*
X008382Y007655D01*
X008382Y007680D01*
X008357Y007705D01*
X008382Y007555D02*
X008282Y007555D01*
X008330Y007505D02*
X008330Y007355D01*
X008377Y007355D02*
X008377Y007505D01*
X008330Y007505D02*
X008280Y007455D01*
X008230Y007505D01*
X008230Y007355D01*
X008182Y007380D02*
X008182Y007405D01*
X008157Y007430D01*
X008082Y007430D01*
X008082Y007380D01*
X008107Y007355D01*
X008157Y007355D01*
X008182Y007380D01*
X008132Y007480D02*
X008082Y007430D01*
X008132Y007480D02*
X008182Y007505D01*
X007985Y007505D02*
X007985Y007355D01*
X007935Y007355D02*
X008035Y007355D01*
X007935Y007455D02*
X007985Y007505D01*
X008377Y007430D02*
X008477Y007430D01*
X008524Y007455D02*
X008624Y007455D01*
X008524Y007355D01*
X008624Y007355D01*
X008477Y007355D02*
X008477Y007505D01*
X008485Y006455D02*
X008535Y006405D01*
X008535Y006305D01*
X008582Y006305D02*
X008582Y006455D01*
X008657Y006455D01*
X008682Y006430D01*
X008682Y006380D01*
X008657Y006355D01*
X008582Y006355D01*
X008632Y006355D02*
X008682Y006305D01*
X008730Y006305D02*
X008805Y006305D01*
X008830Y006330D01*
X008830Y006430D01*
X008805Y006455D01*
X008730Y006455D01*
X008730Y006305D01*
X008877Y006330D02*
X008877Y006455D01*
X008977Y006455D02*
X008977Y006330D01*
X008952Y006305D01*
X008902Y006305D01*
X008877Y006330D01*
X009024Y006305D02*
X009074Y006305D01*
X009049Y006305D02*
X009049Y006455D01*
X009024Y006455D02*
X009074Y006455D01*
X009123Y006455D02*
X009223Y006305D01*
X009223Y006455D01*
X009270Y006430D02*
X009270Y006330D01*
X009295Y006305D01*
X009345Y006305D01*
X009370Y006330D01*
X009370Y006430D01*
X009345Y006455D01*
X009295Y006455D01*
X009270Y006430D01*
X009123Y006455D02*
X009123Y006305D01*
X008535Y006380D02*
X008435Y006380D01*
X008435Y006405D02*
X008485Y006455D01*
X008435Y006405D02*
X008435Y006305D01*
X010633Y003114D02*
X010581Y003063D01*
X010581Y003037D01*
X010607Y003011D01*
X010633Y003011D01*
X010659Y003037D01*
X010633Y003063D01*
X010633Y003114D02*
X010659Y003114D01*
X010685Y003088D01*
X010685Y003063D01*
X010724Y003049D02*
X010698Y002920D01*
X010776Y002997D01*
X010802Y002971D02*
X010841Y002932D01*
X010841Y002906D01*
X010789Y002854D01*
X010763Y002854D01*
X010724Y002893D01*
X010802Y002971D01*
X010724Y003049D02*
X010646Y002971D01*
X007432Y000755D02*
X007432Y000730D01*
X007332Y000630D01*
X007432Y000630D01*
X007413Y000545D02*
X007363Y000545D01*
X007338Y000520D01*
X007338Y000420D01*
X007438Y000520D01*
X007438Y000420D01*
X007413Y000395D01*
X007363Y000395D01*
X007338Y000420D01*
X007290Y000420D02*
X007265Y000395D01*
X007215Y000395D01*
X007190Y000420D01*
X007143Y000420D02*
X007118Y000395D01*
X007068Y000395D01*
X007043Y000420D01*
X007093Y000470D02*
X007118Y000470D01*
X007143Y000445D01*
X007143Y000420D01*
X007118Y000470D02*
X007143Y000495D01*
X007143Y000520D01*
X007118Y000545D01*
X007068Y000545D01*
X007043Y000520D01*
X007190Y000520D02*
X007215Y000545D01*
X007265Y000545D01*
X007290Y000520D01*
X007290Y000495D01*
X007265Y000470D01*
X007290Y000445D01*
X007290Y000420D01*
X007265Y000470D02*
X007240Y000470D01*
X007413Y000545D02*
X007438Y000520D01*
X007285Y000630D02*
X007235Y000680D01*
X007260Y000680D02*
X007185Y000680D01*
X007185Y000630D02*
X007185Y000780D01*
X007260Y000780D01*
X007285Y000755D01*
X007285Y000705D01*
X007260Y000680D01*
X007332Y000755D02*
X007357Y000780D01*
X007407Y000780D01*
X007432Y000755D01*
X005585Y002262D02*
X005585Y002312D01*
X005585Y002287D02*
X005435Y002287D01*
X005435Y002262D02*
X005435Y002312D01*
X005460Y002360D02*
X005560Y002360D01*
X005585Y002385D01*
X005585Y002435D01*
X005560Y002460D01*
X005585Y002508D02*
X005585Y002608D01*
X005585Y002558D02*
X005435Y002558D01*
X005485Y002508D01*
X005460Y002460D02*
X005435Y002435D01*
X005435Y002385D01*
X005460Y002360D01*
X004238Y002170D02*
X004138Y002170D01*
X004090Y002170D02*
X004040Y002220D01*
X004065Y002220D02*
X003990Y002220D01*
X003990Y002170D02*
X003990Y002320D01*
X004065Y002320D01*
X004090Y002295D01*
X004090Y002245D01*
X004065Y002220D01*
X004138Y002270D02*
X004188Y002320D01*
X004188Y002170D01*
X004165Y001695D02*
X004190Y001670D01*
X004190Y001645D01*
X004165Y001620D01*
X004190Y001595D01*
X004190Y001570D01*
X004165Y001545D01*
X004115Y001545D01*
X004090Y001570D01*
X004043Y001570D02*
X004018Y001545D01*
X003968Y001545D01*
X003943Y001570D01*
X003993Y001620D02*
X004018Y001620D01*
X004043Y001595D01*
X004043Y001570D01*
X004018Y001620D02*
X004043Y001645D01*
X004043Y001670D01*
X004018Y001695D01*
X003968Y001695D01*
X003943Y001670D01*
X004090Y001670D02*
X004115Y001695D01*
X004165Y001695D01*
X004165Y001620D02*
X004140Y001620D01*
X004238Y001570D02*
X004338Y001670D01*
X004338Y001570D01*
X004313Y001545D01*
X004263Y001545D01*
X004238Y001570D01*
X004238Y001670D01*
X004263Y001695D01*
X004313Y001695D01*
X004338Y001670D01*
X004255Y000455D02*
X004180Y000455D01*
X004180Y000305D01*
X004255Y000305D01*
X004280Y000330D01*
X004280Y000430D01*
X004255Y000455D01*
X004132Y000455D02*
X004132Y000305D01*
X004032Y000455D01*
X004032Y000305D01*
X003985Y000330D02*
X003985Y000380D01*
X003935Y000380D01*
X003885Y000430D02*
X003885Y000330D01*
X003910Y000305D01*
X003960Y000305D01*
X003985Y000330D01*
X003985Y000430D02*
X003960Y000455D01*
X003910Y000455D01*
X003885Y000430D01*
X003738Y003095D02*
X003688Y003145D01*
X003713Y003145D02*
X003638Y003145D01*
X003638Y003095D02*
X003638Y003245D01*
X003713Y003245D01*
X003738Y003220D01*
X003738Y003170D01*
X003713Y003145D01*
X003590Y003095D02*
X003590Y003245D01*
X003490Y003245D02*
X003490Y003095D01*
X003540Y003145D01*
X003590Y003095D01*
X003443Y003170D02*
X003418Y003145D01*
X003343Y003145D01*
X003343Y003095D02*
X003343Y003245D01*
X003418Y003245D01*
X003443Y003220D01*
X003443Y003170D01*
X003915Y005545D02*
X003965Y005545D01*
X003990Y005570D01*
X004038Y005545D02*
X004138Y005545D01*
X004088Y005545D02*
X004088Y005695D01*
X004038Y005645D01*
X003990Y005670D02*
X003965Y005695D01*
X003915Y005695D01*
X003890Y005670D01*
X003890Y005570D01*
X003915Y005545D01*
D13*
X007090Y003780D02*
X007090Y003560D01*
X007200Y003560D01*
X007237Y003597D01*
X007237Y003743D01*
X007200Y003780D01*
X007090Y003780D01*
X007311Y003707D02*
X007384Y003780D01*
X007384Y003560D01*
X007311Y003560D02*
X007458Y003560D01*
X007532Y003597D02*
X007569Y003560D01*
X007642Y003560D01*
X007679Y003597D01*
X007679Y003633D01*
X007642Y003670D01*
X007605Y003670D01*
X007642Y003670D02*
X007679Y003707D01*
X007679Y003743D01*
X007642Y003780D01*
X007569Y003780D01*
X007532Y003743D01*
X006796Y000920D02*
X006796Y000780D01*
X006889Y000780D01*
X006742Y000780D02*
X006742Y000873D01*
X006695Y000920D01*
X006648Y000873D01*
X006648Y000780D01*
X006648Y000850D02*
X006742Y000850D01*
X006594Y000920D02*
X006501Y000920D01*
X006548Y000920D02*
X006548Y000780D01*
X006450Y000780D02*
X006403Y000780D01*
X006426Y000780D02*
X006426Y000920D01*
X006403Y000920D02*
X006450Y000920D01*
X006349Y000897D02*
X006326Y000920D01*
X006279Y000920D01*
X006256Y000897D01*
X006256Y000803D01*
X006279Y000780D01*
X006326Y000780D01*
X006349Y000803D01*
X006349Y000850D01*
X006302Y000850D01*
X006204Y000780D02*
X006157Y000780D01*
X006181Y000780D02*
X006181Y000920D01*
X006204Y000920D02*
X006157Y000920D01*
X006103Y000897D02*
X006103Y000803D01*
X006080Y000780D01*
X006010Y000780D01*
X006010Y000920D01*
X006080Y000920D01*
X006103Y000897D01*
X005316Y000470D02*
X005316Y000330D01*
X005223Y000470D01*
X005223Y000330D01*
X005171Y000330D02*
X005124Y000330D01*
X005148Y000330D02*
X005148Y000470D01*
X005171Y000470D02*
X005124Y000470D01*
X005071Y000470D02*
X005071Y000377D01*
X005024Y000330D01*
X004977Y000377D01*
X004977Y000470D01*
X003146Y001660D02*
X002999Y001660D01*
X002925Y001623D02*
X002851Y001550D01*
X002778Y001623D01*
X002778Y001770D01*
X002925Y001770D02*
X002925Y001623D01*
X003072Y001587D02*
X003072Y001733D01*
X001649Y002567D02*
X001649Y002713D01*
X001612Y002750D01*
X001502Y002750D01*
X001502Y002530D01*
X001612Y002530D01*
X001649Y002567D01*
X001428Y002530D02*
X001428Y002750D01*
X001281Y002750D02*
X001281Y002530D01*
X001207Y002567D02*
X001207Y002640D01*
X001133Y002640D01*
X001060Y002567D02*
X001097Y002530D01*
X001170Y002530D01*
X001207Y002567D01*
X001207Y002713D02*
X001170Y002750D01*
X001097Y002750D01*
X001060Y002713D01*
X001060Y002567D01*
X001281Y002750D02*
X001428Y002530D01*
X001437Y000530D02*
X001290Y000530D01*
X001290Y000420D01*
X001363Y000457D01*
X001400Y000457D01*
X001437Y000420D01*
X001437Y000347D01*
X001400Y000310D01*
X001327Y000310D01*
X001290Y000347D01*
X001511Y000383D02*
X001584Y000310D01*
X001658Y000383D01*
X001658Y000530D01*
X001511Y000530D02*
X001511Y000383D01*
X011510Y000780D02*
X011510Y000873D01*
X011557Y000920D01*
X011603Y000873D01*
X011603Y000780D01*
X011657Y000780D02*
X011657Y000920D01*
X011751Y000780D01*
X011751Y000920D01*
X011805Y000873D02*
X011851Y000920D01*
X011898Y000873D01*
X011898Y000780D01*
X011952Y000780D02*
X012045Y000780D01*
X012099Y000803D02*
X012099Y000897D01*
X012123Y000920D01*
X012169Y000920D01*
X012193Y000897D01*
X012193Y000803D01*
X012169Y000780D01*
X012123Y000780D01*
X012099Y000803D01*
X012247Y000803D02*
X012247Y000897D01*
X012270Y000920D01*
X012317Y000920D01*
X012340Y000897D01*
X012340Y000850D02*
X012293Y000850D01*
X012340Y000850D02*
X012340Y000803D01*
X012317Y000780D01*
X012270Y000780D01*
X012247Y000803D01*
X011952Y000780D02*
X011952Y000920D01*
X011898Y000850D02*
X011805Y000850D01*
X011805Y000873D02*
X011805Y000780D01*
X011603Y000850D02*
X011510Y000850D01*
X002291Y009967D02*
X002291Y010113D01*
X002254Y010150D01*
X002181Y010150D01*
X002144Y010113D01*
X002144Y009967D01*
X002181Y009930D01*
X002254Y009930D01*
X002291Y009967D01*
X002070Y010003D02*
X002070Y010150D01*
X002070Y010003D02*
X001996Y009930D01*
X001923Y010003D01*
X001923Y010150D01*
X001849Y010113D02*
X001849Y010040D01*
X001812Y010003D01*
X001702Y010003D01*
X001702Y009930D02*
X001702Y010150D01*
X001812Y010150D01*
X001849Y010113D01*
X001775Y010003D02*
X001849Y009930D01*
X001628Y009930D02*
X001481Y009930D01*
X001481Y010150D01*
X001628Y010150D01*
X001554Y010040D02*
X001481Y010040D01*
X001407Y010003D02*
X001407Y009967D01*
X001370Y009930D01*
X001297Y009930D01*
X001260Y009967D01*
X001297Y010040D02*
X001260Y010077D01*
X001260Y010113D01*
X001297Y010150D01*
X001370Y010150D01*
X001407Y010113D01*
X001370Y010040D02*
X001407Y010003D01*
X001370Y010040D02*
X001297Y010040D01*
D14*
X007800Y006680D02*
X010420Y006680D01*
X010560Y006540D01*
X010560Y003920D01*
X007800Y003920D01*
X007800Y006680D01*
X010119Y006380D02*
X010121Y006403D01*
X010127Y006426D01*
X010136Y006447D01*
X010149Y006467D01*
X010165Y006484D01*
X010183Y006498D01*
X010203Y006509D01*
X010225Y006517D01*
X010248Y006521D01*
X010272Y006521D01*
X010295Y006517D01*
X010317Y006509D01*
X010337Y006498D01*
X010355Y006484D01*
X010371Y006467D01*
X010384Y006447D01*
X010393Y006426D01*
X010399Y006403D01*
X010401Y006380D01*
X010399Y006357D01*
X010393Y006334D01*
X010384Y006313D01*
X010371Y006293D01*
X010355Y006276D01*
X010337Y006262D01*
X010317Y006251D01*
X010295Y006243D01*
X010272Y006239D01*
X010248Y006239D01*
X010225Y006243D01*
X010203Y006251D01*
X010183Y006262D01*
X010165Y006276D01*
X010149Y006293D01*
X010136Y006313D01*
X010127Y006334D01*
X010121Y006357D01*
X010119Y006380D01*
X008916Y009382D02*
X008916Y009618D01*
X008444Y009618D02*
X008444Y009382D01*
X004416Y002368D02*
X004416Y002132D01*
X003944Y002132D02*
X003944Y002368D01*
X007094Y001568D02*
X007094Y001332D01*
X007566Y001332D02*
X007566Y001568D01*
D15*
X006930Y001800D02*
X006930Y001300D01*
X006680Y001050D01*
X006180Y001050D01*
X005930Y001300D01*
X005930Y001800D01*
X006180Y002050D01*
X005930Y002300D01*
X005930Y002800D01*
X006180Y003050D01*
X005930Y003300D01*
X005930Y003800D01*
X006180Y004050D01*
X005930Y004300D01*
X005930Y004800D01*
X006180Y005050D01*
X005930Y005300D01*
X005930Y005800D01*
X006180Y006050D01*
X005930Y006300D01*
X005930Y006800D01*
X006180Y007050D01*
X005930Y007300D01*
X005930Y007800D01*
X006180Y008050D01*
X005930Y008300D01*
X005930Y008800D01*
X006180Y009050D01*
X006680Y009050D01*
X006930Y008800D01*
X006930Y008300D01*
X006680Y008050D01*
X006930Y007800D01*
X006930Y007300D01*
X006680Y007050D01*
X006930Y006800D01*
X006930Y006300D01*
X006680Y006050D01*
X006930Y005800D01*
X006930Y005300D01*
X006680Y005050D01*
X006930Y004800D01*
X006930Y004300D01*
X006680Y004050D01*
X006930Y003800D01*
X006930Y003300D01*
X006680Y003050D01*
X006930Y002800D01*
X006930Y002300D01*
X006680Y002050D01*
X006930Y001800D01*
X005640Y002331D02*
X005640Y002669D01*
X005186Y002819D02*
X004974Y002819D01*
X004520Y002669D02*
X004520Y002331D01*
X004380Y001500D02*
X003880Y001500D01*
X003630Y001250D01*
X003630Y000750D01*
X003880Y000500D01*
X004380Y000500D01*
X004630Y000750D01*
X004880Y000500D01*
X005380Y000500D01*
X005630Y000750D01*
X005630Y001250D01*
X005380Y001500D01*
X004880Y001500D01*
X004630Y001250D01*
X004380Y001500D01*
X003480Y001250D02*
X003480Y000750D01*
X003230Y000500D01*
X002730Y000500D01*
X002480Y000750D01*
X002230Y000500D01*
X001730Y000500D01*
X001480Y000750D01*
X001230Y000500D01*
X000730Y000500D01*
X000480Y000750D01*
X000480Y001250D01*
X000730Y001500D01*
X001230Y001500D01*
X001480Y001750D01*
X001730Y001500D01*
X002230Y001500D01*
X002480Y001750D01*
X002480Y002250D01*
X002230Y002500D01*
X001730Y002500D01*
X001480Y002250D01*
X001230Y002500D01*
X000730Y002500D01*
X000480Y002250D01*
X000480Y001750D01*
X000730Y001500D01*
X001230Y001500D01*
X001480Y001250D01*
X001730Y001500D01*
X002230Y001500D01*
X002480Y001250D01*
X002730Y001500D01*
X003230Y001500D01*
X003480Y001250D01*
X004830Y005850D02*
X005330Y005850D01*
X003300Y006350D02*
X003302Y006421D01*
X003308Y006492D01*
X003318Y006563D01*
X003332Y006632D01*
X003349Y006701D01*
X003371Y006769D01*
X003396Y006836D01*
X003425Y006901D01*
X003457Y006964D01*
X003493Y007026D01*
X003532Y007085D01*
X003575Y007142D01*
X003620Y007197D01*
X003669Y007249D01*
X003720Y007298D01*
X003774Y007344D01*
X003831Y007388D01*
X003889Y007428D01*
X003950Y007464D01*
X004013Y007498D01*
X004078Y007527D01*
X004144Y007553D01*
X004212Y007576D01*
X004280Y007594D01*
X004350Y007609D01*
X004420Y007620D01*
X004491Y007627D01*
X004562Y007630D01*
X004633Y007629D01*
X004704Y007624D01*
X004775Y007615D01*
X004845Y007602D01*
X004914Y007586D01*
X004982Y007565D01*
X005049Y007541D01*
X005115Y007513D01*
X005178Y007481D01*
X005240Y007446D01*
X005300Y007408D01*
X005358Y007366D01*
X005413Y007322D01*
X005466Y007274D01*
X005516Y007223D01*
X005563Y007170D01*
X005607Y007114D01*
X005648Y007056D01*
X005686Y006995D01*
X005720Y006933D01*
X005750Y006868D01*
X005777Y006803D01*
X005801Y006735D01*
X005820Y006667D01*
X005836Y006598D01*
X005848Y006527D01*
X005856Y006457D01*
X005860Y006386D01*
X005860Y006314D01*
X005856Y006243D01*
X005848Y006173D01*
X005836Y006102D01*
X005820Y006033D01*
X005801Y005965D01*
X005777Y005897D01*
X005750Y005832D01*
X005720Y005767D01*
X005686Y005705D01*
X005648Y005644D01*
X005607Y005586D01*
X005563Y005530D01*
X005516Y005477D01*
X005466Y005426D01*
X005413Y005378D01*
X005358Y005334D01*
X005300Y005292D01*
X005240Y005254D01*
X005178Y005219D01*
X005115Y005187D01*
X005049Y005159D01*
X004982Y005135D01*
X004914Y005114D01*
X004845Y005098D01*
X004775Y005085D01*
X004704Y005076D01*
X004633Y005071D01*
X004562Y005070D01*
X004491Y005073D01*
X004420Y005080D01*
X004350Y005091D01*
X004280Y005106D01*
X004212Y005124D01*
X004144Y005147D01*
X004078Y005173D01*
X004013Y005202D01*
X003950Y005236D01*
X003889Y005272D01*
X003831Y005312D01*
X003774Y005356D01*
X003720Y005402D01*
X003669Y005451D01*
X003620Y005503D01*
X003575Y005558D01*
X003532Y005615D01*
X003493Y005674D01*
X003457Y005736D01*
X003425Y005799D01*
X003396Y005864D01*
X003371Y005931D01*
X003349Y005999D01*
X003332Y006068D01*
X003318Y006137D01*
X003308Y006208D01*
X003302Y006279D01*
X003300Y006350D01*
X002980Y006650D02*
X002730Y006400D01*
X002230Y006400D01*
X001980Y006650D01*
X001730Y006400D01*
X001230Y006400D01*
X000980Y006650D01*
X000980Y007150D01*
X001230Y007400D01*
X001730Y007400D01*
X001980Y007150D01*
X002230Y007400D01*
X002730Y007400D01*
X002980Y007150D01*
X002980Y006650D01*
X002730Y007500D02*
X002230Y007500D01*
X001980Y007750D01*
X001730Y007500D01*
X001230Y007500D01*
X000980Y007750D01*
X000980Y008250D01*
X001230Y008500D01*
X001730Y008500D01*
X001980Y008250D01*
X002230Y008500D01*
X002730Y008500D01*
X002980Y008250D01*
X002980Y007750D01*
X002730Y007500D01*
X002530Y008600D02*
X002280Y008850D01*
X002030Y008600D01*
X001530Y008600D01*
X001280Y008850D01*
X001030Y008600D01*
X000530Y008600D01*
X000280Y008850D01*
X000280Y009350D01*
X000530Y009600D01*
X001030Y009600D01*
X001280Y009350D01*
X001530Y009600D01*
X002030Y009600D01*
X002280Y009350D01*
X002530Y009600D01*
X003030Y009600D01*
X003280Y009350D01*
X003280Y008850D01*
X003030Y008600D01*
X002530Y008600D01*
X003300Y008950D02*
X003302Y009021D01*
X003308Y009092D01*
X003318Y009163D01*
X003332Y009232D01*
X003349Y009301D01*
X003371Y009369D01*
X003396Y009436D01*
X003425Y009501D01*
X003457Y009564D01*
X003493Y009626D01*
X003532Y009685D01*
X003575Y009742D01*
X003620Y009797D01*
X003669Y009849D01*
X003720Y009898D01*
X003774Y009944D01*
X003831Y009988D01*
X003889Y010028D01*
X003950Y010064D01*
X004013Y010098D01*
X004078Y010127D01*
X004144Y010153D01*
X004212Y010176D01*
X004280Y010194D01*
X004350Y010209D01*
X004420Y010220D01*
X004491Y010227D01*
X004562Y010230D01*
X004633Y010229D01*
X004704Y010224D01*
X004775Y010215D01*
X004845Y010202D01*
X004914Y010186D01*
X004982Y010165D01*
X005049Y010141D01*
X005115Y010113D01*
X005178Y010081D01*
X005240Y010046D01*
X005300Y010008D01*
X005358Y009966D01*
X005413Y009922D01*
X005466Y009874D01*
X005516Y009823D01*
X005563Y009770D01*
X005607Y009714D01*
X005648Y009656D01*
X005686Y009595D01*
X005720Y009533D01*
X005750Y009468D01*
X005777Y009403D01*
X005801Y009335D01*
X005820Y009267D01*
X005836Y009198D01*
X005848Y009127D01*
X005856Y009057D01*
X005860Y008986D01*
X005860Y008914D01*
X005856Y008843D01*
X005848Y008773D01*
X005836Y008702D01*
X005820Y008633D01*
X005801Y008565D01*
X005777Y008497D01*
X005750Y008432D01*
X005720Y008367D01*
X005686Y008305D01*
X005648Y008244D01*
X005607Y008186D01*
X005563Y008130D01*
X005516Y008077D01*
X005466Y008026D01*
X005413Y007978D01*
X005358Y007934D01*
X005300Y007892D01*
X005240Y007854D01*
X005178Y007819D01*
X005115Y007787D01*
X005049Y007759D01*
X004982Y007735D01*
X004914Y007714D01*
X004845Y007698D01*
X004775Y007685D01*
X004704Y007676D01*
X004633Y007671D01*
X004562Y007670D01*
X004491Y007673D01*
X004420Y007680D01*
X004350Y007691D01*
X004280Y007706D01*
X004212Y007724D01*
X004144Y007747D01*
X004078Y007773D01*
X004013Y007802D01*
X003950Y007836D01*
X003889Y007872D01*
X003831Y007912D01*
X003774Y007956D01*
X003720Y008002D01*
X003669Y008051D01*
X003620Y008103D01*
X003575Y008158D01*
X003532Y008215D01*
X003493Y008274D01*
X003457Y008336D01*
X003425Y008399D01*
X003396Y008464D01*
X003371Y008531D01*
X003349Y008599D01*
X003332Y008668D01*
X003318Y008737D01*
X003308Y008808D01*
X003302Y008879D01*
X003300Y008950D01*
X004830Y008450D02*
X005330Y008450D01*
X006330Y009200D02*
X006830Y009200D01*
X007080Y009450D01*
X007330Y009200D01*
X007830Y009200D01*
X008080Y009450D01*
X008080Y009950D01*
X007830Y010200D01*
X007330Y010200D01*
X007080Y009950D01*
X006830Y010200D01*
X006330Y010200D01*
X006080Y009950D01*
X006080Y009450D01*
X006330Y009200D01*
X007471Y008406D02*
X007471Y007894D01*
X008889Y007894D02*
X008889Y008406D01*
X009180Y008144D02*
X009180Y009356D01*
X009692Y009750D02*
X010680Y009750D01*
X011180Y009356D02*
X011180Y008144D01*
X011430Y008300D02*
X011680Y008050D01*
X011430Y007800D01*
X011430Y007300D01*
X011680Y007050D01*
X011430Y006800D01*
X011430Y006300D01*
X011680Y006050D01*
X011430Y005800D01*
X011430Y005300D01*
X011680Y005050D01*
X011430Y004800D01*
X011430Y004300D01*
X011680Y004050D01*
X011430Y003800D01*
X011430Y003300D01*
X011680Y003050D01*
X011430Y002800D01*
X011430Y002300D01*
X011680Y002050D01*
X011430Y001800D01*
X011430Y001300D01*
X011680Y001050D01*
X012180Y001050D01*
X012430Y001300D01*
X012430Y001800D01*
X012180Y002050D01*
X012430Y002300D01*
X012430Y002800D01*
X012180Y003050D01*
X012430Y003300D01*
X012430Y003800D01*
X012180Y004050D01*
X012430Y004300D01*
X012430Y004800D01*
X012180Y005050D01*
X012430Y005300D01*
X012430Y005800D01*
X012180Y006050D01*
X012430Y006300D01*
X012430Y006800D01*
X012180Y007050D01*
X012430Y007300D01*
X012430Y007800D01*
X012180Y008050D01*
X012430Y008300D01*
X012430Y008800D01*
X012180Y009050D01*
X011680Y009050D01*
X011430Y008800D01*
X011430Y008300D01*
X010668Y007750D02*
X009692Y007750D01*
X009680Y008750D02*
X009682Y008794D01*
X009688Y008838D01*
X009698Y008881D01*
X009711Y008923D01*
X009728Y008964D01*
X009749Y009003D01*
X009773Y009040D01*
X009800Y009075D01*
X009830Y009107D01*
X009863Y009137D01*
X009899Y009163D01*
X009936Y009187D01*
X009976Y009206D01*
X010017Y009223D01*
X010060Y009235D01*
X010103Y009244D01*
X010147Y009249D01*
X010191Y009250D01*
X010235Y009247D01*
X010279Y009240D01*
X010322Y009229D01*
X010364Y009215D01*
X010404Y009197D01*
X010443Y009175D01*
X010479Y009151D01*
X010513Y009123D01*
X010545Y009092D01*
X010574Y009058D01*
X010600Y009022D01*
X010622Y008984D01*
X010641Y008944D01*
X010656Y008902D01*
X010668Y008860D01*
X010676Y008816D01*
X010680Y008772D01*
X010680Y008728D01*
X010676Y008684D01*
X010668Y008640D01*
X010656Y008598D01*
X010641Y008556D01*
X010622Y008516D01*
X010600Y008478D01*
X010574Y008442D01*
X010545Y008408D01*
X010513Y008377D01*
X010479Y008349D01*
X010443Y008325D01*
X010404Y008303D01*
X010364Y008285D01*
X010322Y008271D01*
X010279Y008260D01*
X010235Y008253D01*
X010191Y008250D01*
X010147Y008251D01*
X010103Y008256D01*
X010060Y008265D01*
X010017Y008277D01*
X009976Y008294D01*
X009936Y008313D01*
X009899Y008337D01*
X009863Y008363D01*
X009830Y008393D01*
X009800Y008425D01*
X009773Y008460D01*
X009749Y008497D01*
X009728Y008536D01*
X009711Y008577D01*
X009698Y008619D01*
X009688Y008662D01*
X009682Y008706D01*
X009680Y008750D01*
D16*
X009698Y000975D02*
X009472Y000975D01*
X009472Y000525D01*
X009472Y000675D02*
X009698Y000675D01*
X009773Y000750D01*
X009773Y000900D01*
X009698Y000975D01*
X009312Y000900D02*
X009237Y000975D01*
X009087Y000975D01*
X009012Y000900D01*
X009012Y000825D01*
X009087Y000750D01*
X009237Y000750D01*
X009312Y000675D01*
X009312Y000600D01*
X009237Y000525D01*
X009087Y000525D01*
X009012Y000600D01*
X008855Y000525D02*
X008705Y000525D01*
X008780Y000525D02*
X008780Y000975D01*
X008705Y000975D02*
X008855Y000975D01*
D17*
X007330Y002761D03*
X003530Y002439D03*
D18*
X002579Y003400D03*
X002850Y005254D03*
X002850Y005258D03*
X002567Y005648D03*
X004602Y005254D03*
X004878Y005636D03*
D19*
X004876Y005632D03*
X004876Y005628D03*
X004600Y005250D03*
X004600Y005246D03*
X003726Y004806D03*
X002852Y005246D03*
X002852Y005250D03*
X002569Y005644D03*
X004876Y004136D03*
X004876Y004132D03*
X004876Y004128D03*
X004876Y004124D03*
X004876Y004120D03*
X004876Y004117D03*
X004876Y004113D03*
X004876Y004109D03*
X004876Y004105D03*
X004876Y004101D03*
X004876Y004097D03*
X004876Y004093D03*
X004876Y004089D03*
X004876Y004085D03*
X004876Y004081D03*
X004876Y004077D03*
X004876Y004073D03*
X004876Y004069D03*
X004876Y004065D03*
X004876Y004061D03*
X004876Y004057D03*
X004876Y004054D03*
X004876Y004050D03*
X004876Y004046D03*
X004876Y004042D03*
X004876Y004038D03*
X004876Y004034D03*
X004876Y004030D03*
X004876Y004026D03*
X004876Y004022D03*
X004876Y004018D03*
X004876Y004014D03*
X004876Y004010D03*
X004876Y004006D03*
X004876Y004002D03*
X004876Y003998D03*
X004876Y003994D03*
X004876Y003991D03*
X004876Y003987D03*
X004876Y003983D03*
X004876Y003979D03*
X004876Y003975D03*
X004876Y003971D03*
X004876Y003967D03*
X004876Y003963D03*
X004876Y003959D03*
X004876Y003955D03*
X004876Y003951D03*
X004876Y003947D03*
X004876Y003943D03*
X004876Y003939D03*
X004876Y003935D03*
X004876Y003931D03*
X004876Y003928D03*
X004876Y003924D03*
X004876Y003920D03*
X004876Y003916D03*
X004876Y003912D03*
X004876Y003908D03*
X004876Y003904D03*
X004876Y003900D03*
X004876Y003896D03*
X004876Y003892D03*
X004876Y003888D03*
X004876Y003884D03*
X004876Y003880D03*
X004876Y003876D03*
X004876Y003872D03*
X004876Y003869D03*
X004876Y003865D03*
X004876Y003861D03*
X004876Y003857D03*
X004876Y003853D03*
X004876Y003849D03*
X004876Y003845D03*
X004876Y003841D03*
X004876Y003837D03*
X004876Y003833D03*
X004876Y003829D03*
X004876Y003825D03*
X004876Y003821D03*
X004876Y003817D03*
X004876Y003813D03*
X004876Y003809D03*
X004876Y003806D03*
X004876Y003802D03*
X004876Y003798D03*
X004876Y003794D03*
X004876Y003790D03*
X004876Y003786D03*
X004876Y003782D03*
X004876Y003778D03*
X004876Y003774D03*
X004876Y003770D03*
X004876Y003766D03*
X004876Y003762D03*
X004876Y003758D03*
X004876Y003754D03*
X004876Y003750D03*
X004876Y003746D03*
X004876Y003743D03*
X004876Y003739D03*
X004876Y003735D03*
X004876Y003731D03*
X004876Y003727D03*
X004876Y003723D03*
X004876Y003719D03*
X004876Y003715D03*
X004876Y003711D03*
X004876Y003707D03*
X004876Y003703D03*
X004876Y003699D03*
X004876Y003695D03*
X004876Y003691D03*
X004876Y003687D03*
X004876Y003683D03*
X004876Y003680D03*
X004876Y003676D03*
X004876Y003672D03*
X004876Y003668D03*
X004876Y003664D03*
X004876Y003660D03*
X004876Y003656D03*
X004876Y003652D03*
X004876Y003648D03*
X004876Y003644D03*
X004876Y003640D03*
X004876Y003636D03*
X004876Y003632D03*
X004876Y003628D03*
X004876Y003624D03*
X004876Y003620D03*
X004876Y003617D03*
X004876Y003613D03*
X004876Y003609D03*
X004876Y003605D03*
X004876Y003601D03*
X004876Y003597D03*
X004876Y003593D03*
X004876Y003589D03*
X004876Y003585D03*
X004876Y003581D03*
X004876Y003577D03*
X004876Y003573D03*
X004876Y003569D03*
X004876Y003565D03*
X004876Y003561D03*
X004876Y003557D03*
X004876Y003554D03*
X004876Y003550D03*
X004876Y003546D03*
X004876Y003542D03*
X004876Y003538D03*
X004876Y003534D03*
X004876Y003530D03*
X004876Y003526D03*
X004876Y003522D03*
X004876Y003518D03*
X004876Y003514D03*
X004876Y003510D03*
X004876Y003506D03*
X004876Y003502D03*
X004876Y003498D03*
X004876Y003494D03*
X004876Y003491D03*
X004876Y003487D03*
X004876Y003483D03*
X004876Y003479D03*
X004876Y003475D03*
X004876Y003471D03*
X004876Y003467D03*
X004876Y003463D03*
X004876Y003459D03*
X004876Y003455D03*
X004876Y003451D03*
X004876Y003447D03*
X004876Y003443D03*
X004876Y003439D03*
X004876Y003435D03*
X004876Y003431D03*
X004876Y003428D03*
X004876Y003424D03*
X004876Y003420D03*
X004876Y003416D03*
X004876Y003412D03*
X004876Y003408D03*
X004876Y003404D03*
X004876Y003400D03*
D20*
X004595Y005231D03*
X004595Y005235D03*
X004870Y005613D03*
X002858Y005235D03*
X002575Y005624D03*
X002575Y005628D03*
X002575Y004124D03*
X002575Y004120D03*
X002575Y004117D03*
X002575Y004113D03*
X002575Y004109D03*
X002575Y004105D03*
X002575Y004101D03*
X002575Y004097D03*
X002575Y004093D03*
X002575Y004089D03*
X002575Y004085D03*
X002575Y004081D03*
X002575Y004077D03*
X002575Y004073D03*
X002575Y004069D03*
X002575Y004065D03*
X002575Y004061D03*
X002575Y004057D03*
X002575Y004054D03*
X002575Y004050D03*
X002575Y004046D03*
X002575Y004042D03*
X002575Y004038D03*
X002575Y004034D03*
X002575Y004030D03*
X002575Y004026D03*
X002575Y004022D03*
X002575Y004018D03*
X002575Y004014D03*
X002575Y004010D03*
X002575Y004006D03*
X002575Y004002D03*
X002575Y003998D03*
X002575Y003994D03*
X002575Y003991D03*
X002575Y003987D03*
X002575Y003983D03*
X002575Y003979D03*
X002575Y003975D03*
X002575Y003971D03*
X002575Y003967D03*
X002575Y003963D03*
X002575Y003959D03*
X002575Y003955D03*
X002575Y003951D03*
X002575Y003947D03*
X002575Y003943D03*
X002575Y003939D03*
X002575Y003935D03*
X002575Y003931D03*
X002575Y003928D03*
X002575Y003924D03*
X002575Y003920D03*
X002575Y003916D03*
X002575Y003912D03*
X002575Y003908D03*
X002575Y003904D03*
X002575Y003900D03*
X002575Y003896D03*
X002575Y003892D03*
X002575Y003888D03*
X002575Y003884D03*
X002575Y003880D03*
X002575Y003876D03*
X002575Y003872D03*
X002575Y003869D03*
X002575Y003865D03*
X002575Y003861D03*
X002575Y003857D03*
X002575Y003853D03*
X002575Y003849D03*
X002575Y003845D03*
X002575Y003841D03*
X002575Y003837D03*
X002575Y003833D03*
X002575Y003829D03*
X002575Y003825D03*
X002575Y003821D03*
X002575Y003817D03*
X002575Y003813D03*
X002575Y003809D03*
X002575Y003806D03*
X002575Y003802D03*
X002575Y003798D03*
X002575Y003794D03*
X002575Y003790D03*
X002575Y003786D03*
X002575Y003782D03*
X002575Y003778D03*
X002575Y003774D03*
X002575Y003770D03*
X002575Y003766D03*
X002575Y003762D03*
X002575Y003758D03*
X002575Y003754D03*
X002575Y003750D03*
X002575Y003746D03*
X002575Y003743D03*
X002575Y003739D03*
X002575Y003735D03*
X002575Y003731D03*
X002575Y003727D03*
X002575Y003723D03*
X002575Y003719D03*
X002575Y003715D03*
X002575Y003711D03*
X002575Y003707D03*
X002575Y003703D03*
X002575Y003699D03*
X002575Y003695D03*
X002575Y003691D03*
X002575Y003687D03*
X002575Y003683D03*
X002575Y003680D03*
X002575Y003676D03*
X002575Y003672D03*
X002575Y003668D03*
X002575Y003664D03*
X002575Y003660D03*
X002575Y003656D03*
X002575Y003652D03*
X002575Y003648D03*
X002575Y003644D03*
X002575Y003640D03*
X002575Y003636D03*
X002575Y003632D03*
X002575Y003628D03*
X002575Y003624D03*
X002575Y003620D03*
X002575Y003617D03*
X002575Y003613D03*
X002575Y003609D03*
X002575Y003605D03*
X002575Y003601D03*
X002575Y003597D03*
X002575Y003593D03*
X002575Y003589D03*
X002575Y003585D03*
X002575Y003581D03*
X002575Y003577D03*
X002575Y003573D03*
X002575Y003569D03*
X002575Y003565D03*
X002575Y003561D03*
X002575Y003557D03*
X002575Y003554D03*
X002575Y003550D03*
X002575Y003546D03*
X002575Y003542D03*
X002575Y003538D03*
X002575Y003534D03*
X002575Y003530D03*
X002575Y003526D03*
X002575Y003522D03*
X002575Y003518D03*
X002575Y003514D03*
X002575Y003510D03*
X002575Y003506D03*
X002575Y003502D03*
X002575Y003498D03*
X002575Y003494D03*
X002575Y003491D03*
X002575Y003487D03*
X002575Y003483D03*
X002575Y003479D03*
X002575Y003475D03*
X002575Y003471D03*
X002575Y003467D03*
X002575Y003463D03*
X002575Y003459D03*
X002575Y003455D03*
X002575Y003451D03*
X002575Y003447D03*
X002575Y003443D03*
X002575Y003439D03*
X002575Y003435D03*
X002575Y003431D03*
X002575Y003428D03*
X002575Y003424D03*
X002575Y003420D03*
X002575Y003416D03*
X002575Y003412D03*
X002575Y003408D03*
X002575Y003404D03*
D21*
X001880Y004140D03*
X001880Y005302D03*
X001880Y006042D03*
X003723Y003869D03*
D22*
X003723Y003872D03*
D23*
X003723Y003876D03*
D24*
X003723Y003880D03*
D25*
X003723Y003884D03*
D26*
X003724Y003888D03*
D27*
X003723Y003892D03*
D28*
X003724Y003896D03*
D29*
X003723Y003900D03*
D30*
X003723Y003904D03*
D31*
X003723Y003908D03*
X003723Y003912D03*
D32*
X003723Y003916D03*
X003723Y003920D03*
D33*
X003723Y003924D03*
D34*
X003721Y003928D03*
D35*
X003723Y003931D03*
D36*
X003723Y003935D03*
D37*
X003723Y003939D03*
X003723Y003943D03*
D38*
X003723Y003947D03*
D39*
X003723Y003951D03*
D40*
X003724Y003955D03*
D41*
X003723Y003959D03*
D42*
X003723Y003963D03*
D43*
X003723Y003967D03*
D44*
X003723Y003971D03*
D45*
X003724Y003975D03*
D46*
X003723Y003979D03*
D47*
X003723Y003983D03*
D48*
X003724Y003987D03*
D49*
X003724Y003991D03*
D50*
X003723Y003994D03*
D51*
X003723Y003998D03*
D52*
X003724Y004002D03*
X005445Y005302D03*
D53*
X003724Y004006D03*
D54*
X003723Y004010D03*
D55*
X003723Y004014D03*
X003723Y004018D03*
D56*
X003723Y004022D03*
X005431Y004140D03*
D57*
X003723Y004026D03*
D58*
X003723Y004030D03*
X003723Y004034D03*
X002018Y004140D03*
D59*
X003723Y004038D03*
D60*
X003724Y004042D03*
D61*
X003724Y004046D03*
D62*
X003724Y004050D03*
D63*
X003723Y004054D03*
D64*
X003723Y004057D03*
D65*
X003724Y004061D03*
D66*
X003723Y004065D03*
D67*
X003723Y004069D03*
D68*
X003724Y004073D03*
D69*
X003724Y004077D03*
D70*
X003723Y004081D03*
D71*
X003724Y004085D03*
D72*
X003724Y004089D03*
D73*
X003724Y004093D03*
D74*
X003723Y004097D03*
D75*
X003724Y004101D03*
D76*
X003724Y004105D03*
D77*
X003724Y004109D03*
D78*
X003724Y004113D03*
X003724Y004117D03*
D79*
X003724Y004120D03*
D80*
X003724Y004124D03*
X003724Y004128D03*
D81*
X003726Y004813D03*
X004597Y005239D03*
X004872Y005617D03*
X004872Y005620D03*
X002856Y005239D03*
X002573Y005632D03*
X002573Y004136D03*
X002573Y004132D03*
X002573Y004128D03*
D82*
X003724Y004132D03*
D83*
X003724Y004136D03*
D84*
X003724Y004620D03*
X002705Y004140D03*
X002433Y006018D03*
X005012Y006006D03*
D85*
X003724Y004140D03*
D86*
X004335Y004140D03*
D87*
X004888Y004140D03*
D88*
X005563Y004140D03*
X005563Y005302D03*
D89*
X003724Y004420D03*
X002567Y004144D03*
X002567Y004888D03*
D90*
X003723Y004144D03*
D91*
X004888Y004144D03*
D92*
X004888Y004148D03*
X004888Y004152D03*
X004888Y004156D03*
X004888Y004160D03*
X004888Y004164D03*
X004888Y004168D03*
X004888Y004172D03*
X004888Y004176D03*
X004888Y004180D03*
X004888Y004183D03*
X004888Y004187D03*
X004888Y004191D03*
X004888Y004195D03*
X004888Y004199D03*
X004888Y004203D03*
X004888Y004207D03*
X004888Y004211D03*
X004888Y004215D03*
X004888Y004219D03*
X004888Y004223D03*
X004888Y004227D03*
X004888Y004231D03*
X004888Y004235D03*
X004888Y004239D03*
X004888Y004243D03*
X004888Y004246D03*
X004888Y004250D03*
X004888Y004254D03*
X004888Y004258D03*
X004888Y004262D03*
X004888Y004266D03*
X004888Y004270D03*
X004888Y004274D03*
X004888Y004278D03*
X004888Y004282D03*
X004888Y004286D03*
X004888Y004290D03*
X004888Y004294D03*
X004888Y004298D03*
X004888Y004302D03*
X004888Y004306D03*
X004888Y004309D03*
X004888Y004313D03*
X004888Y004317D03*
X004888Y004321D03*
X004888Y004325D03*
X004888Y004329D03*
X004888Y004333D03*
X004888Y004337D03*
X004888Y004341D03*
X004888Y004345D03*
X004888Y004349D03*
X004888Y004353D03*
X004888Y004357D03*
X004888Y004361D03*
X004888Y004365D03*
X004888Y004369D03*
X004888Y004372D03*
X004888Y004376D03*
X004888Y004380D03*
X004888Y004384D03*
X004888Y004388D03*
X004888Y004392D03*
X004888Y004396D03*
X004888Y004400D03*
X004888Y004404D03*
X004888Y004408D03*
X004888Y004412D03*
X004888Y004416D03*
X004888Y004420D03*
X004888Y004424D03*
X004888Y004428D03*
X004888Y004431D03*
X004888Y004435D03*
X004888Y004439D03*
X004888Y004443D03*
X004888Y004447D03*
X004888Y004451D03*
X004888Y004455D03*
X004888Y004459D03*
X004888Y004463D03*
X004888Y004467D03*
X004888Y004471D03*
X004888Y004475D03*
X004888Y004479D03*
X004888Y004483D03*
X004888Y004487D03*
X004888Y004491D03*
X004888Y004494D03*
X004888Y004498D03*
X004888Y004502D03*
X004888Y004506D03*
X004888Y004510D03*
X004888Y004514D03*
X004888Y004518D03*
X004888Y004522D03*
X004888Y004526D03*
X004888Y004530D03*
X004888Y004534D03*
X004888Y004538D03*
X004888Y004542D03*
X004888Y004546D03*
X004888Y004550D03*
X004888Y004554D03*
X004888Y004557D03*
X004888Y004561D03*
X004888Y004565D03*
X004888Y004569D03*
X004888Y004573D03*
X004888Y004577D03*
X004888Y004581D03*
X004888Y004585D03*
X004888Y004589D03*
X004888Y004593D03*
X004888Y004597D03*
X004888Y004601D03*
X004888Y004605D03*
X004888Y004609D03*
X004888Y004613D03*
X004888Y004617D03*
X004888Y004620D03*
X004888Y004624D03*
X004888Y004628D03*
X004888Y004632D03*
X004888Y004636D03*
X004888Y004640D03*
X004888Y004644D03*
X004888Y004648D03*
X004888Y004652D03*
X004888Y004656D03*
X004888Y004660D03*
X004888Y004664D03*
X004888Y004668D03*
X004888Y004672D03*
X004888Y004676D03*
X004888Y004680D03*
X004888Y004683D03*
X004888Y004687D03*
X004888Y004691D03*
X004888Y004695D03*
X004888Y004699D03*
X004888Y004703D03*
X004888Y004707D03*
X004888Y004711D03*
X004888Y004715D03*
X004888Y004719D03*
X004888Y004723D03*
X004888Y004727D03*
X004888Y004731D03*
X004888Y004735D03*
X004888Y004739D03*
X004888Y004743D03*
X004888Y004746D03*
X004888Y004750D03*
X004888Y004754D03*
X004888Y004758D03*
X004888Y004762D03*
X004888Y004766D03*
X004888Y004770D03*
X004888Y004774D03*
X004888Y004778D03*
X004888Y004782D03*
X004888Y004786D03*
X004888Y004790D03*
X004888Y004794D03*
X004888Y004798D03*
X004888Y004802D03*
X004888Y004806D03*
X004888Y004809D03*
X004888Y004813D03*
X004888Y004817D03*
X004888Y004821D03*
X004888Y004825D03*
X004888Y004829D03*
X004888Y004833D03*
X004888Y004837D03*
X004888Y004841D03*
X004888Y004845D03*
X004888Y004849D03*
X004888Y004853D03*
X004888Y004857D03*
X004888Y004861D03*
X004888Y004865D03*
X004888Y004869D03*
X004888Y004872D03*
X004888Y004876D03*
X004888Y004880D03*
X004888Y004884D03*
X004888Y004888D03*
X003726Y004416D03*
X002565Y004416D03*
X002565Y004420D03*
X002565Y004424D03*
X002565Y004428D03*
X002565Y004431D03*
X002565Y004435D03*
X002565Y004439D03*
X002565Y004443D03*
X002565Y004447D03*
X002565Y004451D03*
X002565Y004455D03*
X002565Y004459D03*
X002565Y004463D03*
X002565Y004467D03*
X002565Y004471D03*
X002565Y004475D03*
X002565Y004479D03*
X002565Y004483D03*
X002565Y004487D03*
X002565Y004491D03*
X002565Y004494D03*
X002565Y004498D03*
X002565Y004502D03*
X002565Y004506D03*
X002565Y004510D03*
X002565Y004514D03*
X002565Y004518D03*
X002565Y004522D03*
X002565Y004526D03*
X002565Y004530D03*
X002565Y004534D03*
X002565Y004538D03*
X002565Y004542D03*
X002565Y004546D03*
X002565Y004550D03*
X002565Y004554D03*
X002565Y004557D03*
X002565Y004561D03*
X002565Y004565D03*
X002565Y004569D03*
X002565Y004573D03*
X002565Y004577D03*
X002565Y004581D03*
X002565Y004585D03*
X002565Y004589D03*
X002565Y004593D03*
X002565Y004597D03*
X002565Y004601D03*
X002565Y004605D03*
X002565Y004609D03*
X002565Y004613D03*
X002565Y004617D03*
X002565Y004620D03*
X002565Y004624D03*
X002565Y004628D03*
X002565Y004632D03*
X002565Y004636D03*
X002565Y004640D03*
X002565Y004644D03*
X002565Y004648D03*
X002565Y004652D03*
X002565Y004656D03*
X002565Y004660D03*
X002565Y004664D03*
X002565Y004668D03*
X002565Y004672D03*
X002565Y004676D03*
X002565Y004680D03*
X002565Y004683D03*
X002565Y004687D03*
X002565Y004691D03*
X002565Y004695D03*
X002565Y004699D03*
X002565Y004703D03*
X002565Y004707D03*
X002565Y004711D03*
X002565Y004715D03*
X002565Y004719D03*
X002565Y004723D03*
X002565Y004727D03*
X002565Y004731D03*
X002565Y004735D03*
X002565Y004739D03*
X002565Y004743D03*
X002565Y004746D03*
X002565Y004750D03*
X002565Y004754D03*
X002565Y004758D03*
X002565Y004762D03*
X002565Y004766D03*
X002565Y004770D03*
X002565Y004774D03*
X002565Y004778D03*
X002565Y004782D03*
X002565Y004786D03*
X002565Y004790D03*
X002565Y004794D03*
X002565Y004798D03*
X002565Y004802D03*
X002565Y004806D03*
X002565Y004809D03*
X002565Y004813D03*
X002565Y004817D03*
X002565Y004821D03*
X002565Y004825D03*
X002565Y004829D03*
X002565Y004833D03*
X002565Y004837D03*
X002565Y004841D03*
X002565Y004845D03*
X002565Y004849D03*
X002565Y004853D03*
X002565Y004857D03*
X002565Y004861D03*
X002565Y004865D03*
X002565Y004869D03*
X002565Y004872D03*
X002565Y004876D03*
X002565Y004880D03*
X002565Y004884D03*
X002565Y004412D03*
X002565Y004408D03*
X002565Y004404D03*
X002565Y004400D03*
X002565Y004396D03*
X002565Y004392D03*
X002565Y004388D03*
X002565Y004384D03*
X002565Y004380D03*
X002565Y004376D03*
X002565Y004372D03*
X002565Y004369D03*
X002565Y004365D03*
X002565Y004361D03*
X002565Y004357D03*
X002565Y004353D03*
X002565Y004349D03*
X002565Y004345D03*
X002565Y004341D03*
X002565Y004337D03*
X002565Y004333D03*
X002565Y004329D03*
X002565Y004325D03*
X002565Y004321D03*
X002565Y004317D03*
X002565Y004313D03*
X002565Y004309D03*
X002565Y004306D03*
X002565Y004302D03*
X002565Y004298D03*
X002565Y004294D03*
X002565Y004290D03*
X002565Y004286D03*
X002565Y004282D03*
X002565Y004278D03*
X002565Y004274D03*
X002565Y004270D03*
X002565Y004266D03*
X002565Y004262D03*
X002565Y004258D03*
X002565Y004254D03*
X002565Y004250D03*
X002565Y004246D03*
X002565Y004243D03*
X002565Y004239D03*
X002565Y004235D03*
X002565Y004231D03*
X002565Y004227D03*
X002565Y004223D03*
X002565Y004219D03*
X002565Y004215D03*
X002565Y004211D03*
X002565Y004207D03*
X002565Y004203D03*
X002565Y004199D03*
X002565Y004195D03*
X002565Y004191D03*
X002565Y004187D03*
X002565Y004183D03*
X002565Y004180D03*
X002565Y004176D03*
X002565Y004172D03*
X002565Y004168D03*
X002565Y004164D03*
X002565Y004160D03*
X002565Y004156D03*
X002565Y004148D03*
D93*
X003724Y004148D03*
D94*
X003724Y004412D03*
X002567Y004152D03*
D95*
X003726Y004152D03*
D96*
X003723Y004156D03*
D97*
X003724Y004160D03*
D98*
X003723Y004164D03*
D99*
X003723Y004168D03*
D100*
X003724Y004172D03*
X003724Y004176D03*
D101*
X003724Y004180D03*
D102*
X003723Y004183D03*
D103*
X003723Y004187D03*
D104*
X003724Y004191D03*
D105*
X003724Y004195D03*
D106*
X003723Y004199D03*
D107*
X003724Y004203D03*
D108*
X003724Y004207D03*
D109*
X003724Y004211D03*
D110*
X003726Y004215D03*
D111*
X003724Y004219D03*
D112*
X003724Y004223D03*
D113*
X003723Y004227D03*
D114*
X003724Y004231D03*
D115*
X003724Y004235D03*
D116*
X003724Y004239D03*
D117*
X003723Y004243D03*
D118*
X003724Y004246D03*
D119*
X003724Y004250D03*
D120*
X003724Y004254D03*
D121*
X003724Y004258D03*
X003724Y004262D03*
D122*
X003724Y004266D03*
D123*
X003723Y004270D03*
D124*
X003723Y004274D03*
D125*
X003724Y004278D03*
D126*
X003724Y004282D03*
D127*
X003726Y004286D03*
D128*
X003724Y004290D03*
D129*
X003726Y004294D03*
D130*
X003724Y004298D03*
D131*
X003724Y004302D03*
D132*
X003726Y004306D03*
D133*
X003724Y004309D03*
D134*
X003724Y004313D03*
D135*
X003726Y004317D03*
D136*
X003724Y004321D03*
D137*
X003726Y004325D03*
D138*
X003726Y004329D03*
D139*
X003724Y004333D03*
D140*
X003724Y004337D03*
D141*
X003724Y004341D03*
D142*
X003724Y004345D03*
D143*
X003726Y004349D03*
D144*
X003724Y004353D03*
D145*
X003724Y004357D03*
D146*
X003724Y004361D03*
X003724Y004365D03*
D147*
X003724Y004369D03*
D148*
X003724Y004372D03*
D149*
X003726Y004376D03*
D150*
X003726Y004380D03*
D151*
X003724Y004384D03*
D152*
X003724Y004388D03*
D153*
X003726Y004392D03*
D154*
X003724Y004396D03*
D155*
X003724Y004400D03*
D156*
X003726Y004404D03*
D157*
X003726Y004408D03*
D158*
X003724Y004424D03*
D159*
X003724Y004428D03*
D160*
X003724Y004431D03*
D161*
X003726Y004435D03*
D162*
X003724Y004439D03*
D163*
X003724Y004443D03*
D164*
X003726Y004447D03*
D165*
X003724Y004451D03*
D166*
X003724Y004455D03*
D167*
X003724Y004459D03*
D168*
X003724Y004463D03*
X003724Y004467D03*
D169*
X003724Y004471D03*
D170*
X003726Y004475D03*
D171*
X003726Y004479D03*
D172*
X003724Y004483D03*
D173*
X003724Y004487D03*
D174*
X003726Y004491D03*
D175*
X003724Y004494D03*
D176*
X003724Y004498D03*
D177*
X003724Y004502D03*
D178*
X003726Y004506D03*
D179*
X003724Y004510D03*
D180*
X003726Y004514D03*
D181*
X003726Y004518D03*
D182*
X003726Y004522D03*
D183*
X003724Y004526D03*
X003724Y004530D03*
D184*
X003726Y004534D03*
D185*
X003726Y004538D03*
X003726Y004542D03*
D186*
X003726Y004546D03*
D187*
X003726Y004550D03*
D188*
X003726Y004554D03*
D189*
X003724Y004557D03*
D190*
X003726Y004561D03*
D191*
X003726Y004565D03*
D192*
X003724Y004569D03*
D193*
X003724Y004573D03*
D194*
X003726Y004577D03*
D195*
X003726Y004581D03*
D196*
X003724Y004585D03*
D197*
X003726Y004589D03*
D198*
X003726Y004593D03*
D199*
X003726Y004597D03*
D200*
X003726Y004601D03*
D201*
X003728Y004605D03*
X005024Y006034D03*
X005024Y006038D03*
X005024Y006042D03*
X002429Y006042D03*
D202*
X002425Y006038D03*
X003724Y004609D03*
X005020Y006026D03*
D203*
X005018Y006022D03*
X003726Y004613D03*
X002427Y006034D03*
D204*
X002431Y006026D03*
X002431Y006022D03*
X003726Y004617D03*
X005014Y006010D03*
X005014Y006014D03*
D205*
X005010Y006002D03*
X005010Y005998D03*
X003726Y004624D03*
X002435Y006014D03*
D206*
X002439Y006002D03*
X003726Y004628D03*
X005006Y005987D03*
X005006Y005991D03*
D207*
X005004Y005983D03*
X003724Y004632D03*
X002441Y005998D03*
D208*
X002443Y005994D03*
X003726Y004636D03*
X005002Y005975D03*
X005002Y005979D03*
D209*
X004998Y005967D03*
X003726Y004640D03*
X002447Y005979D03*
D210*
X002451Y005971D03*
X003726Y004648D03*
X003726Y004644D03*
X004994Y005955D03*
D211*
X004990Y005947D03*
X003726Y004652D03*
X002455Y005959D03*
D212*
X002459Y005947D03*
X002459Y005943D03*
X003726Y004656D03*
X004986Y005935D03*
D213*
X004982Y005928D03*
X004982Y005924D03*
X004982Y005920D03*
X003726Y004660D03*
X002463Y005935D03*
D214*
X002465Y005931D03*
X002465Y005928D03*
X003724Y004664D03*
D215*
X003726Y004668D03*
X004978Y005912D03*
X004978Y005916D03*
X002467Y005924D03*
D216*
X002471Y005912D03*
X003726Y004672D03*
X004974Y005900D03*
X004974Y005904D03*
D217*
X004971Y005892D03*
X003726Y004680D03*
X003726Y004676D03*
X002474Y005904D03*
D218*
X002478Y005892D03*
X003726Y004683D03*
X004967Y005880D03*
D219*
X004963Y005869D03*
X003726Y004687D03*
X002482Y005880D03*
X002482Y005884D03*
D220*
X002486Y005872D03*
X002486Y005869D03*
X003726Y004695D03*
X003726Y004691D03*
X004959Y005857D03*
D221*
X004955Y005845D03*
X003726Y004699D03*
X002490Y005861D03*
D222*
X002494Y005849D03*
X002494Y005845D03*
X003726Y004703D03*
X004951Y005837D03*
D223*
X004947Y005829D03*
X004947Y005825D03*
X003726Y004711D03*
X003726Y004707D03*
D224*
X003726Y004715D03*
X004943Y005817D03*
X002502Y005825D03*
X002502Y005829D03*
D225*
X002504Y005821D03*
X003724Y004719D03*
X004941Y005809D03*
X004941Y005813D03*
D226*
X004935Y005794D03*
X003726Y004727D03*
X003726Y004723D03*
X002510Y005806D03*
D227*
X002514Y005798D03*
X002514Y005794D03*
X003726Y004731D03*
X004931Y005782D03*
D228*
X004929Y005778D03*
X003728Y004735D03*
X002516Y005786D03*
X002516Y005790D03*
D229*
X002518Y005782D03*
X003726Y004739D03*
X004927Y005770D03*
X004927Y005774D03*
D230*
X004923Y005762D03*
X004923Y005758D03*
X003726Y004743D03*
X002522Y005774D03*
D231*
X002526Y005762D03*
X003726Y004746D03*
X004919Y005746D03*
X004919Y005750D03*
D232*
X004915Y005739D03*
X003726Y004754D03*
X003726Y004750D03*
X002530Y005750D03*
D233*
X002534Y005739D03*
X003726Y004758D03*
X004911Y005731D03*
D234*
X004908Y005719D03*
X003726Y004766D03*
X003726Y004762D03*
X002537Y005731D03*
D235*
X002541Y005719D03*
X003726Y004770D03*
X004904Y005707D03*
D236*
X004900Y005695D03*
X003726Y004774D03*
X002545Y005707D03*
D237*
X002547Y005703D03*
X003728Y004778D03*
X004898Y005687D03*
X004898Y005691D03*
D238*
X004896Y005683D03*
X003726Y004782D03*
X002549Y005695D03*
X002549Y005699D03*
D239*
X002553Y005687D03*
X002553Y005683D03*
X002837Y005294D03*
X003726Y004786D03*
X004616Y005290D03*
X004620Y005298D03*
X004892Y005672D03*
D240*
X004888Y005664D03*
X004612Y005282D03*
X003726Y004794D03*
X003726Y004790D03*
X002841Y005282D03*
X002557Y005672D03*
X002557Y005676D03*
D241*
X002561Y005664D03*
X002845Y005274D03*
X003726Y004798D03*
X004608Y005270D03*
X004884Y005652D03*
D242*
X004880Y005644D03*
X004880Y005640D03*
X004604Y005262D03*
X004604Y005258D03*
X003726Y004802D03*
X002849Y005262D03*
X002565Y005652D03*
D243*
X002571Y005640D03*
X002571Y005636D03*
X002854Y005243D03*
X003728Y004809D03*
X004599Y005243D03*
X004874Y005624D03*
D244*
X004868Y005609D03*
X004868Y005605D03*
X004593Y005227D03*
X003726Y004821D03*
X003726Y004817D03*
X002860Y005227D03*
X002860Y005231D03*
X002577Y005620D03*
D245*
X002581Y005609D03*
X002864Y005215D03*
X003726Y004825D03*
X004589Y005215D03*
X004589Y005219D03*
X004864Y005593D03*
X004864Y005597D03*
D246*
X004860Y005585D03*
X004585Y005207D03*
X003726Y004829D03*
X002868Y005207D03*
X002585Y005597D03*
X002585Y005601D03*
D247*
X002589Y005589D03*
X002872Y005195D03*
X003726Y004833D03*
X004581Y005195D03*
X004856Y005573D03*
X004856Y005577D03*
D248*
X004854Y005569D03*
X004579Y005191D03*
X004579Y005187D03*
X003724Y004837D03*
X002874Y005187D03*
X002874Y005191D03*
X002591Y005581D03*
X002591Y005585D03*
D249*
X002593Y005577D03*
X002593Y005573D03*
X002876Y005183D03*
X002876Y005180D03*
X003726Y004841D03*
X004577Y005180D03*
X004577Y005183D03*
X004852Y005565D03*
D250*
X004850Y005561D03*
X004850Y005557D03*
X004575Y005176D03*
X003728Y004845D03*
X002878Y005176D03*
X002595Y005569D03*
D251*
X002599Y005561D03*
X002599Y005557D03*
X002882Y005168D03*
X003724Y004849D03*
X004571Y005168D03*
X004847Y005550D03*
D252*
X004845Y005546D03*
X004845Y005542D03*
X004569Y005164D03*
X004569Y005160D03*
X003726Y004853D03*
X002884Y005164D03*
X002600Y005554D03*
D253*
X002604Y005542D03*
X002888Y005152D03*
X003726Y004857D03*
X004841Y005530D03*
X004841Y005534D03*
D254*
X004837Y005522D03*
X004837Y005518D03*
X004561Y005140D03*
X004561Y005136D03*
X003726Y004861D03*
X002892Y005140D03*
X002608Y005534D03*
D255*
X002610Y005530D03*
X002610Y005526D03*
X002894Y005136D03*
X002894Y005132D03*
X003728Y004865D03*
X004559Y005132D03*
X004835Y005514D03*
D256*
X004833Y005510D03*
X004833Y005506D03*
X004557Y005128D03*
X004557Y005124D03*
X003726Y004869D03*
X002896Y005128D03*
X002612Y005522D03*
D257*
X002616Y005510D03*
X002900Y005120D03*
X002900Y005117D03*
X003726Y004872D03*
X004553Y005117D03*
X004829Y005494D03*
X004829Y005498D03*
D258*
X004825Y005487D03*
X004549Y005109D03*
X004549Y005105D03*
X003726Y004876D03*
X002904Y005105D03*
X002904Y005109D03*
X002620Y005498D03*
D259*
X002624Y005491D03*
X002624Y005487D03*
X002908Y005097D03*
X003726Y004880D03*
X004545Y005097D03*
X004821Y005479D03*
D260*
X004819Y005475D03*
X004819Y005471D03*
X004543Y005093D03*
X004543Y005089D03*
X003728Y004884D03*
X002910Y005089D03*
X002910Y005093D03*
X002626Y005483D03*
D261*
X002628Y005479D03*
X002911Y005085D03*
X003726Y004888D03*
X004541Y005085D03*
X004817Y005467D03*
D262*
X003726Y004998D03*
X003726Y004994D03*
X003726Y004991D03*
X003726Y004987D03*
X003726Y004983D03*
X003726Y004979D03*
X003726Y004975D03*
X003726Y004971D03*
X003726Y004967D03*
X003726Y004963D03*
X003726Y004959D03*
X003726Y004955D03*
X003726Y004951D03*
X003726Y004947D03*
X003726Y004943D03*
X003726Y004939D03*
X003726Y004935D03*
X003726Y004931D03*
X003726Y004928D03*
X003726Y004924D03*
X003726Y004920D03*
X003726Y004916D03*
X003726Y004912D03*
X003726Y004908D03*
X003726Y004904D03*
X003726Y004900D03*
X003726Y004896D03*
X003726Y004892D03*
D263*
X002943Y005002D03*
X002660Y005392D03*
X004786Y005380D03*
X004786Y005376D03*
D264*
X004787Y005384D03*
X004512Y005002D03*
X002941Y005006D03*
X002658Y005396D03*
D265*
X002656Y005400D03*
X002939Y005010D03*
X004514Y005010D03*
X004514Y005006D03*
X004789Y005388D03*
X004789Y005392D03*
D266*
X004791Y005396D03*
X004516Y005014D03*
X002937Y005014D03*
X002654Y005404D03*
X002654Y005408D03*
D267*
X002652Y005412D03*
X002935Y005022D03*
X002935Y005018D03*
X004518Y005018D03*
X004518Y005022D03*
X004793Y005400D03*
X004793Y005404D03*
D268*
X004795Y005408D03*
X004520Y005026D03*
X002933Y005026D03*
X002933Y005030D03*
X002650Y005416D03*
X002650Y005420D03*
D269*
X002648Y005424D03*
X002931Y005034D03*
X004522Y005034D03*
X004522Y005030D03*
X004797Y005412D03*
D270*
X004799Y005416D03*
X004524Y005038D03*
X002929Y005038D03*
X002646Y005428D03*
D271*
X002644Y005431D03*
X002644Y005435D03*
X002927Y005042D03*
X004526Y005042D03*
X004801Y005420D03*
D272*
X004803Y005424D03*
X004803Y005428D03*
X004528Y005046D03*
X002925Y005046D03*
X002925Y005050D03*
X002642Y005439D03*
X002642Y005443D03*
D273*
X002640Y005447D03*
X002923Y005054D03*
X004530Y005054D03*
X004530Y005050D03*
X004805Y005431D03*
X004805Y005435D03*
D274*
X004807Y005439D03*
X004532Y005057D03*
X002921Y005057D03*
X002921Y005061D03*
X002638Y005451D03*
D275*
X002636Y005455D03*
X002919Y005065D03*
X004534Y005065D03*
X004534Y005061D03*
X004809Y005443D03*
X004809Y005447D03*
D276*
X004811Y005451D03*
X004536Y005069D03*
X002917Y005069D03*
X002917Y005073D03*
X002634Y005459D03*
X002634Y005463D03*
X002634Y005467D03*
D277*
X002632Y005471D03*
X002915Y005077D03*
X004537Y005077D03*
X004537Y005073D03*
X004813Y005455D03*
D278*
X004815Y005459D03*
X004815Y005463D03*
X004539Y005081D03*
X002913Y005081D03*
X002630Y005475D03*
D279*
X002622Y005494D03*
X002906Y005101D03*
X004547Y005101D03*
X004823Y005483D03*
D280*
X004827Y005491D03*
X004551Y005113D03*
X002902Y005113D03*
X002618Y005502D03*
X002618Y005506D03*
D281*
X002614Y005514D03*
X002614Y005518D03*
X002898Y005124D03*
X004555Y005120D03*
X004831Y005502D03*
D282*
X004839Y005526D03*
X004563Y005148D03*
X004563Y005144D03*
X002890Y005144D03*
X002890Y005148D03*
X002606Y005538D03*
D283*
X002602Y005546D03*
X002602Y005550D03*
X002886Y005160D03*
X002886Y005156D03*
X004567Y005156D03*
X004567Y005152D03*
X004843Y005538D03*
D284*
X004849Y005554D03*
X004573Y005172D03*
X002880Y005172D03*
X002597Y005565D03*
D285*
X002587Y005593D03*
X002870Y005203D03*
X002870Y005199D03*
X004583Y005199D03*
X004583Y005203D03*
X004858Y005581D03*
D286*
X004862Y005589D03*
X004587Y005211D03*
X002866Y005211D03*
X002583Y005605D03*
D287*
X002579Y005613D03*
X002579Y005617D03*
X002862Y005223D03*
X002862Y005219D03*
X004591Y005223D03*
X004866Y005601D03*
D288*
X004882Y005648D03*
X004606Y005266D03*
X002847Y005266D03*
X002847Y005270D03*
X002563Y005656D03*
X002563Y005660D03*
D289*
X002559Y005668D03*
X002843Y005278D03*
X004610Y005278D03*
X004610Y005274D03*
X004886Y005656D03*
X004886Y005660D03*
D290*
X004890Y005668D03*
X004626Y005302D03*
X004614Y005286D03*
X002839Y005286D03*
X002839Y005290D03*
X002831Y005302D03*
X002555Y005680D03*
D291*
X002551Y005691D03*
X002835Y005298D03*
X004618Y005294D03*
X004894Y005676D03*
X004894Y005680D03*
D292*
X001913Y005302D03*
D293*
X002034Y005302D03*
D294*
X005327Y005302D03*
D295*
X002691Y005306D03*
D296*
X002685Y005321D03*
X004760Y005309D03*
X004760Y005306D03*
D297*
X002689Y005309D03*
D298*
X002687Y005313D03*
X002687Y005317D03*
D299*
X002683Y005325D03*
X002683Y005329D03*
X004762Y005317D03*
X004762Y005313D03*
D300*
X004764Y005321D03*
X002681Y005333D03*
D301*
X002679Y005337D03*
X004766Y005325D03*
D302*
X004768Y005329D03*
X004768Y005333D03*
X002677Y005341D03*
X002677Y005345D03*
D303*
X002675Y005349D03*
X004770Y005337D03*
D304*
X004772Y005341D03*
X002673Y005353D03*
D305*
X002671Y005357D03*
X002671Y005361D03*
X004774Y005349D03*
X004774Y005345D03*
D306*
X004776Y005353D03*
X002669Y005365D03*
D307*
X002667Y005369D03*
X004778Y005357D03*
D308*
X004780Y005361D03*
X004780Y005365D03*
X002665Y005372D03*
X002665Y005376D03*
D309*
X002663Y005380D03*
X004782Y005369D03*
D310*
X004784Y005372D03*
X002661Y005384D03*
X002661Y005388D03*
D311*
X002543Y005711D03*
X002543Y005715D03*
X004902Y005703D03*
X004902Y005699D03*
D312*
X004906Y005711D03*
X004906Y005715D03*
X002539Y005723D03*
X002539Y005727D03*
D313*
X002536Y005735D03*
X004910Y005727D03*
X004910Y005723D03*
D314*
X004913Y005735D03*
X002532Y005743D03*
X002532Y005746D03*
D315*
X002528Y005754D03*
X002528Y005758D03*
X004917Y005743D03*
D316*
X004921Y005754D03*
X002524Y005766D03*
X002524Y005770D03*
D317*
X002520Y005778D03*
X004925Y005766D03*
D318*
X004933Y005786D03*
X004933Y005790D03*
X002512Y005802D03*
D319*
X002508Y005809D03*
X002508Y005813D03*
X004937Y005798D03*
D320*
X004939Y005802D03*
X004939Y005806D03*
X002506Y005817D03*
D321*
X002500Y005833D03*
X002500Y005837D03*
X004945Y005821D03*
D322*
X004949Y005833D03*
X002496Y005841D03*
D323*
X002492Y005853D03*
X002492Y005857D03*
X004953Y005841D03*
D324*
X004957Y005849D03*
X004957Y005853D03*
X002488Y005865D03*
D325*
X002484Y005876D03*
X004961Y005865D03*
X004961Y005861D03*
D326*
X004965Y005872D03*
X004965Y005876D03*
X002480Y005888D03*
D327*
X002476Y005896D03*
X002476Y005900D03*
X004969Y005888D03*
X004969Y005884D03*
D328*
X004973Y005896D03*
X002473Y005908D03*
D329*
X002469Y005916D03*
X002469Y005920D03*
X004976Y005908D03*
D330*
X004984Y005931D03*
X002461Y005939D03*
D331*
X002457Y005951D03*
X002457Y005955D03*
X004988Y005943D03*
X004988Y005939D03*
D332*
X004992Y005951D03*
X002453Y005963D03*
X002453Y005967D03*
D333*
X002449Y005975D03*
X004996Y005963D03*
X004996Y005959D03*
D334*
X005000Y005971D03*
X002445Y005983D03*
X002445Y005987D03*
X002445Y005991D03*
D335*
X002437Y006006D03*
X002437Y006010D03*
X005008Y005994D03*
D336*
X005016Y006018D03*
X002429Y006030D03*
D337*
X005022Y006030D03*
M02*
