G75*
%MOIN*%
%OFA0B0*%
%FSLAX24Y24*%
%IPPOS*%
%LPD*%
%AMOC8*
5,1,8,0,0,1.08239X$1,22.5*
%
%ADD10C,0.0000*%
%ADD11C,0.0030*%
%ADD12C,0.0240*%
%ADD13C,0.0010*%
%ADD14C,0.0080*%
%ADD15C,0.0348*%
%ADD16C,0.0040*%
%ADD17R,0.0004X0.1378*%
%ADD18R,0.0004X0.1382*%
%ADD19R,0.0004X0.1394*%
%ADD20R,0.0004X0.0004*%
%ADD21R,0.0004X0.0012*%
%ADD22R,0.0004X0.0020*%
%ADD23R,0.0004X0.0028*%
%ADD24R,0.0004X0.0035*%
%ADD25R,0.0004X0.0039*%
%ADD26R,0.0004X0.0043*%
%ADD27R,0.0004X0.0047*%
%ADD28R,0.0004X0.0051*%
%ADD29R,0.0004X0.0059*%
%ADD30R,0.0004X0.0067*%
%ADD31R,0.0004X0.0083*%
%ADD32R,0.0004X0.0091*%
%ADD33R,0.0004X0.0094*%
%ADD34R,0.0004X0.0098*%
%ADD35R,0.0004X0.0106*%
%ADD36R,0.0004X0.0114*%
%ADD37R,0.0004X0.0122*%
%ADD38R,0.0004X0.0130*%
%ADD39R,0.0004X0.0134*%
%ADD40R,0.0004X0.0138*%
%ADD41R,0.0004X0.0146*%
%ADD42R,0.0004X0.0154*%
%ADD43R,0.0004X0.0161*%
%ADD44R,0.0004X0.0165*%
%ADD45R,0.0004X0.0169*%
%ADD46R,0.0004X0.0177*%
%ADD47R,0.0004X0.0181*%
%ADD48R,0.0004X0.0189*%
%ADD49R,0.0004X0.0193*%
%ADD50R,0.0004X0.0201*%
%ADD51R,0.0004X0.0205*%
%ADD52R,0.0004X0.0213*%
%ADD53R,0.0004X0.0217*%
%ADD54R,0.0004X0.0224*%
%ADD55R,0.0004X0.0232*%
%ADD56R,0.0004X0.0240*%
%ADD57R,0.0004X0.0248*%
%ADD58R,0.0004X0.0256*%
%ADD59R,0.0004X0.0260*%
%ADD60R,0.0004X0.0268*%
%ADD61R,0.0004X0.0276*%
%ADD62R,0.0004X0.0280*%
%ADD63R,0.0004X0.0287*%
%ADD64R,0.0004X0.0291*%
%ADD65R,0.0004X0.0295*%
%ADD66R,0.0004X0.0303*%
%ADD67R,0.0004X0.0307*%
%ADD68R,0.0004X0.0315*%
%ADD69R,0.0004X0.0319*%
%ADD70R,0.0004X0.0323*%
%ADD71R,0.0004X0.0331*%
%ADD72R,0.0004X0.0339*%
%ADD73R,0.0004X0.0343*%
%ADD74R,0.0004X0.0346*%
%ADD75R,0.0004X0.0354*%
%ADD76R,0.0004X0.0362*%
%ADD77R,0.0004X0.0370*%
%ADD78R,0.0004X0.0378*%
%ADD79R,0.0004X0.0386*%
%ADD80R,0.0004X0.1390*%
%ADD81R,0.0004X0.0394*%
%ADD82R,0.0004X0.0402*%
%ADD83R,0.0004X0.1110*%
%ADD84R,0.0004X0.0409*%
%ADD85R,0.0004X0.0244*%
%ADD86R,0.0004X0.0831*%
%ADD87R,0.0004X0.0008*%
%ADD88R,0.0004X0.0811*%
%ADD89R,0.0004X0.0413*%
%ADD90R,0.0004X0.0815*%
%ADD91R,0.0004X0.0807*%
%ADD92R,0.0004X0.0417*%
%ADD93R,0.0004X0.0803*%
%ADD94R,0.0004X0.0421*%
%ADD95R,0.0004X0.0429*%
%ADD96R,0.0004X0.0433*%
%ADD97R,0.0004X0.0437*%
%ADD98R,0.0004X0.0445*%
%ADD99R,0.0004X0.0457*%
%ADD100R,0.0004X0.0465*%
%ADD101R,0.0004X0.0469*%
%ADD102R,0.0004X0.0476*%
%ADD103R,0.0004X0.0480*%
%ADD104R,0.0004X0.0488*%
%ADD105R,0.0004X0.0492*%
%ADD106R,0.0004X0.0496*%
%ADD107R,0.0004X0.0504*%
%ADD108R,0.0004X0.0512*%
%ADD109R,0.0004X0.0516*%
%ADD110R,0.0004X0.0520*%
%ADD111R,0.0004X0.0528*%
%ADD112R,0.0004X0.0531*%
%ADD113R,0.0004X0.0535*%
%ADD114R,0.0004X0.0543*%
%ADD115R,0.0004X0.0551*%
%ADD116R,0.0004X0.0555*%
%ADD117R,0.0004X0.0559*%
%ADD118R,0.0004X0.0567*%
%ADD119R,0.0004X0.0575*%
%ADD120R,0.0004X0.0583*%
%ADD121R,0.0004X0.0591*%
%ADD122R,0.0004X0.0594*%
%ADD123R,0.0004X0.0602*%
%ADD124R,0.0004X0.0606*%
%ADD125R,0.0004X0.0614*%
%ADD126R,0.0004X0.0618*%
%ADD127R,0.0004X0.0622*%
%ADD128R,0.0004X0.0634*%
%ADD129R,0.0004X0.0638*%
%ADD130R,0.0004X0.0646*%
%ADD131R,0.0004X0.0650*%
%ADD132R,0.0004X0.0654*%
%ADD133R,0.0004X0.0661*%
%ADD134R,0.0004X0.0665*%
%ADD135R,0.0004X0.0669*%
%ADD136R,0.0004X0.0673*%
%ADD137R,0.0004X0.0681*%
%ADD138R,0.0004X0.0685*%
%ADD139R,0.0004X0.0693*%
%ADD140R,0.0004X0.0701*%
%ADD141R,0.0004X0.0709*%
%ADD142R,0.0004X0.0713*%
%ADD143R,0.0004X0.0717*%
%ADD144R,0.0004X0.0724*%
%ADD145R,0.0004X0.0732*%
%ADD146R,0.0004X0.0740*%
%ADD147R,0.0004X0.0748*%
%ADD148R,0.0004X0.0752*%
%ADD149R,0.0004X0.0760*%
%ADD150R,0.0004X0.0764*%
%ADD151R,0.0004X0.0772*%
%ADD152R,0.0004X0.0776*%
%ADD153R,0.0004X0.0780*%
%ADD154R,0.0004X0.0787*%
%ADD155R,0.0004X0.0791*%
%ADD156R,0.0004X0.0799*%
%ADD157R,0.0004X0.0819*%
%ADD158R,0.0004X0.0827*%
%ADD159R,0.0004X0.0835*%
%ADD160R,0.0004X0.0839*%
%ADD161R,0.0004X0.0843*%
%ADD162R,0.0004X0.0850*%
%ADD163R,0.0004X0.0854*%
%ADD164R,0.0004X0.0858*%
%ADD165R,0.0004X0.0866*%
%ADD166R,0.0004X0.0874*%
%ADD167R,0.0004X0.0882*%
%ADD168R,0.0004X0.0890*%
%ADD169R,0.0004X0.0894*%
%ADD170R,0.0004X0.0902*%
%ADD171R,0.0004X0.0906*%
%ADD172R,0.0004X0.0913*%
%ADD173R,0.0004X0.0917*%
%ADD174R,0.0004X0.0921*%
%ADD175R,0.0004X0.0929*%
%ADD176R,0.0004X0.0937*%
%ADD177R,0.0004X0.0941*%
%ADD178R,0.0004X0.0945*%
%ADD179R,0.0004X0.0949*%
%ADD180R,0.0004X0.0957*%
%ADD181R,0.0004X0.0965*%
%ADD182R,0.0004X0.0969*%
%ADD183R,0.0004X0.0980*%
%ADD184R,0.0004X0.0988*%
%ADD185R,0.0004X0.0996*%
%ADD186R,0.0004X0.1004*%
%ADD187R,0.0004X0.1012*%
%ADD188R,0.0004X0.1016*%
%ADD189R,0.0004X0.1020*%
%ADD190R,0.0004X0.1028*%
%ADD191R,0.0004X0.1031*%
%ADD192R,0.0004X0.1039*%
%ADD193R,0.0004X0.1043*%
%ADD194R,0.0004X0.1051*%
%ADD195R,0.0004X0.1055*%
%ADD196R,0.0004X0.1059*%
%ADD197R,0.0004X0.1067*%
%ADD198R,0.0004X0.1075*%
%ADD199R,0.0004X0.1083*%
%ADD200R,0.0004X0.1087*%
%ADD201R,0.0004X0.1094*%
%ADD202R,0.0004X0.1098*%
%ADD203R,0.0004X0.1106*%
%ADD204R,0.0004X0.1114*%
%ADD205R,0.0004X0.1122*%
%ADD206R,0.0004X0.1126*%
%ADD207R,0.0004X0.1130*%
%ADD208R,0.0004X0.1138*%
%ADD209R,0.0004X0.1146*%
%ADD210R,0.0004X0.1154*%
%ADD211R,0.0004X0.1161*%
%ADD212R,0.0004X0.1169*%
%ADD213R,0.0004X0.1173*%
%ADD214R,0.0004X0.1177*%
%ADD215R,0.0004X0.1185*%
%ADD216R,0.0004X0.1193*%
%ADD217R,0.0004X0.1201*%
%ADD218R,0.0004X0.1209*%
%ADD219R,0.0004X0.1217*%
%ADD220R,0.0004X0.1224*%
%ADD221R,0.0004X0.1232*%
%ADD222R,0.0004X0.1240*%
%ADD223R,0.0004X0.1248*%
%ADD224R,0.0004X0.1252*%
%ADD225R,0.0004X0.1264*%
%ADD226R,0.0004X0.1272*%
%ADD227R,0.0004X0.1276*%
%ADD228R,0.0004X0.1280*%
%ADD229R,0.0004X0.1287*%
%ADD230R,0.0004X0.1295*%
%ADD231R,0.0004X0.1303*%
%ADD232R,0.0004X0.1311*%
%ADD233R,0.0004X0.1319*%
%ADD234R,0.0004X0.1327*%
%ADD235R,0.0004X0.1335*%
%ADD236R,0.0004X0.1339*%
%ADD237R,0.0004X0.1343*%
%ADD238R,0.0004X0.1350*%
%ADD239R,0.0004X0.1358*%
%ADD240R,0.0004X0.1366*%
%ADD241R,0.0004X0.1374*%
%ADD242R,0.0004X0.1386*%
%ADD243R,0.0004X0.1398*%
%ADD244R,0.0004X0.1406*%
%ADD245R,0.0004X0.1413*%
%ADD246R,0.0004X0.1421*%
%ADD247R,0.0004X0.1425*%
%ADD248R,0.0004X0.1429*%
%ADD249R,0.0004X0.1433*%
%ADD250R,0.0004X0.1441*%
%ADD251R,0.0004X0.1445*%
%ADD252R,0.0004X0.1453*%
%ADD253R,0.0004X0.1461*%
%ADD254R,0.0004X0.1465*%
%ADD255R,0.0004X0.1469*%
%ADD256R,0.0004X0.1476*%
%ADD257R,0.0004X0.1484*%
%ADD258R,0.0004X0.1492*%
%ADD259R,0.0004X0.1496*%
%ADD260R,0.0004X0.1500*%
%ADD261R,0.0004X0.3130*%
%ADD262R,0.0004X0.1563*%
%ADD263R,0.0004X0.1559*%
%ADD264R,0.0004X0.1555*%
%ADD265R,0.0004X0.1551*%
%ADD266R,0.0004X0.1547*%
%ADD267R,0.0004X0.1543*%
%ADD268R,0.0004X0.1539*%
%ADD269R,0.0004X0.1535*%
%ADD270R,0.0004X0.1531*%
%ADD271R,0.0004X0.1528*%
%ADD272R,0.0004X0.1524*%
%ADD273R,0.0004X0.1520*%
%ADD274R,0.0004X0.1516*%
%ADD275R,0.0004X0.1512*%
%ADD276R,0.0004X0.1508*%
%ADD277R,0.0004X0.1504*%
%ADD278R,0.0004X0.1488*%
%ADD279R,0.0004X0.1480*%
%ADD280R,0.0004X0.1472*%
%ADD281R,0.0004X0.1457*%
%ADD282R,0.0004X0.1449*%
%ADD283R,0.0004X0.1437*%
%ADD284R,0.0004X0.1417*%
%ADD285R,0.0004X0.1409*%
%ADD286R,0.0004X0.1402*%
%ADD287R,0.0004X0.1370*%
%ADD288R,0.0004X0.1362*%
%ADD289R,0.0004X0.1354*%
%ADD290R,0.0004X0.1346*%
%ADD291R,0.0004X0.0031*%
%ADD292R,0.0004X0.0185*%
%ADD293R,0.0004X0.0024*%
%ADD294R,0.0004X0.1626*%
%ADD295R,0.0004X0.1614*%
%ADD296R,0.0004X0.1622*%
%ADD297R,0.0004X0.1618*%
%ADD298R,0.0004X0.1610*%
%ADD299R,0.0004X0.1606*%
%ADD300R,0.0004X0.1602*%
%ADD301R,0.0004X0.1598*%
%ADD302R,0.0004X0.1594*%
%ADD303R,0.0004X0.1591*%
%ADD304R,0.0004X0.1587*%
%ADD305R,0.0004X0.1583*%
%ADD306R,0.0004X0.1579*%
%ADD307R,0.0004X0.1575*%
%ADD308R,0.0004X0.1571*%
%ADD309R,0.0004X0.1567*%
%ADD310R,0.0004X0.1331*%
%ADD311R,0.0004X0.1323*%
%ADD312R,0.0004X0.1315*%
%ADD313R,0.0004X0.1307*%
%ADD314R,0.0004X0.1299*%
%ADD315R,0.0004X0.1291*%
%ADD316R,0.0004X0.1283*%
%ADD317R,0.0004X0.1268*%
%ADD318R,0.0004X0.1260*%
%ADD319R,0.0004X0.1256*%
%ADD320R,0.0004X0.1244*%
%ADD321R,0.0004X0.1236*%
%ADD322R,0.0004X0.1228*%
%ADD323R,0.0004X0.1220*%
%ADD324R,0.0004X0.1213*%
%ADD325R,0.0004X0.1205*%
%ADD326R,0.0004X0.1197*%
%ADD327R,0.0004X0.1189*%
%ADD328R,0.0004X0.1181*%
%ADD329R,0.0004X0.1165*%
%ADD330R,0.0004X0.1157*%
%ADD331R,0.0004X0.1150*%
%ADD332R,0.0004X0.1142*%
%ADD333R,0.0004X0.1134*%
%ADD334R,0.0004X0.1118*%
%ADD335R,0.0004X0.1102*%
%ADD336R,0.0004X0.1091*%
D10*
X000680Y000300D02*
X012180Y000300D01*
X012224Y000302D01*
X012267Y000308D01*
X012309Y000317D01*
X012351Y000330D01*
X012391Y000347D01*
X012430Y000367D01*
X012467Y000390D01*
X012501Y000417D01*
X012534Y000446D01*
X012563Y000479D01*
X012590Y000513D01*
X012613Y000550D01*
X012633Y000589D01*
X012650Y000629D01*
X012663Y000671D01*
X012672Y000713D01*
X012678Y000756D01*
X012680Y000800D01*
X012680Y009800D01*
X012678Y009844D01*
X012672Y009887D01*
X012663Y009929D01*
X012650Y009971D01*
X012633Y010011D01*
X012613Y010050D01*
X012590Y010087D01*
X012563Y010121D01*
X012534Y010154D01*
X012501Y010183D01*
X012467Y010210D01*
X012430Y010233D01*
X012391Y010253D01*
X012351Y010270D01*
X012309Y010283D01*
X012267Y010292D01*
X012224Y010298D01*
X012180Y010300D01*
X000680Y010300D01*
X000636Y010298D01*
X000593Y010292D01*
X000551Y010283D01*
X000509Y010270D01*
X000469Y010253D01*
X000430Y010233D01*
X000393Y010210D01*
X000359Y010183D01*
X000326Y010154D01*
X000297Y010121D01*
X000270Y010087D01*
X000247Y010050D01*
X000227Y010011D01*
X000210Y009971D01*
X000197Y009929D01*
X000188Y009887D01*
X000182Y009844D01*
X000180Y009800D01*
X000180Y000800D01*
X000182Y000756D01*
X000188Y000713D01*
X000197Y000671D01*
X000210Y000629D01*
X000227Y000589D01*
X000247Y000550D01*
X000270Y000513D01*
X000297Y000479D01*
X000326Y000446D01*
X000359Y000417D01*
X000393Y000390D01*
X000430Y000367D01*
X000469Y000347D01*
X000509Y000330D01*
X000551Y000317D01*
X000593Y000308D01*
X000636Y000302D01*
X000680Y000300D01*
X010692Y006694D02*
X010692Y006697D01*
X010693Y006698D01*
X010692Y006700D02*
X010693Y006700D01*
X010693Y006701D01*
X010692Y006701D01*
X010692Y006700D01*
X010692Y006703D02*
X010700Y006709D01*
X010700Y006711D02*
X010693Y006711D01*
X010692Y006712D01*
X010692Y006715D01*
X010693Y006716D01*
X010700Y006716D01*
X010697Y006719D02*
X010697Y006723D01*
X010696Y006725D02*
X010697Y006727D01*
X010697Y006729D01*
X010696Y006730D01*
X010694Y006730D01*
X010694Y006725D01*
X010693Y006725D02*
X010696Y006725D01*
X010693Y006725D02*
X010692Y006727D01*
X010692Y006729D01*
X010692Y006732D02*
X010697Y006732D01*
X010694Y006732D02*
X010697Y006735D01*
X010697Y006736D01*
X010696Y006739D02*
X010697Y006740D01*
X010697Y006744D01*
X010694Y006742D02*
X010694Y006740D01*
X010696Y006739D01*
X010694Y006742D02*
X010693Y006744D01*
X010692Y006742D01*
X010692Y006739D01*
X010692Y006746D02*
X010700Y006751D01*
X010700Y006753D02*
X010700Y006757D01*
X010698Y006758D01*
X010697Y006758D01*
X010696Y006757D01*
X010696Y006753D01*
X010692Y006753D02*
X010700Y006753D01*
X010696Y006757D02*
X010694Y006758D01*
X010693Y006758D01*
X010692Y006757D01*
X010692Y006753D01*
X010692Y006760D02*
X010697Y006760D01*
X010694Y006760D02*
X010697Y006763D01*
X010697Y006764D01*
X010697Y006766D02*
X010697Y006768D01*
X010692Y006768D01*
X010692Y006769D02*
X010692Y006766D01*
X010693Y006771D02*
X010694Y006772D01*
X010694Y006776D01*
X010696Y006776D02*
X010692Y006776D01*
X010692Y006772D01*
X010693Y006771D01*
X010697Y006772D02*
X010697Y006775D01*
X010696Y006776D01*
X010697Y006778D02*
X010697Y006782D01*
X010696Y006784D01*
X010692Y006784D01*
X010692Y006786D02*
X010700Y006791D01*
X010700Y006793D02*
X010700Y006797D01*
X010698Y006798D01*
X010693Y006798D01*
X010692Y006797D01*
X010692Y006793D01*
X010700Y006793D01*
X010696Y006800D02*
X010693Y006800D01*
X010692Y006801D01*
X010692Y006804D01*
X010693Y006805D01*
X010696Y006805D01*
X010697Y006804D01*
X010697Y006801D01*
X010696Y006800D01*
X010696Y006807D02*
X010693Y006807D01*
X010692Y006809D01*
X010692Y006813D01*
X010693Y006815D02*
X010692Y006816D01*
X010692Y006820D01*
X010697Y006820D01*
X010697Y006822D02*
X010697Y006823D01*
X010696Y006825D01*
X010697Y006826D01*
X010696Y006827D01*
X010692Y006827D01*
X010693Y006829D02*
X010696Y006829D01*
X010697Y006830D01*
X010697Y006833D01*
X010696Y006834D01*
X010694Y006834D01*
X010694Y006829D01*
X010693Y006829D02*
X010692Y006830D01*
X010692Y006833D01*
X010692Y006836D02*
X010697Y006836D01*
X010697Y006840D01*
X010696Y006842D01*
X010692Y006842D01*
X010693Y006845D02*
X010692Y006846D01*
X010693Y006845D02*
X010698Y006845D01*
X010697Y006844D02*
X010697Y006846D01*
X010696Y006848D02*
X010697Y006850D01*
X010697Y006854D01*
X010694Y006852D02*
X010694Y006850D01*
X010696Y006848D01*
X010692Y006848D02*
X010692Y006852D01*
X010693Y006854D01*
X010694Y006852D01*
X010692Y006856D02*
X010700Y006861D01*
X010700Y006863D02*
X010697Y006866D01*
X010700Y006868D01*
X010692Y006868D01*
X010692Y006870D02*
X010700Y006870D01*
X010696Y006870D02*
X010696Y006875D01*
X010697Y006877D02*
X010693Y006877D01*
X010692Y006879D01*
X010692Y006883D01*
X010690Y006883D02*
X010689Y006881D01*
X010689Y006880D01*
X010690Y006883D02*
X010697Y006883D01*
X010697Y006885D02*
X010697Y006889D01*
X010696Y006890D01*
X010693Y006890D01*
X010692Y006889D01*
X010692Y006885D01*
X010700Y006885D01*
X010697Y006892D02*
X010692Y006892D01*
X010694Y006892D02*
X010697Y006895D01*
X010697Y006896D01*
X010697Y006898D02*
X010697Y006899D01*
X010692Y006899D01*
X010692Y006898D02*
X010692Y006901D01*
X010693Y006903D02*
X010696Y006903D01*
X010697Y006904D01*
X010697Y006908D01*
X010700Y006908D02*
X010692Y006908D01*
X010692Y006904D01*
X010693Y006903D01*
X010692Y006910D02*
X010700Y006915D01*
X010700Y006917D02*
X010697Y006920D01*
X010700Y006923D01*
X010692Y006923D01*
X010692Y006925D02*
X010692Y006926D01*
X010693Y006926D01*
X010693Y006925D01*
X010692Y006925D01*
X010692Y006928D02*
X010692Y006932D01*
X010693Y006933D01*
X010696Y006933D01*
X010697Y006932D01*
X010697Y006928D01*
X010700Y006928D02*
X010692Y006928D01*
X010692Y006935D02*
X010697Y006935D01*
X010697Y006937D01*
X010696Y006938D01*
X010697Y006939D01*
X010696Y006941D01*
X010692Y006941D01*
X010692Y006943D02*
X010692Y006947D01*
X010693Y006948D01*
X010696Y006948D01*
X010697Y006947D01*
X010697Y006943D01*
X010689Y006943D01*
X010692Y006938D02*
X010696Y006938D01*
X010692Y006917D02*
X010700Y006917D01*
X010701Y006899D02*
X010700Y006899D01*
X010700Y006875D02*
X010692Y006875D01*
X010692Y006863D02*
X010700Y006863D01*
X010696Y006825D02*
X010692Y006825D01*
X010692Y006822D02*
X010697Y006822D01*
X010697Y006815D02*
X010693Y006815D01*
X010697Y006813D02*
X010697Y006809D01*
X010696Y006807D01*
X010692Y006778D02*
X010697Y006778D01*
X010701Y006768D02*
X010700Y006768D01*
X010693Y006723D02*
X010694Y006722D01*
X010694Y006719D01*
X010696Y006718D01*
X010697Y006719D01*
X010692Y006718D02*
X010692Y006722D01*
X010693Y006723D01*
X010696Y006701D02*
X010696Y006700D01*
X010697Y006700D01*
X010697Y006701D01*
X010696Y006701D01*
X010698Y006698D02*
X010700Y006697D01*
X010700Y006694D01*
X010698Y006693D01*
X010693Y006693D01*
X010692Y006694D01*
D11*
X010875Y006636D02*
X011068Y006830D01*
X011117Y006830D01*
X011165Y006782D01*
X011165Y006685D01*
X011117Y006636D01*
X010875Y006636D02*
X010875Y006830D01*
X010923Y006931D02*
X011117Y007125D01*
X010923Y007125D01*
X010875Y007076D01*
X010875Y006979D01*
X010923Y006931D01*
X011117Y006931D01*
X011165Y006979D01*
X011165Y007076D01*
X011117Y007125D01*
X011068Y007226D02*
X011165Y007322D01*
X010875Y007322D01*
X010875Y007226D02*
X010875Y007419D01*
X010923Y007520D02*
X010875Y007569D01*
X010875Y007665D01*
X010923Y007714D01*
X011020Y007714D01*
X011068Y007665D01*
X011068Y007617D01*
X011020Y007520D01*
X011165Y007520D01*
X011165Y007714D01*
X011020Y006241D02*
X010875Y006241D01*
X011020Y006241D02*
X011068Y006192D01*
X011068Y006047D01*
X010875Y006047D01*
X010875Y005946D02*
X010875Y005801D01*
X010923Y005752D01*
X010972Y005801D01*
X010972Y005946D01*
X011020Y005946D02*
X010875Y005946D01*
X011020Y005946D02*
X011068Y005898D01*
X011068Y005801D01*
X010875Y005653D02*
X010875Y005556D01*
X010875Y005604D02*
X011068Y005604D01*
X011068Y005556D01*
X011068Y005455D02*
X011068Y005310D01*
X011020Y005261D01*
X010972Y005310D01*
X010972Y005406D01*
X010923Y005455D01*
X010875Y005406D01*
X010875Y005261D01*
X010923Y005160D02*
X011020Y005160D01*
X011068Y005112D01*
X011068Y005015D01*
X011020Y004967D01*
X010923Y004967D01*
X010875Y005015D01*
X010875Y005112D01*
X010923Y005160D01*
X010875Y004866D02*
X010875Y004720D01*
X010923Y004672D01*
X011020Y004672D01*
X011068Y004720D01*
X011068Y004866D01*
X010827Y004866D01*
X010778Y004817D01*
X010778Y004769D01*
X011068Y004572D02*
X011068Y004523D01*
X010972Y004427D01*
X011068Y004427D02*
X010875Y004427D01*
X010875Y004325D02*
X010875Y004180D01*
X010923Y004132D01*
X010972Y004180D01*
X010972Y004325D01*
X011020Y004325D02*
X010875Y004325D01*
X011020Y004325D02*
X011068Y004277D01*
X011068Y004180D01*
X011165Y004031D02*
X010875Y004031D01*
X011068Y003934D02*
X011165Y004031D01*
X011068Y003934D02*
X011165Y003837D01*
X010875Y003837D01*
X010875Y003441D02*
X011020Y003441D01*
X011068Y003393D01*
X011068Y003248D01*
X010875Y003248D01*
X010875Y003147D02*
X010875Y003002D01*
X010923Y002953D01*
X010972Y003002D01*
X010972Y003147D01*
X011020Y003147D02*
X010875Y003147D01*
X011020Y003147D02*
X011068Y003098D01*
X011068Y003002D01*
X011068Y002805D02*
X010875Y002805D01*
X010875Y002757D02*
X010875Y002854D01*
X011068Y002805D02*
X011068Y002757D01*
X011068Y002656D02*
X011068Y002608D01*
X010972Y002511D01*
X011068Y002511D02*
X010875Y002511D01*
X010923Y002410D02*
X010875Y002362D01*
X010875Y002217D01*
X011165Y002217D01*
X011165Y002362D01*
X011117Y002410D01*
X011068Y002410D01*
X011020Y002362D01*
X011020Y002217D01*
X011020Y002362D02*
X010972Y002410D01*
X010923Y002410D01*
X011165Y002805D02*
X011214Y002805D01*
X011214Y005604D02*
X011165Y005604D01*
D12*
X008630Y005200D02*
X007480Y005200D01*
X004930Y007750D01*
X003680Y007750D01*
X002930Y008500D01*
X002930Y009000D01*
X002780Y009150D01*
X000730Y009100D02*
X000680Y009050D01*
X000680Y007750D01*
X001030Y007400D01*
X002830Y007400D01*
X004530Y005700D01*
X004530Y002150D01*
X004080Y001700D01*
X004080Y001050D01*
X002530Y001800D02*
X005630Y001800D01*
X005780Y001950D01*
X007580Y001950D01*
X008130Y002500D01*
X002530Y001800D02*
X001930Y001200D01*
X001930Y001050D01*
D13*
X007262Y001672D02*
X007262Y001745D01*
X007262Y001672D02*
X007299Y001635D01*
X007335Y001672D01*
X007335Y001745D01*
X007373Y001745D02*
X007446Y001745D01*
X007446Y001690D01*
X007409Y001708D01*
X007391Y001708D01*
X007373Y001690D01*
X007373Y001653D01*
X007391Y001635D01*
X007428Y001635D01*
X007446Y001653D01*
X004556Y007935D02*
X004501Y007935D01*
X004483Y007953D01*
X004483Y008027D01*
X004501Y008045D01*
X004556Y008045D01*
X004556Y007935D01*
X004446Y007935D02*
X004373Y007935D01*
X004409Y007935D02*
X004409Y008045D01*
X004446Y008008D01*
X004335Y008027D02*
X004317Y008045D01*
X004280Y008045D01*
X004262Y008027D01*
X004335Y007953D01*
X004317Y007935D01*
X004280Y007935D01*
X004262Y007953D01*
X004262Y008027D01*
X004335Y008027D02*
X004335Y007953D01*
X000545Y008023D02*
X000527Y008005D01*
X000453Y008005D01*
X000435Y008023D01*
X000435Y008060D01*
X000453Y008078D01*
X000490Y008078D01*
X000490Y008042D01*
X000527Y008078D02*
X000545Y008060D01*
X000545Y008023D01*
X000545Y008115D02*
X000435Y008115D01*
X000435Y008189D02*
X000545Y008189D01*
X000545Y008226D02*
X000545Y008281D01*
X000527Y008299D01*
X000453Y008299D01*
X000435Y008281D01*
X000435Y008226D01*
X000545Y008226D01*
X000545Y008115D02*
X000435Y008189D01*
D14*
X001156Y006152D02*
X003204Y006152D01*
X003204Y002648D01*
X001156Y002648D01*
X001156Y006152D01*
D15*
X001540Y003002D03*
D16*
X001585Y002480D02*
X001278Y002480D01*
X001432Y002250D02*
X001585Y002250D01*
X001738Y002250D02*
X001738Y002097D01*
X001815Y002020D01*
X001969Y002020D01*
X002045Y002097D01*
X002045Y002404D01*
X001969Y002480D01*
X001815Y002480D01*
X001738Y002404D01*
X001585Y002480D02*
X001585Y002020D01*
X001278Y002020D01*
X001738Y002250D02*
X001892Y002250D01*
X002199Y002097D02*
X002199Y002404D01*
X002276Y002480D01*
X002506Y002480D01*
X002506Y002020D01*
X002276Y002020D01*
X002199Y002097D01*
X002659Y002097D02*
X002736Y002020D01*
X002966Y002020D01*
X002966Y002480D01*
X002736Y002480D01*
X002659Y002404D01*
X002659Y002327D01*
X002736Y002250D01*
X002966Y002250D01*
X003120Y002250D02*
X003427Y002250D01*
X003580Y002250D02*
X003887Y002250D01*
X003887Y002020D02*
X003887Y002480D01*
X003580Y002480D02*
X003580Y002020D01*
X002736Y002250D02*
X002659Y002173D01*
X002659Y002097D01*
D17*
X008444Y003952D03*
X008826Y004228D03*
X008826Y005980D03*
X008822Y005980D03*
X008432Y006263D03*
X010680Y006251D03*
D18*
X009274Y005104D03*
X008834Y005978D03*
X008830Y005978D03*
X008436Y006261D03*
X008830Y004230D03*
X008834Y004230D03*
X008452Y003954D03*
X008448Y003954D03*
X009944Y003954D03*
X009948Y003954D03*
X009952Y003954D03*
X009956Y003954D03*
X009960Y003954D03*
X009963Y003954D03*
X009967Y003954D03*
X009971Y003954D03*
X009975Y003954D03*
X009979Y003954D03*
X009983Y003954D03*
X009987Y003954D03*
X009991Y003954D03*
X009995Y003954D03*
X009999Y003954D03*
X010003Y003954D03*
X010007Y003954D03*
X010011Y003954D03*
X010015Y003954D03*
X010019Y003954D03*
X010023Y003954D03*
X010026Y003954D03*
X010030Y003954D03*
X010034Y003954D03*
X010038Y003954D03*
X010042Y003954D03*
X010046Y003954D03*
X010050Y003954D03*
X010054Y003954D03*
X010058Y003954D03*
X010062Y003954D03*
X010066Y003954D03*
X010070Y003954D03*
X010074Y003954D03*
X010078Y003954D03*
X010082Y003954D03*
X010086Y003954D03*
X010089Y003954D03*
X010093Y003954D03*
X010097Y003954D03*
X010101Y003954D03*
X010105Y003954D03*
X010109Y003954D03*
X010113Y003954D03*
X010117Y003954D03*
X010121Y003954D03*
X010125Y003954D03*
X010129Y003954D03*
X010133Y003954D03*
X010137Y003954D03*
X010141Y003954D03*
X010145Y003954D03*
X010149Y003954D03*
X010152Y003954D03*
X010156Y003954D03*
X010160Y003954D03*
X010164Y003954D03*
X010168Y003954D03*
X010172Y003954D03*
X010176Y003954D03*
X010180Y003954D03*
X010184Y003954D03*
X010188Y003954D03*
X010192Y003954D03*
X010196Y003954D03*
X010200Y003954D03*
X010204Y003954D03*
X010208Y003954D03*
X010211Y003954D03*
X010215Y003954D03*
X010219Y003954D03*
X010223Y003954D03*
X010227Y003954D03*
X010231Y003954D03*
X010235Y003954D03*
X010239Y003954D03*
X010243Y003954D03*
X010247Y003954D03*
X010251Y003954D03*
X010255Y003954D03*
X010259Y003954D03*
X010263Y003954D03*
X010267Y003954D03*
X010271Y003954D03*
X010274Y003954D03*
X010278Y003954D03*
X010282Y003954D03*
X010286Y003954D03*
X010290Y003954D03*
X010294Y003954D03*
X010298Y003954D03*
X010302Y003954D03*
X010306Y003954D03*
X010310Y003954D03*
X010314Y003954D03*
X010318Y003954D03*
X010322Y003954D03*
X010326Y003954D03*
X010330Y003954D03*
X010334Y003954D03*
X010337Y003954D03*
X010341Y003954D03*
X010345Y003954D03*
X010349Y003954D03*
X010353Y003954D03*
X010357Y003954D03*
X010361Y003954D03*
X010365Y003954D03*
X010369Y003954D03*
X010373Y003954D03*
X010377Y003954D03*
X010381Y003954D03*
X010385Y003954D03*
X010389Y003954D03*
X010393Y003954D03*
X010397Y003954D03*
X010400Y003954D03*
X010404Y003954D03*
X010408Y003954D03*
X010412Y003954D03*
X010416Y003954D03*
X010420Y003954D03*
X010424Y003954D03*
X010428Y003954D03*
X010432Y003954D03*
X010436Y003954D03*
X010440Y003954D03*
X010444Y003954D03*
X010448Y003954D03*
X010452Y003954D03*
X010456Y003954D03*
X010460Y003954D03*
X010463Y003954D03*
X010467Y003954D03*
X010471Y003954D03*
X010475Y003954D03*
X010479Y003954D03*
X010483Y003954D03*
X010487Y003954D03*
X010491Y003954D03*
X010495Y003954D03*
X010499Y003954D03*
X010503Y003954D03*
X010507Y003954D03*
X010511Y003954D03*
X010515Y003954D03*
X010519Y003954D03*
X010523Y003954D03*
X010526Y003954D03*
X010530Y003954D03*
X010534Y003954D03*
X010538Y003954D03*
X010542Y003954D03*
X010546Y003954D03*
X010550Y003954D03*
X010554Y003954D03*
X010558Y003954D03*
X010562Y003954D03*
X010566Y003954D03*
X010570Y003954D03*
X010574Y003954D03*
X010578Y003954D03*
X010582Y003954D03*
X010586Y003954D03*
X010589Y003954D03*
X010593Y003954D03*
X010597Y003954D03*
X010601Y003954D03*
X010605Y003954D03*
X010609Y003954D03*
X010613Y003954D03*
X010617Y003954D03*
X010621Y003954D03*
X010625Y003954D03*
X010629Y003954D03*
X010633Y003954D03*
X010637Y003954D03*
X010641Y003954D03*
X010645Y003954D03*
X010649Y003954D03*
X010652Y003954D03*
X010656Y003954D03*
X010660Y003954D03*
X010664Y003954D03*
X010668Y003954D03*
X010672Y003954D03*
X010676Y003954D03*
X010680Y003954D03*
D19*
X008849Y004235D03*
X008845Y004235D03*
X008467Y003960D03*
X008845Y005972D03*
X008456Y006255D03*
X008452Y006255D03*
X009956Y006255D03*
X009960Y006255D03*
X009963Y006255D03*
X009967Y006255D03*
X009971Y006255D03*
X009975Y006255D03*
X009979Y006255D03*
X009983Y006255D03*
X009987Y006255D03*
X009991Y006255D03*
X009995Y006255D03*
X009999Y006255D03*
X010003Y006255D03*
X010007Y006255D03*
X010011Y006255D03*
X010015Y006255D03*
X010019Y006255D03*
X010023Y006255D03*
X010026Y006255D03*
X010030Y006255D03*
X010034Y006255D03*
X010038Y006255D03*
X010042Y006255D03*
X010046Y006255D03*
X010050Y006255D03*
X010054Y006255D03*
X010058Y006255D03*
X010062Y006255D03*
X010066Y006255D03*
X010070Y006255D03*
X010074Y006255D03*
X010078Y006255D03*
X010082Y006255D03*
X010086Y006255D03*
X010089Y006255D03*
X010093Y006255D03*
X010097Y006255D03*
X010101Y006255D03*
X010105Y006255D03*
X010109Y006255D03*
X010113Y006255D03*
X010117Y006255D03*
X010121Y006255D03*
X010125Y006255D03*
X010129Y006255D03*
X010133Y006255D03*
X010137Y006255D03*
X010141Y006255D03*
X010145Y006255D03*
X010149Y006255D03*
X010152Y006255D03*
X010156Y006255D03*
X010160Y006255D03*
X010164Y006255D03*
X010168Y006255D03*
X010172Y006255D03*
X010176Y006255D03*
X010180Y006255D03*
X010184Y006255D03*
X010188Y006255D03*
X010192Y006255D03*
X010196Y006255D03*
X010200Y006255D03*
X010204Y006255D03*
X010208Y006255D03*
X010211Y006255D03*
X010215Y006255D03*
X010219Y006255D03*
X010223Y006255D03*
X010227Y006255D03*
X010231Y006255D03*
X010235Y006255D03*
X010239Y006255D03*
X010243Y006255D03*
X010247Y006255D03*
X010251Y006255D03*
X010255Y006255D03*
X010259Y006255D03*
X010263Y006255D03*
X010267Y006255D03*
X010271Y006255D03*
X010274Y006255D03*
X010278Y006255D03*
X010282Y006255D03*
X010286Y006255D03*
X010290Y006255D03*
X010294Y006255D03*
X010298Y006255D03*
X010302Y006255D03*
X010306Y006255D03*
X010310Y006255D03*
X010314Y006255D03*
X010318Y006255D03*
X010322Y006255D03*
X010326Y006255D03*
X010330Y006255D03*
X010334Y006255D03*
X010337Y006255D03*
X010341Y006255D03*
X010345Y006255D03*
X010349Y006255D03*
X010353Y006255D03*
X010357Y006255D03*
X010361Y006255D03*
X010365Y006255D03*
X010369Y006255D03*
X010373Y006255D03*
X010377Y006255D03*
X010381Y006255D03*
X010385Y006255D03*
X010389Y006255D03*
X010393Y006255D03*
X010397Y006255D03*
X010400Y006255D03*
X010404Y006255D03*
X010408Y006255D03*
X010412Y006255D03*
X010416Y006255D03*
X010420Y006255D03*
X010424Y006255D03*
X010428Y006255D03*
X010432Y006255D03*
X010436Y006255D03*
X010440Y006255D03*
X010444Y006255D03*
X010448Y006255D03*
X010452Y006255D03*
X010456Y006255D03*
X010460Y006255D03*
X010463Y006255D03*
X010467Y006255D03*
X010471Y006255D03*
X010475Y006255D03*
X010479Y006255D03*
X010483Y006255D03*
X010487Y006255D03*
X010491Y006255D03*
X010495Y006255D03*
X010499Y006255D03*
X010503Y006255D03*
X010507Y006255D03*
X010511Y006255D03*
X010515Y006255D03*
X010519Y006255D03*
X010523Y006255D03*
X010526Y006255D03*
X010530Y006255D03*
X010534Y006255D03*
X010538Y006255D03*
X010542Y006255D03*
X010546Y006255D03*
X010550Y006255D03*
X010554Y006255D03*
X010558Y006255D03*
X010562Y006255D03*
X010566Y006255D03*
X010570Y006255D03*
X010574Y006255D03*
X010578Y006255D03*
X010582Y006255D03*
X010586Y006255D03*
X010589Y006255D03*
X010593Y006255D03*
X010597Y006255D03*
X010601Y006255D03*
X010605Y006255D03*
X010609Y006255D03*
X010613Y006255D03*
X010617Y006255D03*
X010621Y006255D03*
X010625Y006255D03*
X010629Y006255D03*
X010633Y006255D03*
X010637Y006255D03*
X010641Y006255D03*
X010645Y006255D03*
X010649Y006255D03*
X010652Y006255D03*
X010656Y006255D03*
X010660Y006255D03*
X010664Y006255D03*
X010668Y006255D03*
X010672Y006255D03*
X010676Y006255D03*
D20*
X009940Y006950D03*
X008778Y006950D03*
X008038Y006950D03*
X010211Y005107D03*
D21*
X010208Y005107D03*
D22*
X010204Y005107D03*
D23*
X010200Y005107D03*
D24*
X010196Y005107D03*
D25*
X010192Y005106D03*
D26*
X010188Y005107D03*
D27*
X010184Y005106D03*
D28*
X010180Y005107D03*
D29*
X010176Y005107D03*
D30*
X010172Y005107D03*
X010168Y005107D03*
D31*
X010164Y005107D03*
X010160Y005107D03*
D32*
X010156Y005107D03*
D33*
X010152Y005109D03*
D34*
X010149Y005107D03*
D35*
X010145Y005107D03*
D36*
X010141Y005107D03*
X010137Y005107D03*
D37*
X010133Y005107D03*
D38*
X010129Y005107D03*
D39*
X010125Y005106D03*
D40*
X010121Y005107D03*
D41*
X010117Y005107D03*
D42*
X010113Y005107D03*
D43*
X010109Y005107D03*
D44*
X010105Y005106D03*
D45*
X010101Y005107D03*
D46*
X010097Y005107D03*
D47*
X010093Y005106D03*
D48*
X010089Y005106D03*
D49*
X010086Y005107D03*
D50*
X010082Y005107D03*
D51*
X010078Y005106D03*
X008778Y003385D03*
D52*
X010074Y005106D03*
D53*
X010070Y005107D03*
D54*
X010066Y005107D03*
X010062Y005107D03*
D55*
X010058Y005107D03*
X009940Y003399D03*
D56*
X010054Y005107D03*
D57*
X010050Y005107D03*
X010046Y005107D03*
X009940Y006812D03*
D58*
X010042Y005107D03*
D59*
X010038Y005106D03*
D60*
X010034Y005106D03*
D61*
X010030Y005106D03*
D62*
X010026Y005107D03*
D63*
X010023Y005107D03*
D64*
X010019Y005106D03*
D65*
X010015Y005107D03*
D66*
X010011Y005107D03*
D67*
X010007Y005106D03*
D68*
X010003Y005106D03*
D69*
X009999Y005107D03*
D70*
X009995Y005106D03*
D71*
X009991Y005106D03*
D72*
X009987Y005106D03*
D73*
X009983Y005107D03*
D74*
X009979Y005106D03*
D75*
X009975Y005106D03*
D76*
X009971Y005106D03*
D77*
X009967Y005106D03*
X009963Y005106D03*
D78*
X009960Y005106D03*
D79*
X009956Y005106D03*
X009952Y005106D03*
D80*
X009267Y005104D03*
X008841Y005974D03*
X008448Y006257D03*
X009944Y006257D03*
X009948Y006257D03*
X009952Y006257D03*
X008841Y004233D03*
X008463Y003958D03*
X008460Y003958D03*
D81*
X009948Y005106D03*
D82*
X009944Y005106D03*
D83*
X009460Y005106D03*
X009940Y006125D03*
X008062Y006397D03*
X008074Y003818D03*
D84*
X009940Y005106D03*
D85*
X009940Y004495D03*
D86*
X009940Y003942D03*
D87*
X009940Y003267D03*
X008778Y003267D03*
D88*
X009660Y005106D03*
X009936Y006263D03*
X009192Y006263D03*
D89*
X009936Y005107D03*
D90*
X009936Y003942D03*
D91*
X009932Y003942D03*
X009928Y003942D03*
X009924Y003942D03*
X009920Y003942D03*
X009916Y003942D03*
X009912Y003942D03*
X009908Y003942D03*
X009904Y003942D03*
X009900Y003942D03*
X009897Y003942D03*
X009893Y003942D03*
X009889Y003942D03*
X009885Y003942D03*
X009881Y003942D03*
X009877Y003942D03*
X009873Y003942D03*
X009869Y003942D03*
X009865Y003942D03*
X009861Y003942D03*
X009857Y003942D03*
X009853Y003942D03*
X009849Y003942D03*
X009845Y003942D03*
X009841Y003942D03*
X009837Y003942D03*
X009834Y003942D03*
X009830Y003942D03*
X009826Y003942D03*
X009822Y003942D03*
X009818Y003942D03*
X009814Y003942D03*
X009810Y003942D03*
X009806Y003942D03*
X009802Y003942D03*
X009798Y003942D03*
X009794Y003942D03*
X009790Y003942D03*
X009786Y003942D03*
X009782Y003942D03*
X009778Y003942D03*
X009774Y003942D03*
X009771Y003942D03*
X009767Y003942D03*
X009763Y003942D03*
X009759Y003942D03*
X009755Y003942D03*
X009751Y003942D03*
X009747Y003942D03*
X009743Y003942D03*
X009739Y003942D03*
X009735Y003942D03*
X009731Y003942D03*
X009727Y003942D03*
X009723Y003942D03*
X009719Y003942D03*
X009715Y003942D03*
X009711Y003942D03*
X009708Y003942D03*
X009704Y003942D03*
X009700Y003942D03*
X009696Y003942D03*
X009692Y003942D03*
X009688Y003942D03*
X009684Y003942D03*
X009680Y003942D03*
X009676Y003942D03*
X009672Y003942D03*
X009668Y003942D03*
X009664Y003942D03*
X009660Y003942D03*
X009656Y003942D03*
X009652Y003942D03*
X009649Y003942D03*
X009645Y003942D03*
X009641Y003942D03*
X009637Y003942D03*
X009633Y003942D03*
X009629Y003942D03*
X009625Y003942D03*
X009621Y003942D03*
X009617Y003942D03*
X009613Y003942D03*
X009609Y003942D03*
X009605Y003942D03*
X009601Y003942D03*
X009597Y003942D03*
X009593Y003942D03*
X009589Y003942D03*
X009586Y003942D03*
X009582Y003942D03*
X009578Y003942D03*
X009574Y003942D03*
X009570Y003942D03*
X009566Y003942D03*
X009562Y003942D03*
X009558Y003942D03*
X009554Y003942D03*
X009550Y003942D03*
X009546Y003942D03*
X009542Y003942D03*
X009538Y003942D03*
X009534Y003942D03*
X009530Y003942D03*
X009526Y003942D03*
X009523Y003942D03*
X009519Y003942D03*
X009515Y003942D03*
X009511Y003942D03*
X009507Y003942D03*
X009503Y003942D03*
X009499Y003942D03*
X009495Y003942D03*
X009491Y003942D03*
X009487Y003942D03*
X009483Y003942D03*
X009479Y003942D03*
X009475Y003942D03*
X009471Y003942D03*
X009467Y003942D03*
X009463Y003942D03*
X009460Y003942D03*
X009456Y003942D03*
X009452Y003942D03*
X009448Y003942D03*
X009444Y003942D03*
X009440Y003942D03*
X009436Y003942D03*
X009432Y003942D03*
X009428Y003942D03*
X009424Y003942D03*
X009420Y003942D03*
X009416Y003942D03*
X009412Y003942D03*
X009408Y003942D03*
X009404Y003942D03*
X009400Y003942D03*
X009397Y003942D03*
X009393Y003942D03*
X009389Y003942D03*
X009385Y003942D03*
X009381Y003942D03*
X009377Y003942D03*
X009373Y003942D03*
X009369Y003942D03*
X009365Y003942D03*
X009361Y003942D03*
X009357Y003942D03*
X009353Y003942D03*
X009349Y003942D03*
X009345Y003942D03*
X009341Y003942D03*
X009337Y003942D03*
X009334Y003942D03*
X009330Y003942D03*
X009326Y003942D03*
X009322Y003942D03*
X009318Y003942D03*
X009314Y003942D03*
X009310Y003942D03*
X009306Y003942D03*
X009302Y003942D03*
X009298Y003942D03*
X009294Y003942D03*
X009290Y003942D03*
X009286Y003942D03*
X009282Y003942D03*
X009278Y003942D03*
X009274Y003942D03*
X009271Y003942D03*
X009267Y003942D03*
X009263Y003942D03*
X009259Y003942D03*
X009255Y003942D03*
X009251Y003942D03*
X009247Y003942D03*
X009243Y003942D03*
X009239Y003942D03*
X009235Y003942D03*
X009231Y003942D03*
X009227Y003942D03*
X009223Y003942D03*
X009219Y003942D03*
X009215Y003942D03*
X009211Y003942D03*
X009208Y003942D03*
X009204Y003942D03*
X009200Y003942D03*
X009196Y003942D03*
X009192Y003942D03*
X009664Y005104D03*
X009664Y006265D03*
X009660Y006265D03*
X009656Y006265D03*
X009652Y006265D03*
X009649Y006265D03*
X009645Y006265D03*
X009641Y006265D03*
X009637Y006265D03*
X009633Y006265D03*
X009629Y006265D03*
X009625Y006265D03*
X009621Y006265D03*
X009617Y006265D03*
X009613Y006265D03*
X009609Y006265D03*
X009605Y006265D03*
X009601Y006265D03*
X009597Y006265D03*
X009593Y006265D03*
X009589Y006265D03*
X009586Y006265D03*
X009582Y006265D03*
X009578Y006265D03*
X009574Y006265D03*
X009570Y006265D03*
X009566Y006265D03*
X009562Y006265D03*
X009558Y006265D03*
X009554Y006265D03*
X009550Y006265D03*
X009546Y006265D03*
X009542Y006265D03*
X009538Y006265D03*
X009534Y006265D03*
X009530Y006265D03*
X009526Y006265D03*
X009523Y006265D03*
X009519Y006265D03*
X009515Y006265D03*
X009511Y006265D03*
X009507Y006265D03*
X009503Y006265D03*
X009499Y006265D03*
X009495Y006265D03*
X009491Y006265D03*
X009487Y006265D03*
X009483Y006265D03*
X009479Y006265D03*
X009475Y006265D03*
X009471Y006265D03*
X009467Y006265D03*
X009463Y006265D03*
X009460Y006265D03*
X009456Y006265D03*
X009452Y006265D03*
X009448Y006265D03*
X009444Y006265D03*
X009440Y006265D03*
X009436Y006265D03*
X009432Y006265D03*
X009428Y006265D03*
X009424Y006265D03*
X009420Y006265D03*
X009416Y006265D03*
X009412Y006265D03*
X009408Y006265D03*
X009404Y006265D03*
X009400Y006265D03*
X009397Y006265D03*
X009393Y006265D03*
X009389Y006265D03*
X009385Y006265D03*
X009381Y006265D03*
X009377Y006265D03*
X009373Y006265D03*
X009369Y006265D03*
X009365Y006265D03*
X009361Y006265D03*
X009357Y006265D03*
X009353Y006265D03*
X009349Y006265D03*
X009345Y006265D03*
X009341Y006265D03*
X009337Y006265D03*
X009334Y006265D03*
X009330Y006265D03*
X009326Y006265D03*
X009322Y006265D03*
X009318Y006265D03*
X009314Y006265D03*
X009310Y006265D03*
X009306Y006265D03*
X009302Y006265D03*
X009298Y006265D03*
X009294Y006265D03*
X009290Y006265D03*
X009286Y006265D03*
X009282Y006265D03*
X009278Y006265D03*
X009274Y006265D03*
X009271Y006265D03*
X009267Y006265D03*
X009263Y006265D03*
X009259Y006265D03*
X009255Y006265D03*
X009251Y006265D03*
X009247Y006265D03*
X009243Y006265D03*
X009239Y006265D03*
X009235Y006265D03*
X009231Y006265D03*
X009227Y006265D03*
X009223Y006265D03*
X009219Y006265D03*
X009215Y006265D03*
X009211Y006265D03*
X009208Y006265D03*
X009204Y006265D03*
X009200Y006265D03*
X009196Y006265D03*
X009668Y006265D03*
X009672Y006265D03*
X009676Y006265D03*
X009680Y006265D03*
X009684Y006265D03*
X009688Y006265D03*
X009692Y006265D03*
X009696Y006265D03*
X009700Y006265D03*
X009704Y006265D03*
X009708Y006265D03*
X009711Y006265D03*
X009715Y006265D03*
X009719Y006265D03*
X009723Y006265D03*
X009727Y006265D03*
X009731Y006265D03*
X009735Y006265D03*
X009739Y006265D03*
X009743Y006265D03*
X009747Y006265D03*
X009751Y006265D03*
X009755Y006265D03*
X009759Y006265D03*
X009763Y006265D03*
X009767Y006265D03*
X009771Y006265D03*
X009774Y006265D03*
X009778Y006265D03*
X009782Y006265D03*
X009786Y006265D03*
X009790Y006265D03*
X009794Y006265D03*
X009798Y006265D03*
X009802Y006265D03*
X009806Y006265D03*
X009810Y006265D03*
X009814Y006265D03*
X009818Y006265D03*
X009822Y006265D03*
X009826Y006265D03*
X009830Y006265D03*
X009834Y006265D03*
X009837Y006265D03*
X009841Y006265D03*
X009845Y006265D03*
X009849Y006265D03*
X009853Y006265D03*
X009857Y006265D03*
X009861Y006265D03*
X009865Y006265D03*
X009869Y006265D03*
X009873Y006265D03*
X009877Y006265D03*
X009881Y006265D03*
X009885Y006265D03*
X009889Y006265D03*
X009893Y006265D03*
X009897Y006265D03*
X009900Y006265D03*
X009904Y006265D03*
X009908Y006265D03*
X009912Y006265D03*
X009916Y006265D03*
X009920Y006265D03*
X009924Y006265D03*
X009932Y006265D03*
D92*
X009932Y005106D03*
D93*
X009668Y005106D03*
X009928Y006263D03*
D94*
X009928Y005104D03*
D95*
X009924Y005107D03*
D96*
X009920Y005106D03*
D97*
X009916Y005107D03*
D98*
X009912Y005107D03*
D99*
X009908Y005106D03*
X009904Y005106D03*
D100*
X009900Y005106D03*
D101*
X009897Y005107D03*
D102*
X009893Y005107D03*
D103*
X009889Y005106D03*
D104*
X009885Y005106D03*
D105*
X009881Y005107D03*
D106*
X009877Y005106D03*
D107*
X009873Y005106D03*
D108*
X009869Y005106D03*
D109*
X009865Y005104D03*
D110*
X009861Y005106D03*
D111*
X009857Y005106D03*
D112*
X009853Y005107D03*
D113*
X009849Y005106D03*
D114*
X009845Y005106D03*
D115*
X009841Y005106D03*
D116*
X009837Y005107D03*
D117*
X009834Y005106D03*
D118*
X009830Y005106D03*
D119*
X009826Y005106D03*
D120*
X009822Y005106D03*
X009818Y005106D03*
D121*
X009814Y005106D03*
D122*
X009810Y005107D03*
D123*
X009806Y005107D03*
D124*
X009802Y005106D03*
D125*
X009798Y005106D03*
D126*
X009794Y005104D03*
D127*
X009790Y005106D03*
D128*
X009786Y005104D03*
D129*
X009782Y005106D03*
D130*
X009778Y005106D03*
D131*
X009774Y005104D03*
D132*
X009771Y005106D03*
D133*
X009767Y005106D03*
D134*
X009763Y005104D03*
D135*
X009759Y005106D03*
D136*
X009755Y005104D03*
D137*
X009751Y005104D03*
D138*
X009747Y005106D03*
D139*
X009743Y005106D03*
D140*
X009739Y005106D03*
D141*
X009735Y005106D03*
D142*
X009731Y005104D03*
D143*
X009727Y005106D03*
D144*
X009723Y005106D03*
D145*
X009719Y005106D03*
X009715Y005106D03*
D146*
X009711Y005106D03*
D147*
X009708Y005106D03*
D148*
X009704Y005104D03*
D149*
X009700Y005104D03*
D150*
X009696Y005106D03*
D151*
X009692Y005106D03*
D152*
X009688Y005104D03*
D153*
X009684Y005106D03*
D154*
X009680Y005106D03*
D155*
X009676Y005104D03*
D156*
X009672Y005104D03*
D157*
X009656Y005106D03*
D158*
X009652Y005106D03*
D159*
X009649Y005106D03*
D160*
X009645Y005104D03*
D161*
X009641Y005106D03*
D162*
X009637Y005106D03*
D163*
X009633Y005104D03*
D164*
X009629Y005106D03*
D165*
X009625Y005106D03*
D166*
X009621Y005106D03*
D167*
X009617Y005106D03*
X009613Y005106D03*
D168*
X009609Y005106D03*
D169*
X009605Y005104D03*
D170*
X009601Y005104D03*
D171*
X009597Y005106D03*
D172*
X009593Y005106D03*
D173*
X009589Y005104D03*
D174*
X009586Y005106D03*
D175*
X009582Y005106D03*
D176*
X009578Y005106D03*
D177*
X009574Y005104D03*
D178*
X009570Y005106D03*
D179*
X009566Y005104D03*
D180*
X009562Y005104D03*
D181*
X009558Y005104D03*
D182*
X009554Y005106D03*
X009550Y005106D03*
D183*
X009546Y005104D03*
D184*
X009542Y005104D03*
X009538Y005104D03*
D185*
X009534Y005104D03*
D186*
X009530Y005104D03*
D187*
X009526Y005104D03*
D188*
X009523Y005106D03*
D189*
X009519Y005104D03*
D190*
X009515Y005104D03*
D191*
X009511Y005106D03*
D192*
X009507Y005106D03*
D193*
X009503Y005104D03*
D194*
X009499Y005104D03*
D195*
X009495Y005106D03*
D196*
X009491Y005104D03*
D197*
X009487Y005104D03*
D198*
X009483Y005104D03*
D199*
X009479Y005104D03*
D200*
X009475Y005102D03*
X008046Y003806D03*
X008042Y003806D03*
X008038Y003806D03*
X008038Y006401D03*
D201*
X008042Y006405D03*
X009471Y005106D03*
X008054Y003810D03*
D202*
X008058Y003812D03*
X009467Y005104D03*
X008046Y006403D03*
D203*
X008054Y006399D03*
X008058Y006399D03*
X009463Y005104D03*
X008070Y003816D03*
X008066Y003816D03*
D204*
X008078Y003820D03*
X008082Y003820D03*
X009456Y005104D03*
X008066Y006395D03*
D205*
X008078Y006391D03*
X009452Y005104D03*
X008093Y003824D03*
X008089Y003824D03*
D206*
X008097Y003826D03*
X009448Y005106D03*
X008082Y006389D03*
D207*
X008086Y006387D03*
X009444Y005104D03*
X008105Y003828D03*
X008101Y003828D03*
D208*
X008113Y003832D03*
X009440Y005104D03*
X008101Y006383D03*
D209*
X008109Y006379D03*
X009432Y005104D03*
X009436Y005104D03*
X008125Y003836D03*
D210*
X008133Y003840D03*
X009428Y005104D03*
X008121Y006375D03*
D211*
X008133Y006371D03*
X008137Y006371D03*
X009424Y005104D03*
X008145Y003844D03*
D212*
X008152Y003848D03*
X008156Y003848D03*
X008160Y003848D03*
X009420Y005104D03*
X008145Y006367D03*
D213*
X008149Y006365D03*
X008152Y006365D03*
X009416Y005106D03*
D214*
X009412Y005104D03*
X008168Y003852D03*
X008164Y003852D03*
X008156Y006363D03*
D215*
X008168Y006359D03*
X009408Y005104D03*
X008180Y003856D03*
X008176Y003856D03*
D216*
X008188Y003859D03*
X009400Y005104D03*
X009404Y005104D03*
X008176Y006356D03*
D217*
X008188Y006352D03*
X009397Y005104D03*
X008200Y003863D03*
D218*
X008211Y003867D03*
X009393Y005104D03*
X008200Y006348D03*
X008196Y006348D03*
D219*
X008208Y006344D03*
X008211Y006344D03*
X009385Y005104D03*
X009389Y005104D03*
X008223Y003871D03*
D220*
X008235Y003875D03*
X009381Y005104D03*
X008219Y006340D03*
D221*
X008231Y006336D03*
X008235Y006336D03*
X009377Y005104D03*
X008243Y003879D03*
D222*
X008251Y003883D03*
X008255Y003883D03*
X009369Y005104D03*
X009373Y005104D03*
D223*
X009365Y005104D03*
X008263Y003887D03*
X008255Y006328D03*
X008251Y006328D03*
D224*
X008259Y006326D03*
X009361Y005106D03*
X008271Y003889D03*
X008267Y003889D03*
D225*
X008286Y003895D03*
X009353Y005104D03*
X009357Y005104D03*
X008274Y006320D03*
D226*
X008282Y006316D03*
X008286Y006316D03*
X009349Y005104D03*
X008298Y003899D03*
D227*
X008302Y003901D03*
X009345Y005102D03*
X008294Y006314D03*
X008290Y006314D03*
D228*
X008298Y006312D03*
X009341Y005104D03*
X008310Y003903D03*
X008306Y003903D03*
D229*
X008318Y003907D03*
X008322Y003907D03*
X009337Y005104D03*
X008306Y006308D03*
D230*
X008318Y006304D03*
X009334Y005104D03*
X008334Y003911D03*
X008330Y003911D03*
D231*
X008341Y003915D03*
X009326Y005104D03*
X009330Y005104D03*
X008330Y006300D03*
D232*
X008341Y006296D03*
X009322Y005104D03*
X008349Y003919D03*
D233*
X008361Y003922D03*
X009314Y005104D03*
X009318Y005104D03*
X008349Y006293D03*
D234*
X008361Y006289D03*
X009310Y005104D03*
X008373Y003926D03*
D235*
X008385Y003930D03*
X009306Y005104D03*
X008373Y006285D03*
D236*
X008377Y006283D03*
X009302Y005102D03*
X008393Y003932D03*
X008389Y003932D03*
D237*
X008397Y003934D03*
X009298Y005104D03*
X008385Y006281D03*
X008381Y006281D03*
D238*
X008393Y006277D03*
X008397Y006277D03*
X008786Y005993D03*
X009294Y005104D03*
X008790Y004214D03*
X008782Y004210D03*
X008408Y003938D03*
D239*
X008416Y003942D03*
X008798Y004218D03*
X009286Y005104D03*
X009290Y005104D03*
X008798Y005989D03*
X008408Y006273D03*
X008404Y006273D03*
D240*
X008416Y006269D03*
X008806Y005985D03*
X009282Y005104D03*
X008810Y004222D03*
X008428Y003946D03*
D241*
X008436Y003950D03*
X008440Y003950D03*
X008818Y004226D03*
X008822Y004226D03*
X009278Y005104D03*
X008818Y005981D03*
X008428Y006265D03*
D242*
X008440Y006259D03*
X008444Y006259D03*
X008837Y005976D03*
X009271Y005102D03*
X008837Y004231D03*
X008456Y003956D03*
D243*
X008471Y003962D03*
X008475Y003962D03*
X008853Y004237D03*
X009259Y005104D03*
X009263Y005104D03*
X008853Y005970D03*
X008849Y005970D03*
X008460Y006253D03*
D244*
X008471Y006249D03*
X008865Y005966D03*
X009255Y005104D03*
X008865Y004241D03*
X008861Y004241D03*
X008487Y003966D03*
X008483Y003966D03*
D245*
X008495Y003970D03*
X008873Y004245D03*
X009251Y005104D03*
X008873Y005962D03*
X008483Y006245D03*
X008479Y006245D03*
D246*
X008491Y006241D03*
X008885Y005958D03*
X009247Y005104D03*
X008885Y004249D03*
X008507Y003974D03*
X008503Y003974D03*
D247*
X008511Y003976D03*
X008889Y004251D03*
X008893Y004251D03*
X009243Y005106D03*
X008893Y005956D03*
X008889Y005956D03*
X008499Y006239D03*
X008495Y006239D03*
D248*
X008503Y006237D03*
X008507Y006237D03*
X008897Y005954D03*
X008900Y005954D03*
X009239Y005104D03*
X008900Y004253D03*
X008897Y004253D03*
X008515Y003978D03*
D249*
X008519Y003980D03*
X008523Y003980D03*
X008904Y004255D03*
X009235Y005102D03*
X008904Y005952D03*
X008511Y006235D03*
D250*
X008519Y006231D03*
X008523Y006231D03*
X008912Y005948D03*
X009231Y005106D03*
X008912Y004259D03*
X008530Y003983D03*
D251*
X008534Y003985D03*
X008538Y003985D03*
X008916Y004261D03*
X008920Y004261D03*
X009227Y005104D03*
X008916Y005946D03*
X008526Y006230D03*
D252*
X008538Y006226D03*
X008928Y005942D03*
X009223Y005104D03*
X008550Y003989D03*
X008546Y003989D03*
D253*
X008558Y003993D03*
X008562Y003993D03*
X008940Y004269D03*
X008944Y004269D03*
X009219Y005104D03*
X008940Y005938D03*
X008546Y006222D03*
D254*
X008550Y006220D03*
X008554Y006220D03*
X008944Y005936D03*
X008948Y005936D03*
X009215Y005102D03*
X008948Y004271D03*
X008566Y003995D03*
D255*
X008570Y003997D03*
X008574Y003997D03*
X008952Y004273D03*
X008956Y004273D03*
X009211Y005104D03*
X008952Y005934D03*
X008558Y006218D03*
D256*
X008570Y006214D03*
X008960Y005930D03*
X008963Y005930D03*
X009208Y005104D03*
X008963Y004277D03*
X008586Y004001D03*
X008582Y004001D03*
D257*
X008593Y004005D03*
X008971Y004281D03*
X008975Y004281D03*
X009204Y005104D03*
X008975Y005926D03*
X008971Y005926D03*
X008582Y006210D03*
D258*
X008589Y006206D03*
X008593Y006206D03*
X008983Y005922D03*
X009200Y005104D03*
X008983Y004285D03*
X008601Y004009D03*
D259*
X008605Y004011D03*
X008609Y004011D03*
X008987Y004287D03*
X008991Y004287D03*
X009196Y005102D03*
X008991Y005920D03*
X008987Y005920D03*
X008597Y006204D03*
D260*
X008601Y006202D03*
X008995Y005919D03*
X009192Y005104D03*
X008995Y004289D03*
X008613Y004013D03*
D261*
X009082Y005104D03*
X009086Y005104D03*
X009089Y005104D03*
X009093Y005104D03*
X009097Y005104D03*
X009101Y005104D03*
X009105Y005104D03*
X009109Y005104D03*
X009113Y005104D03*
X009117Y005104D03*
X009121Y005104D03*
X009125Y005104D03*
X009129Y005104D03*
X009133Y005104D03*
X009137Y005104D03*
X009141Y005104D03*
X009145Y005104D03*
X009149Y005104D03*
X009152Y005104D03*
X009156Y005104D03*
X009160Y005104D03*
X009164Y005104D03*
X009168Y005104D03*
X009172Y005104D03*
X009176Y005104D03*
X009180Y005104D03*
X009184Y005104D03*
X009188Y005104D03*
D262*
X009078Y005887D03*
X008688Y006170D03*
X008700Y004044D03*
X008704Y004044D03*
D263*
X008696Y004043D03*
X009078Y004318D03*
X009074Y005889D03*
X008684Y006172D03*
D264*
X008680Y006174D03*
X009070Y005891D03*
X009070Y004316D03*
X009074Y004316D03*
X008692Y004041D03*
X008688Y004041D03*
D265*
X008684Y004039D03*
X009066Y004314D03*
X009066Y005893D03*
X008676Y006176D03*
X008672Y006176D03*
D266*
X008668Y006178D03*
X009058Y005895D03*
X009062Y005895D03*
X009062Y004312D03*
X009058Y004312D03*
X008680Y004037D03*
X008676Y004037D03*
D267*
X008672Y004035D03*
X009054Y004310D03*
X009054Y005897D03*
X009050Y005897D03*
X008664Y006180D03*
X008660Y006180D03*
D268*
X008656Y006182D03*
X009046Y005899D03*
X009046Y004308D03*
X009050Y004308D03*
X008668Y004033D03*
D269*
X008664Y004031D03*
X009042Y004306D03*
X009042Y005901D03*
X008652Y006184D03*
D270*
X008649Y006186D03*
X008645Y006186D03*
X009038Y005903D03*
X009038Y004304D03*
X008660Y004029D03*
D271*
X008656Y004027D03*
X008652Y004027D03*
X009034Y004302D03*
X009034Y005905D03*
X009030Y005905D03*
X008641Y006188D03*
X008637Y006188D03*
D272*
X008633Y006190D03*
X009026Y005907D03*
X009026Y004300D03*
X009030Y004300D03*
X008649Y004025D03*
X008645Y004025D03*
D273*
X008641Y004023D03*
X009023Y004298D03*
X009023Y005909D03*
X009019Y005909D03*
X008629Y006192D03*
D274*
X008625Y006194D03*
X009015Y005911D03*
X009015Y004296D03*
X009019Y004296D03*
X008637Y004021D03*
X008633Y004021D03*
D275*
X008629Y004019D03*
X009011Y004294D03*
X009011Y005913D03*
X009007Y005913D03*
X008621Y006196D03*
X008617Y006196D03*
X008613Y006196D03*
D276*
X008609Y006198D03*
X009003Y005915D03*
X009003Y004293D03*
X009007Y004293D03*
X008625Y004017D03*
D277*
X008621Y004015D03*
X008617Y004015D03*
X008999Y004291D03*
X008999Y005917D03*
X008605Y006200D03*
D278*
X008586Y006208D03*
X008979Y005924D03*
X008979Y004283D03*
X008597Y004007D03*
D279*
X008589Y004003D03*
X008967Y004279D03*
X008967Y005928D03*
X008578Y006212D03*
X008574Y006212D03*
D280*
X008566Y006216D03*
X008562Y006216D03*
X008956Y005932D03*
X008960Y004275D03*
X008578Y003999D03*
D281*
X008554Y003991D03*
X008932Y004267D03*
X008936Y004267D03*
X008936Y005940D03*
X008932Y005940D03*
X008542Y006224D03*
D282*
X008534Y006228D03*
X008530Y006228D03*
X008920Y005944D03*
X008924Y005944D03*
X008924Y004263D03*
X008928Y004263D03*
X008542Y003987D03*
D283*
X008526Y003981D03*
X008908Y004257D03*
X008908Y005950D03*
X008515Y006233D03*
D284*
X008487Y006243D03*
X008877Y005960D03*
X008881Y005960D03*
X008881Y004247D03*
X008877Y004247D03*
X008499Y003972D03*
D285*
X008491Y003968D03*
X008869Y004243D03*
X008869Y005964D03*
X008475Y006247D03*
D286*
X008467Y006251D03*
X008463Y006251D03*
X008857Y005968D03*
X008861Y005968D03*
X008857Y004239D03*
X008479Y003964D03*
D287*
X008432Y003948D03*
X008814Y004224D03*
X008814Y005983D03*
X008810Y005983D03*
X008424Y006267D03*
X008420Y006267D03*
D288*
X008412Y006271D03*
X008802Y005987D03*
X008802Y004220D03*
X008806Y004220D03*
X008424Y003944D03*
X008420Y003944D03*
D289*
X008412Y003940D03*
X008778Y004204D03*
X008794Y004216D03*
X008794Y005991D03*
X008790Y005991D03*
X008778Y005999D03*
X008400Y006275D03*
D290*
X008389Y006279D03*
X008782Y005995D03*
X008786Y004212D03*
X008404Y003936D03*
X008400Y003936D03*
D291*
X008778Y006917D03*
D292*
X008778Y006796D03*
D293*
X008778Y003503D03*
D294*
X008774Y006139D03*
D295*
X008759Y006145D03*
X008771Y004070D03*
X008774Y004070D03*
D296*
X008771Y006141D03*
D297*
X008767Y006143D03*
X008763Y006143D03*
D298*
X008755Y006147D03*
X008751Y006147D03*
X008763Y004068D03*
X008767Y004068D03*
D299*
X008759Y004066D03*
X008747Y006149D03*
D300*
X008743Y006151D03*
X008755Y004064D03*
D301*
X008751Y004062D03*
X008747Y004062D03*
X008739Y006153D03*
X008735Y006153D03*
D302*
X008731Y006155D03*
X008743Y004060D03*
D303*
X008739Y004058D03*
X008727Y006157D03*
D304*
X008723Y006159D03*
X008719Y006159D03*
X008731Y004056D03*
X008735Y004056D03*
D305*
X008727Y004054D03*
X008715Y006161D03*
D306*
X008711Y006163D03*
X008723Y004052D03*
D307*
X008719Y004050D03*
X008715Y004050D03*
X008708Y006165D03*
X008704Y006165D03*
D308*
X008700Y006167D03*
X008711Y004048D03*
D309*
X008708Y004046D03*
X008696Y006169D03*
X008692Y006169D03*
D310*
X008369Y006287D03*
X008365Y006287D03*
X008377Y003928D03*
X008381Y003928D03*
D311*
X008369Y003924D03*
X008365Y003924D03*
X008357Y006291D03*
X008353Y006291D03*
D312*
X008345Y006294D03*
X008353Y003920D03*
X008357Y003920D03*
D313*
X008345Y003917D03*
X008337Y006298D03*
X008334Y006298D03*
D314*
X008326Y006302D03*
X008322Y006302D03*
X008337Y003913D03*
D315*
X008326Y003909D03*
X008314Y006306D03*
X008310Y006306D03*
D316*
X008302Y006310D03*
X008314Y003905D03*
D317*
X008294Y003897D03*
X008290Y003897D03*
X008278Y006318D03*
D318*
X008271Y006322D03*
X008267Y006322D03*
X008282Y003893D03*
D319*
X008278Y003891D03*
X008274Y003891D03*
X008263Y006324D03*
D320*
X008247Y006330D03*
X008243Y006330D03*
X008259Y003885D03*
D321*
X008247Y003881D03*
X008239Y006334D03*
D322*
X008227Y006338D03*
X008223Y006338D03*
X008239Y003877D03*
D323*
X008231Y003873D03*
X008227Y003873D03*
X008215Y006342D03*
D324*
X008204Y006346D03*
X008215Y003869D03*
X008219Y003869D03*
D325*
X008208Y003865D03*
X008204Y003865D03*
X008192Y006350D03*
D326*
X008184Y006354D03*
X008180Y006354D03*
X008192Y003861D03*
X008196Y003861D03*
D327*
X008184Y003857D03*
X008172Y006357D03*
D328*
X008164Y006361D03*
X008160Y006361D03*
X008172Y003854D03*
D329*
X008149Y003846D03*
X008141Y006369D03*
D330*
X008129Y006373D03*
X008125Y006373D03*
X008137Y003842D03*
X008141Y003842D03*
D331*
X008129Y003838D03*
X008117Y006377D03*
X008113Y006377D03*
D332*
X008105Y006381D03*
X008117Y003834D03*
X008121Y003834D03*
D333*
X008109Y003830D03*
X008097Y006385D03*
X008093Y006385D03*
X008089Y006385D03*
D334*
X008074Y006393D03*
X008070Y006393D03*
X008086Y003822D03*
D335*
X008062Y003814D03*
X008050Y006401D03*
D336*
X008050Y003808D03*
M02*
